<?xml version="1.0" encoding="UTF-8" standalone="no"?>
<!-- Created with Inkscape (http://www.inkscape.org/) -->
<svg xmlns:dc="http://purl.org/dc/elements/1.1/" xmlns:cc="http://creativecommons.org/ns#" xmlns:rdf="http://www.w3.org/1999/02/22-rdf-syntax-ns#" xmlns:svg="http://www.w3.org/2000/svg" xmlns="http://www.w3.org/2000/svg" xmlns:sodipodi="http://sodipodi.sourceforge.net/DTD/sodipodi-0.dtd" xmlns:inkscape="http://www.inkscape.org/namespaces/inkscape" width="429.04831" height="213.56471" id="svg3540" sodipodi:version="0.32" inkscape:version="0.46" version="1.0" sodipodi:docname="DHBW Ravensburg.svg" inkscape:output_extension="org.inkscape.output.svg.inkscape">
  <defs id="defs3542">
    <clipPath id="clipPath691">
      <path d="M 440.078,8.267 L 544.251,8.267 L 544.251,64.842 L 440.078,64.842 L 440.078,8.267 z" id="path693"></path>
    </clipPath>
    <clipPath id="clipPath865">
      <path d="M 440.078,22.486 L 520.46,22.486 L 520.46,62.497 L 440.078,62.497 L 440.078,22.486 z" id="path867"></path>
    </clipPath>
    <clipPath id="clipPath881">
      <path d="M 440.078,8.267 L 544.251,8.267 L 544.251,64.842 L 440.078,64.842 L 440.078,8.267 z" id="path883"></path>
    </clipPath>
  </defs>
  <metadata id="metadata3545"></metadata>
  <g inkscape:label="Ebene 1" inkscape:groupmode="layer" id="layer1" transform="translate(-155.47586,-375.23292)">
    <g clip-path="url(#clipPath691)" id="g689" transform="matrix(5.3376499,0,0,-5.3376499,-2193.5091,708.81842)">
      <g transform="translate(446.6855,42.3654)" id="g695">
        <path id="path697" style="fill:#e2001a;fill-opacity:1;fill-rule:nonzero;stroke:none" d="M 0,0 L -6.11,0 C -6.384,0 -6.607,0.218 -6.607,0.491 L -6.607,12.711 C -6.607,12.985 -6.384,13.202 -6.11,13.202 L 6.105,13.202 C 6.378,13.202 6.601,12.985 6.601,12.711 L 6.601,12.164 C 6.601,12.301 6.545,12.369 6.455,12.369 C 6.365,12.369 6.241,12.301 6.105,12.164 L 0.491,6.556 C 0.218,6.277 0,5.837 0,5.563 L 0,0"></path>
      </g>
      <g transform="translate(454.4361,55.0767)" id="g699">
        <path id="path701" style="fill:#e2001a;fill-opacity:1;fill-rule:nonzero;stroke:none" d="M 0,0 L 0,0.614 C 0,0.887 0.223,1.328 0.497,1.601 L 6.11,7.215 C 6.247,7.352 6.371,7.42 6.461,7.42 C 6.551,7.42 6.607,7.352 6.607,7.215 L 6.607,0.491 L 0.497,0.491 C 0.223,0.491 0,0.273 0,0"></path>
      </g>
      <g transform="translate(467.1473,42.3654)" id="g703">
        <path id="path705" style="fill:#7d8990;fill-opacity:1;fill-rule:nonzero;stroke:none" d="M 0,0 L -12.215,0 C -12.488,0 -12.711,0.218 -12.711,0.491 L -12.711,1.105 C -12.711,0.968 -12.655,0.9 -12.565,0.9 C -12.475,0.9 -12.351,0.968 -12.215,1.105 L -6.601,6.718 C -6.328,6.992 -6.105,7.438 -6.105,7.712 L -6.105,13.202 L 0,13.202 C 0.273,13.202 0.497,12.985 0.497,12.711 L 0.497,0.491 C 0.497,0.218 0.273,0 0,0"></path>
      </g>
      <g transform="translate(454.5818,43.2652)" id="g707">
        <path id="path709" style="fill:#8e1016;fill-opacity:1;fill-rule:nonzero;stroke:none" d="M 0,0 C -0.09,0 -0.146,0.068 -0.146,0.205 L -0.146,11.812 C -0.146,12.085 0.077,12.303 0.351,12.303 L 6.461,12.303 L 6.461,6.812 C 6.461,6.538 6.238,6.092 5.964,5.819 L 0.351,0.205 C 0.214,0.068 0.09,0 0,0"></path>
      </g>
      <g transform="translate(454.5818,43.2652)" id="g711">
        <path id="path713" style="fill:#4d5d65;fill-opacity:1;fill-rule:nonzero;stroke:none" d="M 0,0 C -0.09,0 -0.146,0.068 -0.146,0.205 C -0.146,0.068 -0.09,0 0,0 C 0.09,0 0.214,0.068 0.351,0.205 L 5.964,5.819 C 6.238,6.092 6.461,6.538 6.461,6.812 L 6.461,12.303 L 6.461,6.812 C 6.461,6.538 6.238,6.092 5.964,5.819 L 0.351,0.205 C 0.214,0.068 0.09,0 0,0"></path>
      </g>
      <g transform="translate(446.8284,35.509)" id="g715">
        <path id="path717" style="fill:#7d8990;fill-opacity:1;fill-rule:nonzero;stroke:none" d="M 0,0 C -0.089,0 -0.143,0.068 -0.143,0.205 L -0.143,6.856 L 5.962,6.856 C 6.235,6.856 6.458,7.074 6.458,7.347 L 6.458,6.806 C 6.458,6.533 6.235,6.092 5.962,5.819 L 0.348,0.205 C 0.211,0.068 0.089,0 0,0"></path>
      </g>
      <g transform="translate(452.79,42.3654)" id="g719">
        <path id="path721" style="fill:#8e1016;fill-opacity:1;fill-rule:nonzero;stroke:none" d="M 0,0 L -6.105,0 L -6.105,5.563 C -6.105,5.837 -5.887,6.277 -5.613,6.556 L 0,12.164 C 0.137,12.301 0.261,12.369 0.351,12.369 C 0.441,12.369 0.497,12.301 0.497,12.164 L 0.497,0.491 C 0.497,0.218 0.273,0 0,0"></path>
      </g>
      <g transform="translate(452.79,42.3654)" id="g723">
        <path id="path725" style="fill:#4d5d65;fill-opacity:1;fill-rule:nonzero;stroke:none" d="M 0,0 L -6.105,0 L 0,0 C 0.273,0 0.497,0.218 0.497,0.491 C 0.497,0.218 0.273,0 0,0"></path>
      </g>
      <g transform="translate(475.868,31.241)" id="g727">
        <path id="path729" style="fill:#5d6971;fill-opacity:1;fill-rule:nonzero;stroke:none" d="M 0,0 C 0,0.195 -0.066,0.348 -0.198,0.46 C -0.33,0.573 -0.502,0.629 -0.713,0.629 L -1.259,0.629 L -1.259,-0.684 L -0.713,-0.684 C -0.615,-0.684 -0.523,-0.667 -0.437,-0.634 C -0.35,-0.6 -0.273,-0.553 -0.208,-0.493 C -0.143,-0.432 -0.092,-0.36 -0.055,-0.277 C -0.018,-0.193 0,-0.101 0,0 M -0.082,1.519 C -0.082,1.69 -0.141,1.826 -0.258,1.926 C -0.374,2.027 -0.526,2.077 -0.714,2.077 L -1.259,2.077 L -1.259,0.915 L -0.728,0.915 C -0.645,0.915 -0.565,0.93 -0.488,0.96 C -0.411,0.99 -0.343,1.032 -0.283,1.086 C -0.223,1.139 -0.174,1.203 -0.137,1.277 C -0.101,1.351 -0.082,1.431 -0.082,1.519 M 0.383,-0.015 C 0.383,-0.165 0.352,-0.301 0.292,-0.422 C 0.232,-0.542 0.149,-0.644 0.044,-0.726 C -0.062,-0.808 -0.185,-0.871 -0.326,-0.914 C -0.467,-0.958 -0.616,-0.979 -0.773,-0.979 L -1.628,-0.979 L -1.628,2.373 L -0.714,2.373 C -0.583,2.373 -0.457,2.356 -0.335,2.322 C -0.213,2.289 -0.105,2.238 -0.013,2.169 C 0.079,2.1 0.153,2.013 0.208,1.908 C 0.263,1.802 0.291,1.677 0.291,1.533 C 0.291,1.443 0.271,1.356 0.23,1.274 C 0.19,1.192 0.14,1.118 0.08,1.053 C 0.02,0.988 -0.046,0.932 -0.118,0.887 C -0.19,0.842 -0.259,0.809 -0.326,0.789 C -0.232,0.773 -0.143,0.741 -0.057,0.696 C 0.028,0.651 0.104,0.593 0.169,0.523 C 0.234,0.453 0.286,0.371 0.325,0.279 C 0.363,0.187 0.383,0.089 0.383,-0.015"></path>
      </g>
      <g transform="translate(478.1488,31.5698)" id="g731">
        <path id="path733" style="fill:#5d6971;fill-opacity:1;fill-rule:nonzero;stroke:none" d="M 0,0 L -0.422,-0.09 C -0.492,-0.107 -0.567,-0.132 -0.648,-0.166 C -0.728,-0.199 -0.801,-0.239 -0.866,-0.286 C -0.931,-0.333 -0.986,-0.387 -1.029,-0.447 C -1.073,-0.507 -1.095,-0.573 -1.095,-0.643 C -1.095,-0.783 -1.052,-0.894 -0.967,-0.975 C -0.881,-1.055 -0.777,-1.095 -0.653,-1.095 C -0.576,-1.095 -0.501,-1.079 -0.429,-1.047 C -0.357,-1.015 -0.292,-0.975 -0.233,-0.927 C -0.175,-0.878 -0.126,-0.826 -0.085,-0.771 L 0,-0.613 L 0,0 z M 0.019,-1.308 L 0.02,-0.95 L -0.053,-1.05 C -0.091,-1.097 -0.143,-1.144 -0.206,-1.191 C -0.27,-1.238 -0.343,-1.278 -0.425,-1.314 C -0.507,-1.349 -0.595,-1.366 -0.689,-1.366 C -0.91,-1.366 -1.092,-1.304 -1.235,-1.181 C -1.377,-1.057 -1.448,-0.883 -1.448,-0.659 C -1.448,-0.552 -1.417,-0.453 -1.355,-0.363 C -1.293,-0.272 -1.215,-0.194 -1.119,-0.127 C -1.023,-0.06 -0.919,-0.003 -0.807,0.044 C -0.695,0.091 -0.59,0.124 -0.493,0.144 L 0,0.255 L 0,0.42 C 0,0.584 -0.045,0.722 -0.133,0.834 C -0.222,0.946 -0.357,1.002 -0.537,1.002 C -0.591,1.002 -0.651,0.992 -0.718,0.972 C -0.785,0.952 -0.849,0.929 -0.909,0.905 C -0.969,0.879 -1.024,0.854 -1.072,0.829 L -1.165,0.776 L -1.271,1.047 L -1.175,1.098 C -1.125,1.121 -1.065,1.146 -0.994,1.173 C -0.924,1.2 -0.846,1.223 -0.761,1.244 C -0.676,1.264 -0.589,1.274 -0.502,1.274 C -0.248,1.274 -0.045,1.202 0.107,1.06 C 0.259,0.918 0.334,0.709 0.334,0.435 L 0.334,-1.308 L 0.019,-1.308 z"></path>
      </g>
      <g transform="translate(480.7387,32.0506)" id="g735">
        <path id="path737" style="fill:#5d6971;fill-opacity:1;fill-rule:nonzero;stroke:none" d="M 0,0 L -0.055,0.123 C -0.085,0.178 -0.125,0.234 -0.174,0.291 C -0.224,0.348 -0.282,0.398 -0.349,0.442 C -0.415,0.485 -0.489,0.507 -0.568,0.507 C -0.665,0.507 -0.751,0.482 -0.827,0.432 C -0.904,0.381 -0.97,0.312 -1.025,0.223 C -1.079,0.135 -1.122,0.032 -1.152,-0.085 C -1.182,-0.202 -1.196,-0.328 -1.196,-0.462 C -1.196,-0.579 -1.186,-0.703 -1.164,-0.833 C -1.143,-0.964 -1.107,-1.083 -1.057,-1.19 C -1.007,-1.297 -0.942,-1.386 -0.862,-1.456 C -0.783,-1.526 -0.685,-1.561 -0.568,-1.561 C -0.495,-1.561 -0.425,-1.541 -0.356,-1.501 C -0.289,-1.461 -0.229,-1.414 -0.18,-1.36 L -0.057,-1.202 L 0,-1.084 L 0,0 z M 0.019,-1.789 L 0.02,-1.43 L -0.05,-1.531 C -0.087,-1.578 -0.134,-1.624 -0.192,-1.671 C -0.251,-1.718 -0.316,-1.759 -0.387,-1.794 C -0.459,-1.829 -0.531,-1.847 -0.605,-1.847 C -0.778,-1.847 -0.925,-1.806 -1.045,-1.724 C -1.165,-1.642 -1.263,-1.535 -1.34,-1.403 C -1.417,-1.271 -1.472,-1.122 -1.507,-0.956 C -1.542,-0.791 -1.56,-0.626 -1.56,-0.462 C -1.56,-0.311 -1.537,-0.162 -1.492,-0.013 C -1.447,0.136 -1.383,0.271 -1.3,0.391 C -1.216,0.512 -1.116,0.609 -0.997,0.682 C -0.879,0.756 -0.748,0.793 -0.605,0.793 C -0.528,0.793 -0.456,0.776 -0.388,0.743 C -0.319,0.709 -0.258,0.67 -0.205,0.625 L -0.072,0.489 L 0,0.381 L 0,1.771 L 0.349,1.771 L 0.349,-1.789 L 0.019,-1.789 z"></path>
      </g>
      <g transform="translate(483.2084,31.9755)" id="g739">
        <path id="path741" style="fill:#5d6971;fill-opacity:1;fill-rule:nonzero;stroke:none" d="M 0,0 C -0.022,0.1 -0.055,0.194 -0.101,0.281 C -0.146,0.368 -0.206,0.442 -0.279,0.504 C -0.353,0.566 -0.442,0.597 -0.546,0.597 C -0.643,0.597 -0.729,0.567 -0.803,0.509 C -0.876,0.451 -0.937,0.378 -0.984,0.291 C -1.031,0.204 -1.067,0.111 -1.092,0.013 C -1.117,-0.086 -1.13,-0.177 -1.13,-0.261 L 0.033,-0.261 C 0.033,-0.187 0.022,-0.1 0,0 M -1.139,-0.512 C -1.139,-0.613 -1.127,-0.72 -1.102,-0.834 C -1.077,-0.947 -1.038,-1.053 -0.984,-1.152 C -0.93,-1.251 -0.862,-1.333 -0.778,-1.398 C -0.694,-1.463 -0.594,-1.496 -0.477,-1.496 C -0.406,-1.496 -0.337,-1.488 -0.268,-1.473 C -0.2,-1.458 -0.136,-1.441 -0.077,-1.42 C -0.018,-1.4 0.032,-1.38 0.076,-1.358 L 0.181,-1.3 L 0.287,-1.591 L 0.184,-1.636 C 0.135,-1.657 0.077,-1.677 0.008,-1.697 C -0.061,-1.716 -0.137,-1.734 -0.223,-1.749 C -0.308,-1.764 -0.398,-1.772 -0.492,-1.772 C -0.689,-1.772 -0.852,-1.729 -0.979,-1.644 C -1.106,-1.558 -1.208,-1.448 -1.284,-1.313 C -1.36,-1.177 -1.413,-1.028 -1.443,-0.866 C -1.473,-0.704 -1.488,-0.544 -1.488,-0.387 C -1.488,-0.263 -1.468,-0.127 -1.428,0.02 C -1.388,0.167 -1.328,0.303 -1.249,0.429 C -1.171,0.554 -1.074,0.659 -0.958,0.742 C -0.842,0.826 -0.707,0.868 -0.553,0.868 C -0.382,0.868 -0.238,0.828 -0.121,0.747 C -0.003,0.667 0.091,0.565 0.163,0.441 C 0.235,0.317 0.287,0.182 0.319,0.035 C 0.351,-0.113 0.367,-0.253 0.367,-0.387 L 0.367,-0.512 L -1.139,-0.512 z"></path>
      </g>
      <g transform="translate(485.745,30.2617)" id="g743">
        <path id="path745" style="fill:#5d6971;fill-opacity:1;fill-rule:nonzero;stroke:none" d="M 0,0 L 0,1.693 C 0,1.76 -0.011,1.829 -0.032,1.901 C -0.053,1.974 -0.084,2.039 -0.124,2.098 C -0.164,2.156 -0.214,2.204 -0.276,2.24 C -0.337,2.277 -0.408,2.296 -0.487,2.296 C -0.564,2.296 -0.638,2.277 -0.709,2.24 C -0.78,2.204 -0.843,2.159 -0.898,2.108 L -1.032,1.949 L -1.09,1.819 L -1.09,0 L -1.439,0 L -1.439,2.524 L -1.104,2.524 L -1.104,2.172 L -1.039,2.265 C -1.003,2.31 -0.954,2.356 -0.894,2.403 C -0.834,2.45 -0.767,2.491 -0.69,2.527 C -0.613,2.563 -0.532,2.582 -0.445,2.582 C -0.312,2.582 -0.195,2.557 -0.096,2.509 C 0.005,2.46 0.087,2.396 0.151,2.316 C 0.217,2.235 0.266,2.144 0.299,2.042 C 0.332,1.94 0.349,1.837 0.349,1.733 L 0.349,0 L 0,0 z"></path>
      </g>
      <path id="path747" style="fill:#5d6971;fill-opacity:1;fill-rule:nonzero;stroke:none" d="M 486.856,31.942 L 487.911,31.942 L 487.911,31.632 L 486.856,31.632 L 486.856,31.942 z"></path>
      <g transform="translate(491.4116,30.2617)" id="g749">
        <path id="path751" style="fill:#5d6971;fill-opacity:1;fill-rule:nonzero;stroke:none" d="M 0,0 L -0.407,0 L -1.13,2.894 L -1.844,0 L -2.255,0 L -3.029,3.352 L -2.642,3.352 L -2.034,0.457 L -1.321,3.352 L -0.914,3.352 L -0.196,0.457 L 0.407,3.352 L 0.774,3.352 L 0,0 z"></path>
      </g>
      <g transform="translate(494.2882,33.4658)" id="g753">
        <path id="path755" style="fill:#5d6971;fill-opacity:1;fill-rule:nonzero;stroke:none" d="M 0,0 C 0,-0.063 -0.022,-0.118 -0.068,-0.163 C -0.113,-0.208 -0.169,-0.23 -0.236,-0.23 C -0.303,-0.23 -0.358,-0.208 -0.401,-0.163 C -0.445,-0.118 -0.467,-0.063 -0.467,0 C -0.467,0.063 -0.445,0.117 -0.401,0.163 C -0.358,0.207 -0.303,0.23 -0.236,0.23 C -0.169,0.23 -0.113,0.207 -0.068,0.163 C -0.022,0.117 0,0.063 0,0 M -0.864,0 C -0.864,-0.063 -0.886,-0.118 -0.932,-0.163 C -0.977,-0.208 -1.033,-0.23 -1.1,-0.23 C -1.167,-0.23 -1.222,-0.208 -1.266,-0.163 C -1.31,-0.118 -1.331,-0.063 -1.331,0 C -1.331,0.063 -1.31,0.117 -1.266,0.163 C -1.222,0.207 -1.167,0.23 -1.1,0.23 C -1.033,0.23 -0.977,0.207 -0.932,0.163 C -0.886,0.117 -0.864,0.063 -0.864,0 M -0.121,-3.204 L -0.121,-2.847 L -0.188,-2.943 C -0.222,-2.99 -0.268,-3.037 -0.325,-3.084 C -0.382,-3.131 -0.447,-3.172 -0.523,-3.208 C -0.598,-3.244 -0.68,-3.262 -0.77,-3.262 C -0.906,-3.262 -1.024,-3.238 -1.122,-3.189 C -1.22,-3.141 -1.301,-3.077 -1.364,-2.999 C -1.428,-2.92 -1.474,-2.829 -1.504,-2.725 C -1.534,-2.621 -1.549,-2.514 -1.549,-2.403 L -1.549,-0.681 L -1.201,-0.681 L -1.201,-2.374 C -1.201,-2.451 -1.191,-2.525 -1.173,-2.597 C -1.155,-2.669 -1.127,-2.733 -1.09,-2.788 C -1.054,-2.843 -1.006,-2.889 -0.946,-2.924 C -0.887,-2.959 -0.814,-2.977 -0.727,-2.977 C -0.647,-2.977 -0.573,-2.956 -0.503,-2.914 C -0.434,-2.872 -0.372,-2.824 -0.319,-2.77 L -0.192,-2.61 L -0.14,-2.499 L -0.14,-0.681 L 0.209,-0.681 L 0.209,-3.204 L -0.121,-3.204 z"></path>
      </g>
      <g transform="translate(496.3825,32.4532)" id="g757">
        <path id="path759" style="fill:#5d6971;fill-opacity:1;fill-rule:nonzero;stroke:none" d="M 0,0 L -0.091,0.043 L -0.196,0.071 C -0.263,0.071 -0.327,0.051 -0.388,0.013 C -0.447,-0.026 -0.501,-0.07 -0.548,-0.12 L -0.661,-0.269 L -0.713,-0.377 L -0.713,-2.191 L -1.062,-2.191 L -1.062,0.332 L -0.728,0.332 L -0.728,-0.019 L -0.676,0.068 L -0.558,0.209 C -0.507,0.258 -0.448,0.3 -0.38,0.336 C -0.311,0.372 -0.233,0.39 -0.146,0.39 L -0.002,0.364 L 0.105,0.313 L 0,0 z"></path>
      </g>
      <g transform="translate(498.1444,30.2563)" id="g761">
        <path id="path763" style="fill:#5d6971;fill-opacity:1;fill-rule:nonzero;stroke:none" d="M 0,0 L -0.1,-0.023 L -0.219,-0.043 L -0.332,-0.053 C -0.432,-0.053 -0.517,-0.038 -0.586,-0.008 C -0.655,0.023 -0.711,0.064 -0.753,0.116 C -0.794,0.167 -0.825,0.227 -0.843,0.294 C -0.862,0.361 -0.871,0.43 -0.871,0.5 L -0.871,2.243 L -1.293,2.243 L -1.293,2.529 L -0.871,2.529 L -0.871,3.212 L -0.523,3.212 L -0.523,2.529 L -0.025,2.529 L -0.025,2.243 L -0.523,2.243 L -0.523,0.535 C -0.523,0.465 -0.507,0.397 -0.475,0.331 C -0.443,0.266 -0.389,0.234 -0.311,0.234 C -0.265,0.234 -0.213,0.243 -0.156,0.261 C -0.099,0.28 -0.061,0.296 -0.04,0.309 L 0.065,0.023 L 0,0 z"></path>
      </g>
      <g transform="translate(499.8567,30.2563)" id="g765">
        <path id="path767" style="fill:#5d6971;fill-opacity:1;fill-rule:nonzero;stroke:none" d="M 0,0 L -0.101,-0.023 L -0.219,-0.043 L -0.331,-0.053 C -0.432,-0.053 -0.516,-0.038 -0.585,-0.008 C -0.654,0.023 -0.71,0.064 -0.752,0.116 C -0.794,0.167 -0.825,0.227 -0.843,0.294 C -0.862,0.361 -0.871,0.43 -0.871,0.5 L -0.871,2.243 L -1.293,2.243 L -1.293,2.529 L -0.871,2.529 L -0.871,3.212 L -0.522,3.212 L -0.522,2.529 L -0.025,2.529 L -0.025,2.243 L -0.522,2.243 L -0.522,0.535 C -0.522,0.465 -0.506,0.397 -0.475,0.331 C -0.443,0.266 -0.389,0.234 -0.311,0.234 C -0.265,0.234 -0.213,0.243 -0.156,0.261 C -0.099,0.28 -0.061,0.296 -0.04,0.309 L 0.065,0.023 L 0,0 z"></path>
      </g>
      <g transform="translate(501.8753,31.9755)" id="g769">
        <path id="path771" style="fill:#5d6971;fill-opacity:1;fill-rule:nonzero;stroke:none" d="M 0,0 C -0.022,0.1 -0.056,0.194 -0.1,0.281 C -0.146,0.368 -0.206,0.442 -0.28,0.504 C -0.353,0.566 -0.442,0.597 -0.546,0.597 C -0.643,0.597 -0.729,0.567 -0.803,0.509 C -0.877,0.451 -0.937,0.378 -0.984,0.291 C -1.031,0.204 -1.067,0.111 -1.092,0.013 C -1.117,-0.086 -1.13,-0.177 -1.13,-0.261 L 0.033,-0.261 C 0.033,-0.187 0.022,-0.1 0,0 M -1.139,-0.512 C -1.139,-0.613 -1.127,-0.72 -1.102,-0.834 C -1.077,-0.947 -1.038,-1.053 -0.984,-1.152 C -0.93,-1.251 -0.862,-1.333 -0.778,-1.398 C -0.694,-1.463 -0.593,-1.496 -0.477,-1.496 C -0.406,-1.496 -0.337,-1.488 -0.268,-1.473 C -0.2,-1.458 -0.136,-1.441 -0.078,-1.42 C -0.019,-1.4 0.033,-1.38 0.076,-1.358 L 0.182,-1.3 L 0.287,-1.591 L 0.184,-1.636 C 0.136,-1.657 0.077,-1.677 0.008,-1.697 C -0.061,-1.716 -0.137,-1.734 -0.223,-1.749 C -0.308,-1.764 -0.398,-1.772 -0.492,-1.772 C -0.689,-1.772 -0.851,-1.729 -0.979,-1.644 C -1.106,-1.558 -1.208,-1.448 -1.284,-1.313 C -1.359,-1.177 -1.413,-1.028 -1.443,-0.866 C -1.473,-0.704 -1.488,-0.544 -1.488,-0.387 C -1.488,-0.263 -1.468,-0.127 -1.428,0.02 C -1.388,0.167 -1.328,0.303 -1.25,0.429 C -1.171,0.554 -1.074,0.659 -0.958,0.742 C -0.842,0.826 -0.707,0.868 -0.553,0.868 C -0.382,0.868 -0.238,0.828 -0.121,0.747 C -0.004,0.667 0.091,0.565 0.163,0.441 C 0.235,0.317 0.287,0.182 0.319,0.035 C 0.351,-0.113 0.367,-0.253 0.367,-0.387 L 0.367,-0.512 L -1.139,-0.512 z"></path>
      </g>
      <g transform="translate(505.7138,30.2617)" id="g773">
        <path id="path775" style="fill:#5d6971;fill-opacity:1;fill-rule:nonzero;stroke:none" d="M 0,0 L 0,1.693 C 0,1.767 -0.008,1.84 -0.025,1.912 C -0.042,1.984 -0.068,2.048 -0.103,2.105 C -0.138,2.162 -0.185,2.208 -0.245,2.243 C -0.305,2.278 -0.377,2.296 -0.461,2.296 C -0.547,2.296 -0.625,2.28 -0.694,2.248 C -0.761,2.216 -0.82,2.178 -0.869,2.133 L -0.987,1.989 L -1.037,1.859 L -1.037,0 L -1.385,0 L -1.385,1.693 C -1.385,1.767 -1.393,1.84 -1.407,1.912 C -1.423,1.984 -1.448,2.048 -1.482,2.105 C -1.518,2.162 -1.564,2.208 -1.623,2.243 C -1.682,2.278 -1.756,2.296 -1.846,2.296 C -1.926,2.296 -2,2.277 -2.069,2.24 C -2.137,2.204 -2.197,2.159 -2.246,2.108 L -2.367,1.949 L -2.422,1.819 L -2.422,0 L -2.77,0 L -2.77,2.524 L -2.436,2.524 L -2.436,2.172 L -2.373,2.26 L -2.248,2.4 C -2.197,2.449 -2.132,2.491 -2.057,2.527 C -1.982,2.563 -1.897,2.582 -1.804,2.582 C -1.68,2.582 -1.578,2.565 -1.495,2.531 C -1.413,2.498 -1.346,2.458 -1.292,2.413 L -1.172,2.278 L -1.112,2.17 L -1.043,2.263 C -1.009,2.308 -0.962,2.354 -0.903,2.401 C -0.844,2.448 -0.774,2.49 -0.693,2.526 C -0.61,2.563 -0.52,2.582 -0.419,2.582 C -0.275,2.582 -0.154,2.557 -0.055,2.509 C 0.044,2.46 0.123,2.396 0.183,2.316 C 0.244,2.235 0.286,2.144 0.311,2.042 C 0.336,1.94 0.349,1.837 0.349,1.733 L 0.349,0 L 0,0 z"></path>
      </g>
      <g transform="translate(508.461,31.5886)" id="g777">
        <path id="path779" style="fill:#5d6971;fill-opacity:1;fill-rule:nonzero;stroke:none" d="M 0,0 C 0,0.11 -0.013,0.223 -0.038,0.339 C -0.063,0.454 -0.1,0.559 -0.152,0.653 C -0.203,0.747 -0.268,0.823 -0.347,0.881 C -0.425,0.94 -0.519,0.969 -0.628,0.969 C -0.694,0.969 -0.76,0.949 -0.825,0.909 C -0.89,0.869 -0.949,0.823 -1.002,0.771 L -1.136,0.613 L -1.197,0.492 L -1.197,-1.039 L -1.12,-1.059 L -0.995,-1.077 L -0.857,-1.092 L -0.738,-1.099 C -0.622,-1.099 -0.518,-1.064 -0.427,-0.994 C -0.335,-0.924 -0.257,-0.835 -0.195,-0.728 C -0.131,-0.621 -0.083,-0.502 -0.05,-0.371 C -0.016,-0.241 0,-0.117 0,0 M 0.363,0 C 0.363,-0.164 0.34,-0.328 0.293,-0.492 C 0.246,-0.656 0.176,-0.804 0.083,-0.936 C -0.011,-1.068 -0.126,-1.176 -0.263,-1.259 C -0.4,-1.343 -0.558,-1.385 -0.738,-1.385 C -0.789,-1.385 -0.853,-1.381 -0.932,-1.373 C -1.01,-1.364 -1.089,-1.353 -1.169,-1.34 C -1.25,-1.327 -1.325,-1.313 -1.395,-1.3 C -1.464,-1.286 -1.515,-1.276 -1.545,-1.27 L -1.545,2.233 L -1.197,2.233 L -1.2,0.843 L -1.131,0.941 L -0.996,1.079 C -0.942,1.126 -0.879,1.167 -0.809,1.202 C -0.738,1.237 -0.665,1.255 -0.588,1.255 C -0.418,1.255 -0.273,1.215 -0.153,1.137 C -0.032,1.058 0.066,0.959 0.143,0.838 C 0.219,0.718 0.275,0.583 0.311,0.434 C 0.346,0.285 0.363,0.14 0.363,0"></path>
      </g>
      <g transform="translate(510.8399,31.9755)" id="g781">
        <path id="path783" style="fill:#5d6971;fill-opacity:1;fill-rule:nonzero;stroke:none" d="M 0,0 C -0.022,0.1 -0.056,0.194 -0.101,0.281 C -0.146,0.368 -0.206,0.442 -0.28,0.504 C -0.353,0.566 -0.442,0.597 -0.546,0.597 C -0.644,0.597 -0.729,0.567 -0.803,0.509 C -0.877,0.451 -0.937,0.378 -0.985,0.291 C -1.031,0.204 -1.068,0.111 -1.092,0.013 C -1.118,-0.086 -1.13,-0.177 -1.13,-0.261 L 0.033,-0.261 C 0.033,-0.187 0.022,-0.1 0,0 M -1.14,-0.512 C -1.14,-0.613 -1.127,-0.72 -1.102,-0.834 C -1.077,-0.947 -1.038,-1.053 -0.985,-1.152 C -0.931,-1.251 -0.862,-1.333 -0.778,-1.398 C -0.694,-1.463 -0.594,-1.496 -0.477,-1.496 C -0.407,-1.496 -0.337,-1.488 -0.268,-1.473 C -0.2,-1.458 -0.136,-1.441 -0.077,-1.42 C -0.019,-1.4 0.032,-1.38 0.076,-1.358 L 0.182,-1.3 L 0.287,-1.591 L 0.184,-1.636 C 0.135,-1.657 0.076,-1.677 0.008,-1.697 C -0.061,-1.716 -0.138,-1.734 -0.223,-1.749 C -0.309,-1.764 -0.399,-1.772 -0.492,-1.772 C -0.689,-1.772 -0.852,-1.729 -0.979,-1.644 C -1.107,-1.558 -1.208,-1.448 -1.283,-1.313 C -1.36,-1.177 -1.413,-1.028 -1.443,-0.866 C -1.474,-0.704 -1.489,-0.544 -1.489,-0.387 C -1.489,-0.263 -1.469,-0.127 -1.428,0.02 C -1.388,0.167 -1.329,0.303 -1.25,0.429 C -1.171,0.554 -1.074,0.659 -0.958,0.742 C -0.843,0.826 -0.708,0.868 -0.554,0.868 C -0.383,0.868 -0.239,0.828 -0.121,0.747 C -0.004,0.667 0.091,0.565 0.163,0.441 C 0.235,0.317 0.287,0.182 0.319,0.035 C 0.35,-0.113 0.367,-0.253 0.367,-0.387 L 0.367,-0.512 L -1.14,-0.512 z"></path>
      </g>
      <g transform="translate(512.9653,32.4532)" id="g785">
        <path id="path787" style="fill:#5d6971;fill-opacity:1;fill-rule:nonzero;stroke:none" d="M 0,0 L -0.091,0.043 L -0.197,0.071 C -0.263,0.071 -0.327,0.051 -0.387,0.013 C -0.447,-0.026 -0.501,-0.07 -0.547,-0.12 L -0.661,-0.269 L -0.714,-0.377 L -0.714,-2.191 L -1.062,-2.191 L -1.062,0.332 L -0.728,0.332 L -0.728,-0.019 L -0.676,0.068 L -0.558,0.209 C -0.508,0.258 -0.448,0.3 -0.379,0.336 C -0.311,0.372 -0.233,0.39 -0.146,0.39 L -0.003,0.364 L 0.105,0.313 L 0,0 z"></path>
      </g>
      <g transform="translate(514.8507,31.9748)" id="g789">
        <path id="path791" style="fill:#5d6971;fill-opacity:1;fill-rule:nonzero;stroke:none" d="M 0,0 C 0,0.184 -0.047,0.332 -0.138,0.444 C -0.229,0.556 -0.355,0.612 -0.514,0.612 C -0.593,0.612 -0.667,0.595 -0.73,0.562 C -0.796,0.528 -0.85,0.483 -0.893,0.426 C -0.936,0.369 -0.969,0.304 -0.993,0.231 C -1.016,0.157 -1.027,0.08 -1.027,0 C -1.027,-0.09 -1.019,-0.176 -1,-0.258 C -0.981,-0.34 -0.953,-0.411 -0.913,-0.471 C -0.874,-0.532 -0.821,-0.579 -0.756,-0.614 C -0.691,-0.649 -0.611,-0.667 -0.514,-0.667 C -0.421,-0.667 -0.342,-0.646 -0.278,-0.604 C -0.212,-0.562 -0.159,-0.51 -0.118,-0.446 C -0.076,-0.383 -0.047,-0.312 -0.028,-0.233 C -0.01,-0.155 0,-0.077 0,0 M 0.184,-2.127 C 0.184,-1.996 0.117,-1.888 -0.015,-1.802 C -0.148,-1.717 -0.314,-1.674 -0.515,-1.674 C -0.598,-1.674 -0.68,-1.686 -0.758,-1.71 C -0.837,-1.733 -0.906,-1.765 -0.967,-1.805 C -1.027,-1.845 -1.076,-1.893 -1.112,-1.948 C -1.149,-2.003 -1.167,-2.063 -1.167,-2.127 C -1.167,-2.19 -1.152,-2.251 -1.12,-2.31 C -1.088,-2.369 -1.044,-2.421 -0.987,-2.466 C -0.93,-2.511 -0.861,-2.547 -0.781,-2.574 C -0.701,-2.601 -0.612,-2.614 -0.515,-2.614 C -0.414,-2.614 -0.322,-2.6 -0.239,-2.571 C -0.154,-2.543 -0.081,-2.506 -0.017,-2.461 C 0.046,-2.416 0.096,-2.364 0.131,-2.305 C 0.166,-2.246 0.184,-2.187 0.184,-2.127 M 0.146,0.563 L 0.202,0.488 L 0.27,0.365 C 0.291,0.316 0.311,0.261 0.328,0.199 C 0.345,0.137 0.353,0.071 0.353,0.001 C 0.353,-0.127 0.332,-0.246 0.288,-0.358 C 0.244,-0.471 0.184,-0.568 0.107,-0.652 C 0.03,-0.736 -0.062,-0.802 -0.17,-0.851 C -0.276,-0.899 -0.392,-0.924 -0.516,-0.924 L -0.634,-0.944 L -0.752,-0.994 L -0.845,-1.067 L -0.883,-1.156 C -0.883,-1.23 -0.849,-1.29 -0.78,-1.337 C -0.711,-1.384 -0.623,-1.408 -0.516,-1.408 C -0.379,-1.408 -0.246,-1.424 -0.119,-1.456 C 0.008,-1.488 0.12,-1.535 0.218,-1.597 C 0.314,-1.658 0.392,-1.734 0.45,-1.823 C 0.508,-1.911 0.538,-2.013 0.538,-2.127 C 0.538,-2.214 0.512,-2.301 0.462,-2.388 C 0.412,-2.475 0.34,-2.556 0.248,-2.63 C 0.156,-2.703 0.046,-2.762 -0.083,-2.808 C -0.212,-2.853 -0.355,-2.876 -0.513,-2.876 C -0.653,-2.876 -0.785,-2.857 -0.907,-2.82 C -1.03,-2.783 -1.134,-2.734 -1.221,-2.672 C -1.308,-2.61 -1.376,-2.536 -1.427,-2.451 C -1.477,-2.366 -1.502,-2.272 -1.502,-2.172 C -1.502,-2.075 -1.476,-1.988 -1.424,-1.913 C -1.372,-1.838 -1.312,-1.775 -1.241,-1.725 C -1.171,-1.674 -1.099,-1.635 -1.025,-1.607 C -0.952,-1.578 -0.892,-1.562 -0.844,-1.559 L -0.94,-1.531 L -1.058,-1.468 L -1.159,-1.362 C -1.187,-1.319 -1.202,-1.267 -1.202,-1.206 L -1.161,-1.087 L -1.066,-0.984 L -0.953,-0.908 L -0.854,-0.868 C -0.901,-0.852 -0.954,-0.824 -1.015,-0.785 C -1.076,-0.747 -1.133,-0.693 -1.188,-0.625 C -1.243,-0.556 -1.289,-0.471 -1.326,-0.369 C -1.363,-0.267 -1.381,-0.144 -1.381,0 C -1.381,0.107 -1.358,0.213 -1.313,0.316 C -1.268,0.42 -1.206,0.513 -1.128,0.595 C -1.049,0.677 -0.957,0.743 -0.851,0.793 C -0.746,0.843 -0.634,0.869 -0.513,0.869 C -0.436,0.869 -0.363,0.861 -0.294,0.847 C -0.226,0.832 -0.177,0.82 -0.147,0.81 L 0.567,0.81 L 0.567,0.563 L 0.146,0.563 z"></path>
      </g>
      <g transform="translate(476.115,37.5252)" id="g793">
        <path id="path795" style="fill:#5d6971;fill-opacity:1;fill-rule:nonzero;stroke:none" d="M 0,0 C 0,0.204 -0.03,0.387 -0.09,0.548 C -0.151,0.709 -0.231,0.846 -0.331,0.958 C -0.432,1.071 -0.548,1.156 -0.681,1.217 C -0.813,1.277 -0.951,1.308 -1.095,1.308 L -1.506,1.308 L -1.506,-1.453 L -1.08,-1.453 C -0.929,-1.453 -0.788,-1.416 -0.655,-1.34 C -0.523,-1.265 -0.408,-1.162 -0.311,-1.031 C -0.214,-0.9 -0.138,-0.747 -0.083,-0.571 C -0.028,-0.395 0,-0.205 0,0 M 0.378,0 C 0.378,-0.245 0.341,-0.473 0.267,-0.686 C 0.194,-0.899 0.092,-1.084 -0.037,-1.241 C -0.166,-1.399 -0.319,-1.523 -0.497,-1.613 C -0.674,-1.704 -0.867,-1.749 -1.075,-1.749 L -1.875,-1.749 L -1.875,1.603 L -1.146,1.603 C -0.931,1.603 -0.731,1.566 -0.545,1.492 C -0.359,1.419 -0.197,1.313 -0.06,1.176 C 0.078,1.038 0.185,0.871 0.262,0.673 C 0.339,0.476 0.378,0.251 0.378,0"></path>
      </g>
      <g transform="translate(478.5197,35.7763)" id="g797">
        <path id="path799" style="fill:#5d6971;fill-opacity:1;fill-rule:nonzero;stroke:none" d="M 0,0 L 0,0.357 L -0.068,0.261 C -0.102,0.214 -0.148,0.167 -0.205,0.12 C -0.262,0.074 -0.327,0.032 -0.402,-0.004 C -0.477,-0.04 -0.56,-0.058 -0.649,-0.058 C -0.786,-0.058 -0.904,-0.034 -1.002,0.015 C -1.1,0.063 -1.181,0.127 -1.244,0.206 C -1.307,0.284 -1.354,0.375 -1.384,0.479 C -1.414,0.583 -1.429,0.69 -1.429,0.801 L -1.429,2.524 L -1.08,2.524 L -1.08,0.83 C -1.08,0.753 -1.071,0.679 -1.053,0.607 C -1.034,0.535 -1.007,0.471 -0.971,0.416 C -0.934,0.361 -0.886,0.315 -0.826,0.28 C -0.767,0.245 -0.694,0.228 -0.607,0.228 C -0.527,0.228 -0.453,0.249 -0.383,0.29 C -0.313,0.332 -0.252,0.38 -0.199,0.434 L -0.072,0.594 L -0.019,0.705 L -0.019,2.524 L 0.329,2.524 L 0.329,0 L 0,0 z"></path>
      </g>
      <g transform="translate(480.9763,37.0845)" id="g801">
        <path id="path803" style="fill:#5d6971;fill-opacity:1;fill-rule:nonzero;stroke:none" d="M 0,0 L -0.422,-0.09 C -0.492,-0.107 -0.567,-0.132 -0.648,-0.166 C -0.728,-0.199 -0.801,-0.24 -0.866,-0.286 C -0.932,-0.333 -0.986,-0.387 -1.029,-0.447 C -1.073,-0.507 -1.095,-0.573 -1.095,-0.643 C -1.095,-0.783 -1.052,-0.894 -0.967,-0.975 C -0.881,-1.055 -0.777,-1.095 -0.653,-1.095 C -0.576,-1.095 -0.501,-1.079 -0.429,-1.047 C -0.357,-1.015 -0.292,-0.975 -0.233,-0.927 C -0.175,-0.878 -0.126,-0.826 -0.085,-0.771 L 0,-0.613 L 0,0 z M 0.019,-1.308 L 0.02,-0.95 L -0.053,-1.05 C -0.091,-1.097 -0.143,-1.144 -0.206,-1.191 C -0.27,-1.238 -0.343,-1.279 -0.425,-1.314 C -0.507,-1.349 -0.595,-1.366 -0.689,-1.366 C -0.91,-1.366 -1.092,-1.305 -1.235,-1.181 C -1.377,-1.057 -1.448,-0.883 -1.448,-0.659 C -1.448,-0.552 -1.417,-0.453 -1.355,-0.363 C -1.293,-0.273 -1.215,-0.194 -1.119,-0.127 C -1.023,-0.06 -0.919,-0.003 -0.807,0.044 C -0.695,0.091 -0.59,0.124 -0.493,0.144 L 0,0.255 L 0,0.42 C 0,0.584 -0.045,0.722 -0.133,0.834 C -0.222,0.946 -0.357,1.002 -0.537,1.002 C -0.591,1.002 -0.651,0.992 -0.718,0.972 C -0.785,0.952 -0.849,0.929 -0.909,0.905 C -0.969,0.879 -1.024,0.854 -1.072,0.829 L -1.165,0.776 L -1.271,1.047 L -1.175,1.098 C -1.125,1.121 -1.065,1.146 -0.994,1.173 C -0.924,1.2 -0.846,1.223 -0.761,1.244 C -0.676,1.264 -0.589,1.274 -0.502,1.274 C -0.248,1.274 -0.045,1.202 0.107,1.06 C 0.259,0.918 0.334,0.709 0.334,0.435 L 0.334,-1.308 L 0.019,-1.308 z"></path>
      </g>
      <g transform="translate(482.8584,35.7433)" id="g805">
        <path id="path807" style="fill:#5d6971;fill-opacity:1;fill-rule:nonzero;stroke:none" d="M 0,0 C -0.06,-0.017 -0.116,-0.025 -0.166,-0.025 C -0.266,-0.025 -0.348,-0.008 -0.413,0.025 C -0.476,0.058 -0.528,0.103 -0.567,0.158 C -0.605,0.213 -0.632,0.278 -0.648,0.351 C -0.663,0.425 -0.67,0.502 -0.67,0.582 L -0.67,3.593 L -0.321,3.593 L -0.321,0.612 C -0.321,0.509 -0.308,0.425 -0.281,0.361 C -0.255,0.298 -0.209,0.266 -0.146,0.266 L -0.055,0.291 L 0.02,0.341 L 0.126,0.05 C 0.102,0.033 0.06,0.017 0,0"></path>
      </g>
      <g transform="translate(484.9059,37.4901)" id="g809">
        <path id="path811" style="fill:#5d6971;fill-opacity:1;fill-rule:nonzero;stroke:none" d="M 0,0 C -0.022,0.1 -0.055,0.194 -0.101,0.281 C -0.145,0.367 -0.205,0.442 -0.279,0.504 C -0.353,0.566 -0.442,0.597 -0.546,0.597 C -0.643,0.597 -0.729,0.567 -0.802,0.509 C -0.876,0.45 -0.937,0.378 -0.983,0.291 C -1.031,0.204 -1.067,0.111 -1.092,0.013 C -1.117,-0.086 -1.13,-0.177 -1.13,-0.261 L 0.033,-0.261 C 0.033,-0.187 0.022,-0.1 0,0 M -1.139,-0.513 C -1.139,-0.613 -1.127,-0.72 -1.102,-0.834 C -1.077,-0.947 -1.037,-1.054 -0.983,-1.152 C -0.93,-1.251 -0.861,-1.333 -0.777,-1.398 C -0.694,-1.463 -0.593,-1.496 -0.476,-1.496 C -0.406,-1.496 -0.337,-1.488 -0.268,-1.473 C -0.199,-1.458 -0.136,-1.441 -0.077,-1.42 C -0.018,-1.4 0.033,-1.38 0.076,-1.358 L 0.182,-1.3 L 0.287,-1.591 L 0.184,-1.636 C 0.136,-1.657 0.077,-1.677 0.008,-1.697 C -0.061,-1.717 -0.137,-1.734 -0.223,-1.749 C -0.308,-1.764 -0.397,-1.772 -0.492,-1.772 C -0.689,-1.772 -0.851,-1.729 -0.978,-1.644 C -1.106,-1.558 -1.207,-1.448 -1.284,-1.313 C -1.359,-1.177 -1.412,-1.028 -1.442,-0.866 C -1.473,-0.704 -1.488,-0.544 -1.488,-0.387 C -1.488,-0.263 -1.468,-0.127 -1.428,0.02 C -1.388,0.167 -1.328,0.303 -1.249,0.429 C -1.17,0.554 -1.073,0.659 -0.958,0.742 C -0.842,0.826 -0.707,0.868 -0.553,0.868 C -0.382,0.868 -0.238,0.828 -0.121,0.747 C -0.003,0.667 0.091,0.565 0.163,0.441 C 0.235,0.317 0.288,0.182 0.32,0.034 C 0.351,-0.113 0.367,-0.253 0.367,-0.387 L 0.367,-0.513 L -1.139,-0.513 z"></path>
      </g>
      <g transform="translate(489.2277,35.7763)" id="g813">
        <path id="path815" style="fill:#5d6971;fill-opacity:1;fill-rule:nonzero;stroke:none" d="M 0,0 L 0,1.598 L -1.381,1.598 L -1.381,0 L -1.749,0 L -1.749,3.352 L -1.381,3.352 L -1.381,1.899 L 0,1.899 L 0,3.352 L 0.368,3.352 L 0.368,0 L 0,0 z"></path>
      </g>
      <g transform="translate(492.011,37.1032)" id="g817">
        <path id="path819" style="fill:#5d6971;fill-opacity:1;fill-rule:nonzero;stroke:none" d="M 0,0 C 0,0.084 -0.01,0.181 -0.03,0.291 C -0.05,0.402 -0.085,0.507 -0.134,0.608 C -0.185,0.708 -0.249,0.793 -0.329,0.864 C -0.409,0.934 -0.51,0.969 -0.63,0.969 C -0.746,0.969 -0.844,0.935 -0.924,0.869 C -1.004,0.802 -1.069,0.719 -1.119,0.62 C -1.169,0.521 -1.205,0.416 -1.227,0.304 C -1.248,0.192 -1.259,0.09 -1.259,0 C -1.259,-0.1 -1.25,-0.214 -1.232,-0.341 C -1.213,-0.468 -1.181,-0.588 -1.134,-0.7 C -1.087,-0.812 -1.023,-0.907 -0.942,-0.984 C -0.86,-1.061 -0.756,-1.099 -0.63,-1.099 C -0.506,-1.099 -0.404,-1.061 -0.322,-0.984 C -0.24,-0.907 -0.176,-0.812 -0.127,-0.7 C -0.079,-0.588 -0.045,-0.468 -0.027,-0.341 C -0.008,-0.214 0,-0.1 0,0 M 0.363,0 C 0.363,-0.137 0.346,-0.287 0.311,-0.449 C 0.276,-0.611 0.22,-0.762 0.143,-0.901 C 0.066,-1.04 -0.036,-1.155 -0.163,-1.247 C -0.29,-1.339 -0.446,-1.385 -0.63,-1.385 C -0.82,-1.385 -0.98,-1.339 -1.108,-1.247 C -1.237,-1.155 -1.339,-1.04 -1.414,-0.903 C -1.489,-0.766 -1.543,-0.616 -1.575,-0.454 C -1.607,-0.292 -1.623,-0.14 -1.623,0 C -1.623,0.114 -1.604,0.243 -1.567,0.387 C -1.531,0.53 -1.472,0.667 -1.391,0.796 C -1.311,0.925 -1.208,1.033 -1.083,1.122 C -0.958,1.21 -0.807,1.255 -0.63,1.255 C -0.442,1.255 -0.285,1.211 -0.158,1.124 C -0.031,1.037 0.071,0.93 0.148,0.803 C 0.225,0.676 0.28,0.539 0.314,0.394 C 0.347,0.249 0.363,0.117 0.363,0"></path>
      </g>
      <g transform="translate(494.5661,35.8535)" id="g821">
        <path id="path823" style="fill:#5d6971;fill-opacity:1;fill-rule:nonzero;stroke:none" d="M 0,0 C -0.042,-0.02 -0.093,-0.04 -0.156,-0.06 C -0.217,-0.08 -0.287,-0.097 -0.364,-0.113 C -0.441,-0.128 -0.521,-0.135 -0.605,-0.135 C -0.786,-0.135 -0.939,-0.095 -1.064,-0.015 C -1.19,0.065 -1.292,0.171 -1.37,0.301 C -1.446,0.432 -1.503,0.58 -1.538,0.745 C -1.574,0.911 -1.591,1.079 -1.591,1.25 C -1.591,1.39 -1.568,1.535 -1.521,1.684 C -1.474,1.833 -1.407,1.967 -1.321,2.088 C -1.236,2.208 -1.132,2.308 -1.009,2.386 C -0.888,2.465 -0.749,2.505 -0.595,2.505 C -0.521,2.505 -0.449,2.498 -0.379,2.484 C -0.309,2.471 -0.246,2.455 -0.191,2.437 L -0.05,2.382 L 0.023,2.339 L -0.082,2.048 L -0.153,2.091 L -0.283,2.148 L -0.442,2.198 L -0.595,2.219 C -0.696,2.219 -0.785,2.189 -0.863,2.128 C -0.942,2.068 -1.009,1.99 -1.062,1.895 C -1.116,1.799 -1.156,1.695 -1.186,1.581 C -1.213,1.467 -1.228,1.357 -1.228,1.25 C -1.228,1.119 -1.216,0.988 -1.193,0.856 C -1.169,0.724 -1.132,0.605 -1.08,0.502 C -1.028,0.398 -0.961,0.314 -0.879,0.248 C -0.797,0.183 -0.699,0.15 -0.585,0.15 C -0.532,0.15 -0.476,0.157 -0.419,0.17 C -0.362,0.184 -0.308,0.201 -0.256,0.221 L -0.115,0.284 L -0.022,0.341 L 0.083,0.045 L 0,0 z"></path>
      </g>
      <g transform="translate(496.7288,35.7763)" id="g825">
        <path id="path827" style="fill:#5d6971;fill-opacity:1;fill-rule:nonzero;stroke:none" d="M 0,0 L 0,1.693 C 0,1.76 -0.011,1.829 -0.033,1.901 C -0.054,1.974 -0.085,2.039 -0.125,2.098 C -0.164,2.156 -0.215,2.204 -0.276,2.241 C -0.338,2.277 -0.408,2.296 -0.488,2.296 C -0.567,2.296 -0.643,2.277 -0.714,2.238 C -0.785,2.2 -0.849,2.155 -0.903,2.102 L -1.035,1.944 L -1.09,1.819 L -1.09,0 L -1.439,0 L -1.439,3.56 L -1.09,3.56 L -1.094,2.169 L -1.031,2.267 C -0.995,2.313 -0.949,2.359 -0.89,2.406 C -0.832,2.452 -0.765,2.494 -0.69,2.529 C -0.615,2.564 -0.534,2.582 -0.447,2.582 C -0.314,2.582 -0.197,2.557 -0.097,2.509 C 0.004,2.46 0.086,2.396 0.151,2.316 C 0.216,2.235 0.265,2.144 0.298,2.042 C 0.332,1.94 0.349,1.837 0.349,1.733 L 0.349,0 L 0,0 z"></path>
      </g>
      <g transform="translate(499.3705,36.4659)" id="g829">
        <path id="path831" style="fill:#5d6971;fill-opacity:1;fill-rule:nonzero;stroke:none" d="M 0,0 C 0,-0.107 -0.022,-0.207 -0.065,-0.299 C -0.109,-0.391 -0.169,-0.47 -0.244,-0.537 C -0.32,-0.604 -0.409,-0.656 -0.511,-0.693 C -0.613,-0.729 -0.722,-0.748 -0.836,-0.748 C -0.937,-0.748 -1.03,-0.741 -1.115,-0.728 C -1.201,-0.714 -1.278,-0.697 -1.345,-0.678 C -1.411,-0.657 -1.469,-0.637 -1.518,-0.617 L -1.631,-0.567 L -1.526,-0.286 L -1.425,-0.333 C -1.375,-0.355 -1.317,-0.376 -1.251,-0.396 C -1.186,-0.416 -1.116,-0.435 -1.043,-0.451 C -0.969,-0.468 -0.902,-0.477 -0.841,-0.477 C -0.714,-0.477 -0.602,-0.44 -0.507,-0.366 C -0.411,-0.293 -0.363,-0.19 -0.363,-0.06 C -0.363,0.014 -0.393,0.08 -0.451,0.138 C -0.51,0.197 -0.584,0.254 -0.673,0.309 C -0.761,0.364 -0.858,0.419 -0.961,0.474 C -1.065,0.529 -1.162,0.589 -1.25,0.652 C -1.339,0.716 -1.413,0.786 -1.472,0.863 C -1.53,0.94 -1.56,1.031 -1.56,1.134 C -1.56,1.245 -1.538,1.347 -1.494,1.44 C -1.45,1.534 -1.391,1.614 -1.314,1.681 C -1.239,1.748 -1.152,1.8 -1.055,1.837 C -0.958,1.874 -0.854,1.892 -0.744,1.892 C -0.677,1.892 -0.609,1.885 -0.541,1.872 C -0.472,1.859 -0.409,1.843 -0.352,1.827 C -0.295,1.81 -0.246,1.792 -0.206,1.774 L -0.121,1.726 L -0.226,1.45 L -0.305,1.5 L -0.438,1.558 L -0.596,1.605 L -0.749,1.626 C -0.876,1.626 -0.985,1.586 -1.075,1.508 C -1.165,1.429 -1.211,1.324 -1.211,1.194 C -1.211,1.12 -1.181,1.052 -1.121,0.988 C -1.06,0.925 -0.986,0.865 -0.897,0.808 C -0.808,0.751 -0.711,0.695 -0.605,0.64 C -0.5,0.585 -0.403,0.525 -0.314,0.462 C -0.225,0.398 -0.151,0.328 -0.09,0.253 C -0.03,0.178 0,0.094 0,0"></path>
      </g>
      <g transform="translate(501.5272,35.8535)" id="g833">
        <path id="path835" style="fill:#5d6971;fill-opacity:1;fill-rule:nonzero;stroke:none" d="M 0,0 C -0.042,-0.02 -0.094,-0.04 -0.156,-0.06 C -0.217,-0.08 -0.288,-0.097 -0.364,-0.113 C -0.441,-0.128 -0.521,-0.135 -0.605,-0.135 C -0.787,-0.135 -0.939,-0.095 -1.065,-0.015 C -1.191,0.065 -1.292,0.171 -1.37,0.301 C -1.447,0.432 -1.503,0.58 -1.539,0.745 C -1.574,0.911 -1.592,1.079 -1.592,1.25 C -1.592,1.39 -1.568,1.535 -1.521,1.684 C -1.474,1.833 -1.408,1.967 -1.322,2.088 C -1.236,2.208 -1.132,2.308 -1.009,2.386 C -0.888,2.465 -0.75,2.505 -0.595,2.505 C -0.521,2.505 -0.45,2.498 -0.38,2.484 C -0.309,2.471 -0.246,2.455 -0.191,2.437 L -0.05,2.382 L 0.022,2.339 L -0.083,2.048 L -0.153,2.091 L -0.284,2.148 L -0.442,2.198 L -0.595,2.219 C -0.696,2.219 -0.785,2.189 -0.864,2.128 C -0.943,2.068 -1.009,1.99 -1.063,1.895 C -1.116,1.799 -1.157,1.695 -1.186,1.581 C -1.214,1.467 -1.229,1.357 -1.229,1.25 C -1.229,1.119 -1.216,0.988 -1.193,0.856 C -1.17,0.724 -1.132,0.605 -1.08,0.502 C -1.028,0.398 -0.961,0.314 -0.879,0.248 C -0.797,0.183 -0.699,0.15 -0.586,0.15 C -0.532,0.15 -0.477,0.157 -0.42,0.17 C -0.363,0.184 -0.308,0.201 -0.256,0.221 L -0.116,0.284 L -0.022,0.341 L 0.083,0.045 L 0,0 z"></path>
      </g>
      <g transform="translate(503.6895,35.7763)" id="g837">
        <path id="path839" style="fill:#5d6971;fill-opacity:1;fill-rule:nonzero;stroke:none" d="M 0,0 L 0,1.693 C 0,1.76 -0.011,1.829 -0.032,1.901 C -0.053,1.974 -0.084,2.039 -0.125,2.098 C -0.164,2.156 -0.215,2.204 -0.277,2.241 C -0.337,2.277 -0.409,2.296 -0.487,2.296 C -0.567,2.296 -0.642,2.277 -0.714,2.238 C -0.786,2.2 -0.849,2.155 -0.903,2.102 L -1.035,1.944 L -1.09,1.819 L -1.09,0 L -1.439,0 L -1.439,3.56 L -1.09,3.56 L -1.093,2.169 L -1.03,2.267 C -0.996,2.313 -0.949,2.359 -0.89,2.406 C -0.832,2.452 -0.766,2.494 -0.691,2.529 C -0.616,2.564 -0.534,2.582 -0.447,2.582 C -0.314,2.582 -0.197,2.557 -0.097,2.509 C 0.004,2.46 0.086,2.396 0.151,2.316 C 0.216,2.235 0.265,2.144 0.299,2.042 C 0.332,1.94 0.348,1.837 0.348,1.733 L 0.348,0 L 0,0 z"></path>
      </g>
      <g transform="translate(506.3121,35.7763)" id="g841">
        <path id="path843" style="fill:#5d6971;fill-opacity:1;fill-rule:nonzero;stroke:none" d="M 0,0 L 0,0.357 L -0.068,0.261 C -0.103,0.214 -0.149,0.167 -0.205,0.12 C -0.262,0.074 -0.327,0.032 -0.402,-0.004 C -0.477,-0.04 -0.56,-0.058 -0.65,-0.058 C -0.786,-0.058 -0.904,-0.034 -1.002,0.015 C -1.1,0.063 -1.181,0.127 -1.244,0.206 C -1.308,0.284 -1.354,0.375 -1.384,0.479 C -1.414,0.583 -1.429,0.69 -1.429,0.801 L -1.429,2.524 L -1.08,2.524 L -1.08,0.83 C -1.08,0.753 -1.071,0.679 -1.053,0.607 C -1.035,0.535 -1.008,0.471 -0.971,0.416 C -0.935,0.361 -0.887,0.315 -0.826,0.28 C -0.766,0.245 -0.694,0.228 -0.607,0.228 C -0.528,0.228 -0.453,0.249 -0.383,0.29 C -0.314,0.332 -0.252,0.38 -0.198,0.434 L -0.072,0.594 L -0.019,0.705 L -0.019,2.524 L 0.329,2.524 L 0.329,0 L 0,0 z"></path>
      </g>
      <g transform="translate(508.1696,35.7433)" id="g845">
        <path id="path847" style="fill:#5d6971;fill-opacity:1;fill-rule:nonzero;stroke:none" d="M 0,0 C -0.06,-0.017 -0.115,-0.025 -0.166,-0.025 C -0.266,-0.025 -0.348,-0.008 -0.412,0.025 C -0.476,0.058 -0.528,0.103 -0.567,0.158 C -0.605,0.213 -0.632,0.278 -0.648,0.351 C -0.662,0.425 -0.67,0.502 -0.67,0.582 L -0.67,3.593 L -0.321,3.593 L -0.321,0.612 C -0.321,0.509 -0.308,0.425 -0.281,0.361 C -0.254,0.298 -0.21,0.266 -0.145,0.266 L -0.055,0.291 L 0.02,0.341 L 0.126,0.05 C 0.102,0.033 0.061,0.017 0,0"></path>
      </g>
      <g transform="translate(510.1871,37.4901)" id="g849">
        <path id="path851" style="fill:#5d6971;fill-opacity:1;fill-rule:nonzero;stroke:none" d="M 0,0 C -0.022,0.1 -0.055,0.194 -0.1,0.281 C -0.145,0.367 -0.205,0.442 -0.279,0.504 C -0.353,0.566 -0.442,0.597 -0.546,0.597 C -0.643,0.597 -0.729,0.567 -0.802,0.509 C -0.876,0.45 -0.937,0.378 -0.983,0.291 C -1.03,0.204 -1.067,0.111 -1.092,0.013 C -1.117,-0.086 -1.13,-0.177 -1.13,-0.261 L 0.033,-0.261 C 0.033,-0.187 0.022,-0.1 0,0 M -1.14,-0.513 C -1.14,-0.613 -1.127,-0.72 -1.102,-0.834 C -1.076,-0.947 -1.037,-1.054 -0.983,-1.152 C -0.93,-1.251 -0.861,-1.333 -0.777,-1.398 C -0.694,-1.463 -0.593,-1.496 -0.476,-1.496 C -0.405,-1.496 -0.337,-1.488 -0.268,-1.473 C -0.199,-1.458 -0.136,-1.441 -0.077,-1.42 C -0.018,-1.4 0.033,-1.38 0.076,-1.358 L 0.182,-1.3 L 0.287,-1.591 L 0.184,-1.636 C 0.136,-1.657 0.078,-1.677 0.009,-1.697 C -0.061,-1.717 -0.137,-1.734 -0.223,-1.749 C -0.307,-1.764 -0.397,-1.772 -0.492,-1.772 C -0.689,-1.772 -0.851,-1.729 -0.978,-1.644 C -1.105,-1.558 -1.207,-1.448 -1.283,-1.313 C -1.359,-1.177 -1.412,-1.028 -1.442,-0.866 C -1.472,-0.704 -1.488,-0.544 -1.488,-0.387 C -1.488,-0.263 -1.468,-0.127 -1.428,0.02 C -1.388,0.167 -1.327,0.303 -1.249,0.429 C -1.171,0.554 -1.073,0.659 -0.958,0.742 C -0.841,0.826 -0.707,0.868 -0.552,0.868 C -0.382,0.868 -0.238,0.828 -0.12,0.747 C -0.003,0.667 0.092,0.565 0.164,0.441 C 0.236,0.317 0.288,0.182 0.32,0.034 C 0.352,-0.113 0.367,-0.253 0.367,-0.387 L 0.367,-0.513 L -1.14,-0.513 z"></path>
      </g>
      <g transform="translate(481.5897,49.2483)" id="g853">
        <path id="path855" style="fill:#e2001a;fill-opacity:1;fill-rule:nonzero;stroke:none" d="M 0,0 C 0,0.634 -0.079,1.225 -0.237,1.773 C -0.397,2.322 -0.631,2.796 -0.942,3.191 C -1.251,3.588 -1.626,3.902 -2.062,4.134 C -2.499,4.364 -2.994,4.48 -3.549,4.48 L -5.036,4.48 L -5.036,-5.054 L -3.668,-5.054 C -3.114,-5.054 -2.612,-4.929 -2.161,-4.678 C -1.712,-4.427 -1.325,-4.077 -1.001,-3.627 C -0.678,-3.178 -0.43,-2.645 -0.258,-2.033 C -0.086,-1.417 0,-0.74 0,0 M 2.401,0 C 2.401,-0.99 2.26,-1.907 1.976,-2.751 C 1.692,-3.596 1.292,-4.325 0.777,-4.939 C 0.263,-5.553 -0.365,-6.031 -1.106,-6.374 C -1.845,-6.717 -2.671,-6.888 -3.581,-6.888 L -6.89,-6.888 C -7.036,-6.888 -7.152,-6.842 -7.237,-6.751 C -7.323,-6.658 -7.366,-6.539 -7.366,-6.394 L -7.366,5.819 C -7.366,5.965 -7.323,6.083 -7.237,6.175 C -7.151,6.268 -7.036,6.314 -6.89,6.314 L -3.601,6.314 C -2.703,6.314 -1.884,6.162 -1.146,5.859 C -0.405,5.555 0.226,5.126 0.747,4.572 C 1.269,4.017 1.675,3.354 1.965,2.582 C 2.257,1.811 2.401,0.949 2.401,0"></path>
      </g>
      <g transform="translate(495.3217,42.4973)" id="g857">
        <path id="path859" style="fill:#e2001a;fill-opacity:1;fill-rule:nonzero;stroke:none" d="M 0,0 C -0.092,-0.091 -0.21,-0.137 -0.355,-0.137 L -1.717,-0.137 C -1.862,-0.137 -1.977,-0.091 -2.062,0.001 C -2.146,0.093 -2.191,0.212 -2.191,0.357 L -2.191,5.787 L -6.762,5.787 L -6.762,0.357 C -6.762,0.212 -6.807,0.093 -6.9,0.001 C -6.991,-0.091 -7.111,-0.137 -7.255,-0.137 L -8.616,-0.137 C -8.761,-0.137 -8.876,-0.091 -8.962,0 C -9.047,0.093 -9.091,0.212 -9.091,0.357 L -9.091,12.57 C -9.091,12.716 -9.047,12.834 -8.962,12.926 C -8.876,13.019 -8.761,13.065 -8.616,13.065 L -7.255,13.065 C -7.111,13.065 -6.991,13.019 -6.9,12.926 C -6.807,12.834 -6.762,12.716 -6.762,12.57 L -6.762,7.723 L -2.191,7.723 L -2.191,12.57 C -2.191,12.716 -2.146,12.834 -2.062,12.926 C -1.977,13.019 -1.862,13.065 -1.717,13.065 L -0.355,13.065 C -0.21,13.065 -0.092,13.019 0,12.926 C 0.092,12.834 0.139,12.716 0.139,12.57 L 0.139,0.357 C 0.139,0.212 0.092,0.093 0,0"></path>
      </g>
    </g>
    <g clip-path="url(#clipPath865)" id="g863" transform="matrix(5.3376499,0,0,-5.3376499,-2193.5091,708.81842)">
      <g transform="translate(504.6821,46.2173)" id="g869">
        <path id="path871" style="fill:#5d6971;fill-opacity:1;fill-rule:nonzero;stroke:none" d="M 0,0 C 0,0.766 -0.262,1.37 -0.782,1.811 C -1.305,2.254 -1.983,2.475 -2.816,2.475 L -4.978,2.475 L -4.978,-2.694 L -2.816,-2.694 C -2.433,-2.694 -2.07,-2.628 -1.725,-2.495 C -1.381,-2.363 -1.081,-2.178 -0.823,-1.941 C -0.565,-1.703 -0.364,-1.42 -0.219,-1.09 C -0.072,-0.76 0,-0.397 0,0 M -0.319,5.984 C -0.319,6.657 -0.551,7.192 -1.014,7.587 C -1.477,7.983 -2.078,8.18 -2.818,8.18 L -4.978,8.18 L -4.978,3.61 L -2.877,3.61 C -2.547,3.61 -2.23,3.669 -1.924,3.788 C -1.622,3.907 -1.351,4.072 -1.114,4.283 C -0.875,4.493 -0.684,4.744 -0.538,5.034 C -0.394,5.324 -0.319,5.641 -0.319,5.984 M 1.5,-0.057 C 1.5,-0.65 1.381,-1.184 1.143,-1.66 C 0.906,-2.135 0.58,-2.535 0.162,-2.859 C -0.252,-3.181 -0.737,-3.429 -1.291,-3.601 C -1.845,-3.772 -2.433,-3.857 -3.053,-3.857 L -6.082,-3.857 C -6.175,-3.857 -6.254,-3.824 -6.32,-3.76 C -6.386,-3.693 -6.42,-3.613 -6.42,-3.522 L -6.42,9.028 C -6.42,9.12 -6.386,9.196 -6.32,9.256 C -6.254,9.316 -6.175,9.345 -6.082,9.345 L -2.813,9.345 C -2.298,9.345 -1.799,9.279 -1.317,9.148 C -0.835,9.016 -0.412,8.813 -0.049,8.544 C 0.316,8.273 0.604,7.93 0.823,7.514 C 1.042,7.1 1.15,6.608 1.15,6.04 C 1.15,5.685 1.069,5.344 0.911,5.021 C 0.753,4.698 0.554,4.408 0.316,4.151 C 0.078,3.893 -0.184,3.676 -0.469,3.498 C -0.753,3.32 -1.027,3.191 -1.291,3.112 C -0.924,3.046 -0.569,2.924 -0.234,2.745 C 0.103,2.567 0.401,2.34 0.658,2.062 C 0.915,1.786 1.119,1.466 1.271,1.102 C 1.423,0.74 1.5,0.353 1.5,-0.057"></path>
      </g>
      <g transform="translate(517.9055,42.6959)" id="g873">
        <path id="path875" style="fill:#5d6971;fill-opacity:1;fill-rule:nonzero;stroke:none" d="M 0,0 C -0.026,-0.091 -0.073,-0.172 -0.138,-0.239 C -0.205,-0.303 -0.283,-0.335 -0.376,-0.335 L -1.366,-0.335 C -1.458,-0.335 -1.542,-0.303 -1.614,-0.239 C -1.686,-0.172 -1.735,-0.091 -1.763,0 L -3.951,11.066 L -6.101,0 C -6.127,-0.091 -6.178,-0.172 -6.25,-0.239 C -6.322,-0.303 -6.406,-0.335 -6.498,-0.335 L -7.488,-0.335 C -7.579,-0.335 -7.662,-0.303 -7.734,-0.239 C -7.808,-0.172 -7.857,-0.091 -7.883,0 L -10.425,12.551 C -10.451,12.643 -10.435,12.719 -10.376,12.778 C -10.315,12.837 -10.239,12.867 -10.147,12.867 L -9.315,12.867 C -9.105,12.867 -8.972,12.761 -8.919,12.551 L -6.933,1.465 L -4.783,12.551 C -4.731,12.761 -4.599,12.867 -4.388,12.867 L -3.398,12.867 C -3.198,12.867 -3.074,12.761 -3.021,12.551 L -0.852,1.465 L 1.115,12.551 C 1.168,12.761 1.293,12.867 1.492,12.867 L 2.284,12.867 C 2.375,12.867 2.448,12.837 2.502,12.778 C 2.554,12.719 2.569,12.643 2.541,12.551 L 0,0 z"></path>
      </g>
    </g>
    <g transform="matrix(5.3376499,0,0,-5.3376499,-2193.5091,708.81842)" id="g877">
      <g id="g879" clip-path="url(#clipPath881)">
        <g id="g885" transform="translate(475.7069,26.0667)">
          <path d="M 0,0 C 0,0.138 -0.048,0.25 -0.143,0.338 C -0.239,0.425 -0.381,0.469 -0.569,0.469 L -0.872,0.469 L -0.872,-0.509 L -0.59,-0.509 C -0.391,-0.509 -0.244,-0.463 -0.146,-0.368 C -0.049,-0.274 0,-0.151 0,0 M 0.144,-2.418 L -0.127,-1.659 C -0.147,-1.599 -0.177,-1.528 -0.218,-1.445 C -0.258,-1.363 -0.305,-1.286 -0.359,-1.214 C -0.412,-1.142 -0.472,-1.08 -0.537,-1.028 C -0.603,-0.976 -0.671,-0.95 -0.741,-0.95 L -0.872,-0.95 L -0.872,-2.418 L -1.463,-2.418 L -1.463,0.934 L -0.509,0.934 C -0.341,0.934 -0.189,0.913 -0.052,0.871 C 0.085,0.829 0.202,0.77 0.297,0.693 C 0.392,0.616 0.466,0.522 0.518,0.411 C 0.57,0.301 0.596,0.177 0.596,0.039 C 0.596,-0.101 0.566,-0.222 0.508,-0.323 C 0.449,-0.423 0.379,-0.506 0.297,-0.572 C 0.215,-0.637 0.13,-0.685 0.044,-0.717 C -0.044,-0.749 -0.114,-0.768 -0.167,-0.775 C -0.124,-0.788 -0.074,-0.819 -0.017,-0.866 C 0.04,-0.912 0.096,-0.971 0.151,-1.041 C 0.207,-1.112 0.26,-1.19 0.312,-1.278 C 0.364,-1.365 0.409,-1.457 0.445,-1.554 L 0.777,-2.418 L 0.144,-2.418 z" style="fill:#5d6971;fill-opacity:1;fill-rule:nonzero;stroke:none" id="path887"></path>
        </g>
        <g id="g889" transform="translate(478.3883,24.8709)">
          <path d="M 0,0 L -0.332,-0.075 C -0.403,-0.092 -0.472,-0.116 -0.539,-0.146 C -0.606,-0.176 -0.665,-0.211 -0.718,-0.251 L -0.843,-0.384 L -0.891,-0.532 C -0.891,-0.636 -0.856,-0.717 -0.786,-0.773 C -0.715,-0.83 -0.635,-0.859 -0.544,-0.859 C -0.48,-0.859 -0.417,-0.845 -0.355,-0.816 C -0.293,-0.788 -0.238,-0.752 -0.189,-0.708 L -0.065,-0.568 L 0,-0.427 L 0,0 z M 0.024,-1.222 L 0.025,-0.879 L -0.05,-0.982 C -0.091,-1.027 -0.14,-1.071 -0.199,-1.115 C -0.257,-1.158 -0.326,-1.197 -0.402,-1.23 C -0.48,-1.264 -0.562,-1.28 -0.649,-1.28 C -0.9,-1.28 -1.096,-1.215 -1.237,-1.084 C -1.378,-0.954 -1.448,-0.783 -1.448,-0.572 C -1.448,-0.459 -1.417,-0.354 -1.355,-0.259 C -1.293,-0.163 -1.213,-0.078 -1.114,-0.003 C -1.015,0.072 -0.906,0.135 -0.787,0.185 C -0.668,0.236 -0.552,0.272 -0.437,0.296 L 0,0.386 L 0,0.481 C 0,0.602 -0.039,0.708 -0.116,0.8 C -0.193,0.892 -0.308,0.938 -0.462,0.938 C -0.519,0.938 -0.581,0.928 -0.648,0.908 C -0.715,0.888 -0.78,0.864 -0.841,0.835 C -0.903,0.807 -0.958,0.779 -1.005,0.752 L -1.1,0.697 L -1.286,1.109 C -1.269,1.119 -1.232,1.137 -1.173,1.164 C -1.114,1.191 -1.043,1.218 -0.959,1.247 C -0.876,1.275 -0.782,1.301 -0.678,1.324 C -0.574,1.348 -0.467,1.36 -0.357,1.36 C -0.082,1.36 0.137,1.285 0.299,1.136 C 0.461,0.987 0.543,0.782 0.543,0.521 L 0.543,-1.222 L 0.024,-1.222 z" style="fill:#5d6971;fill-opacity:1;fill-rule:nonzero;stroke:none" id="path891"></path>
        </g>
        <g id="g893" transform="translate(480.9285,23.6487)">
          <path d="M 0,0 L -0.628,0 L -1.422,2.524 L -0.809,2.524 L -0.302,0.588 L 0.206,2.524 L 0.793,2.524 L 0,0 z" style="fill:#5d6971;fill-opacity:1;fill-rule:nonzero;stroke:none" id="path895"></path>
        </g>
        <g id="g897" transform="translate(483.667,25.3462)">
          <path d="M 0,0 C -0.02,0.074 -0.049,0.145 -0.088,0.214 C -0.126,0.282 -0.174,0.341 -0.234,0.39 C -0.292,0.438 -0.361,0.463 -0.442,0.463 C -0.522,0.463 -0.592,0.44 -0.653,0.395 C -0.713,0.35 -0.762,0.294 -0.801,0.229 C -0.839,0.163 -0.869,0.093 -0.889,0.018 C -0.909,-0.058 -0.921,-0.126 -0.924,-0.186 L 0.035,-0.186 C 0.032,-0.136 0.021,-0.074 0,0 M -0.934,-0.559 C -0.934,-0.642 -0.922,-0.728 -0.898,-0.817 C -0.875,-0.905 -0.839,-0.986 -0.79,-1.06 C -0.742,-1.133 -0.681,-1.194 -0.607,-1.242 C -0.533,-1.291 -0.447,-1.315 -0.346,-1.315 C -0.272,-1.315 -0.2,-1.306 -0.13,-1.29 C -0.059,-1.273 0.005,-1.253 0.063,-1.232 C 0.122,-1.21 0.174,-1.186 0.219,-1.161 L 0.322,-1.093 L 0.513,-1.55 C 0.486,-1.563 0.444,-1.581 0.388,-1.605 C 0.331,-1.628 0.262,-1.651 0.182,-1.673 C 0.101,-1.695 0.012,-1.714 -0.087,-1.73 C -0.186,-1.747 -0.289,-1.756 -0.396,-1.756 C -0.617,-1.756 -0.799,-1.712 -0.941,-1.625 C -1.083,-1.538 -1.195,-1.427 -1.275,-1.291 C -1.355,-1.156 -1.411,-1.006 -1.443,-0.842 C -1.475,-0.678 -1.491,-0.521 -1.491,-0.371 C -1.491,-0.25 -1.469,-0.116 -1.425,0.031 C -1.382,0.178 -1.317,0.315 -1.23,0.44 C -1.143,0.566 -1.034,0.671 -0.903,0.756 C -0.773,0.842 -0.622,0.884 -0.451,0.884 C -0.254,0.884 -0.09,0.84 0.041,0.751 C 0.171,0.662 0.276,0.554 0.355,0.427 C 0.434,0.299 0.489,0.163 0.521,0.017 C 0.552,-0.129 0.568,-0.259 0.568,-0.373 L 0.568,-0.559 L -0.934,-0.559 z" style="fill:#5d6971;fill-opacity:1;fill-rule:nonzero;stroke:none" id="path899"></path>
        </g>
        <g id="g901" transform="translate(486.4013,23.6487)">
          <path d="M 0,0 L 0,1.649 C 0,1.703 -0.007,1.758 -0.022,1.815 C -0.038,1.872 -0.061,1.923 -0.093,1.968 L -0.215,2.079 C -0.264,2.107 -0.32,2.122 -0.384,2.122 C -0.449,2.122 -0.51,2.106 -0.569,2.074 C -0.628,2.042 -0.681,2.004 -0.727,1.958 L -0.84,1.817 L -0.891,1.694 L -0.891,0 L -1.453,0 L -1.453,2.524 L -0.915,2.524 L -0.916,2.182 L -0.845,2.282 C -0.808,2.325 -0.76,2.369 -0.702,2.414 C -0.643,2.459 -0.577,2.498 -0.505,2.532 C -0.432,2.565 -0.358,2.582 -0.28,2.582 C -0.126,2.582 0.005,2.554 0.113,2.499 C 0.22,2.444 0.308,2.373 0.375,2.285 C 0.443,2.198 0.49,2.103 0.52,1.999 C 0.548,1.895 0.562,1.795 0.562,1.698 L 0.562,0 L 0,0 z" style="fill:#5d6971;fill-opacity:1;fill-rule:nonzero;stroke:none" id="path903"></path>
        </g>
        <g id="g905" transform="translate(489.4583,24.4035)">
          <path d="M 0,0 C 0,-0.11 -0.022,-0.215 -0.068,-0.314 C -0.113,-0.412 -0.176,-0.498 -0.259,-0.572 C -0.34,-0.645 -0.438,-0.704 -0.552,-0.748 C -0.665,-0.791 -0.791,-0.813 -0.928,-0.813 C -1.035,-0.813 -1.136,-0.805 -1.232,-0.79 C -1.328,-0.775 -1.414,-0.757 -1.491,-0.737 C -1.568,-0.717 -1.636,-0.696 -1.695,-0.672 C -1.753,-0.649 -1.799,-0.627 -1.833,-0.607 L -1.646,-0.17 L -1.541,-0.228 C -1.491,-0.253 -1.432,-0.278 -1.363,-0.301 C -1.294,-0.324 -1.222,-0.345 -1.147,-0.364 C -1.072,-0.382 -1,-0.391 -0.933,-0.391 C -0.833,-0.391 -0.747,-0.365 -0.675,-0.311 C -0.602,-0.258 -0.567,-0.186 -0.567,-0.095 C -0.567,-0.042 -0.596,0.009 -0.654,0.058 C -0.713,0.106 -0.786,0.157 -0.874,0.208 C -0.961,0.26 -1.057,0.314 -1.16,0.369 C -1.264,0.424 -1.359,0.484 -1.446,0.55 C -1.534,0.615 -1.607,0.685 -1.666,0.761 C -1.724,0.836 -1.753,0.919 -1.753,1.009 C -1.753,1.126 -1.73,1.235 -1.683,1.335 C -1.637,1.436 -1.572,1.522 -1.49,1.594 C -1.408,1.666 -1.311,1.723 -1.198,1.764 C -1.086,1.806 -0.967,1.827 -0.84,1.827 C -0.759,1.827 -0.681,1.82 -0.606,1.807 C -0.53,1.793 -0.461,1.777 -0.397,1.757 C -0.334,1.737 -0.278,1.716 -0.229,1.694 L -0.121,1.636 L -0.307,1.214 L -0.384,1.267 L -0.518,1.332 C -0.569,1.354 -0.622,1.373 -0.679,1.39 C -0.736,1.407 -0.791,1.415 -0.845,1.415 C -0.958,1.415 -1.047,1.384 -1.111,1.32 C -1.174,1.256 -1.206,1.178 -1.206,1.084 C -1.206,1.034 -1.176,0.984 -1.116,0.934 C -1.055,0.883 -0.981,0.832 -0.892,0.78 C -0.803,0.729 -0.707,0.675 -0.603,0.62 C -0.499,0.565 -0.403,0.505 -0.314,0.442 C -0.225,0.378 -0.151,0.31 -0.09,0.239 C -0.03,0.167 0,0.087 0,0" style="fill:#5d6971;fill-opacity:1;fill-rule:nonzero;stroke:none" id="path907"></path>
        </g>
        <g id="g909" transform="translate(491.7209,24.976)">
          <path d="M 0,0 C 0,0.094 -0.011,0.188 -0.033,0.282 C -0.055,0.375 -0.088,0.46 -0.131,0.535 C -0.176,0.611 -0.231,0.673 -0.296,0.721 C -0.362,0.77 -0.439,0.794 -0.527,0.794 L -0.689,0.744 L -0.836,0.623 L -0.948,0.483 L -0.998,0.367 L -0.998,-0.875 L -0.932,-0.893 L -0.833,-0.908 L -0.724,-0.92 L -0.628,-0.925 C -0.527,-0.925 -0.437,-0.896 -0.36,-0.837 C -0.282,-0.779 -0.216,-0.704 -0.162,-0.613 C -0.108,-0.523 -0.067,-0.423 -0.041,-0.314 C -0.014,-0.205 0,-0.101 0,0 M 0.576,0 C 0.576,-0.187 0.549,-0.366 0.496,-0.535 C 0.442,-0.704 0.364,-0.851 0.262,-0.976 C 0.159,-1.102 0.033,-1.201 -0.116,-1.275 C -0.266,-1.348 -0.437,-1.385 -0.628,-1.385 C -0.688,-1.385 -0.759,-1.381 -0.839,-1.373 C -0.92,-1.364 -1.004,-1.354 -1.091,-1.34 C -1.179,-1.327 -1.264,-1.313 -1.345,-1.298 C -1.428,-1.282 -1.499,-1.267 -1.56,-1.25 L -1.56,2.233 L -0.998,2.233 L -0.995,0.854 L -0.935,0.952 L -0.806,1.087 C -0.754,1.132 -0.695,1.171 -0.628,1.205 C -0.561,1.238 -0.492,1.255 -0.421,1.255 C -0.24,1.255 -0.085,1.214 0.042,1.134 C 0.17,1.054 0.273,0.952 0.352,0.828 C 0.431,0.704 0.489,0.569 0.524,0.421 C 0.559,0.274 0.576,0.133 0.576,0" style="fill:#5d6971;fill-opacity:1;fill-rule:nonzero;stroke:none" id="path911"></path>
        </g>
        <g id="g913" transform="translate(494.4583,23.6487)">
          <path d="M 0,0 L 0,0.342 L -0.076,0.242 L -0.212,0.109 C -0.265,0.064 -0.327,0.025 -0.398,-0.008 C -0.468,-0.041 -0.544,-0.058 -0.624,-0.058 C -0.775,-0.058 -0.902,-0.032 -1.006,0.02 C -1.11,0.072 -1.195,0.14 -1.261,0.223 C -1.326,0.307 -1.373,0.403 -1.401,0.512 C -1.43,0.621 -1.443,0.734 -1.443,0.851 L -1.443,2.524 L -0.882,2.524 L -0.882,0.875 L -0.865,0.716 L -0.806,0.563 L -0.693,0.447 C -0.644,0.417 -0.584,0.402 -0.513,0.402 C -0.45,0.402 -0.389,0.42 -0.332,0.455 C -0.275,0.49 -0.224,0.532 -0.178,0.58 L -0.07,0.724 L -0.024,0.829 L -0.024,2.524 L 0.538,2.524 L 0.538,0 L 0,0 z" style="fill:#5d6971;fill-opacity:1;fill-rule:nonzero;stroke:none" id="path915"></path>
        </g>
        <g id="g917" transform="translate(497.1266,25.6317)">
          <path d="M 0,0 L -0.1,0.053 L -0.206,0.085 C -0.277,0.085 -0.34,0.069 -0.397,0.038 C -0.453,0.006 -0.503,-0.032 -0.546,-0.075 L -0.648,-0.208 L -0.693,-0.311 L -0.693,-1.983 L -1.255,-1.983 L -1.255,0.541 L -0.717,0.541 L -0.719,0.196 L -0.658,0.292 L -0.538,0.425 C -0.487,0.47 -0.428,0.511 -0.359,0.546 C -0.291,0.581 -0.213,0.599 -0.125,0.599 C -0.072,0.599 -0.012,0.587 0.055,0.563 C 0.122,0.54 0.165,0.518 0.186,0.498 L 0,0 z" style="fill:#5d6971;fill-opacity:1;fill-rule:nonzero;stroke:none" id="path919"></path>
        </g>
        <g id="g921" transform="translate(499.1095,25.3207)">
          <path d="M 0,0 C 0,0.141 -0.035,0.259 -0.105,0.352 C -0.176,0.447 -0.279,0.493 -0.417,0.493 C -0.487,0.493 -0.547,0.479 -0.599,0.451 L -0.728,0.337 C -0.761,0.29 -0.786,0.237 -0.803,0.179 C -0.82,0.12 -0.828,0.061 -0.828,0 C -0.828,-0.067 -0.821,-0.133 -0.808,-0.196 C -0.794,-0.26 -0.771,-0.317 -0.737,-0.368 L -0.61,-0.488 C -0.558,-0.519 -0.493,-0.534 -0.417,-0.534 C -0.339,-0.534 -0.274,-0.518 -0.22,-0.486 L -0.093,-0.363 C -0.06,-0.312 -0.038,-0.255 -0.022,-0.191 C -0.007,-0.128 0,-0.064 0,0 M 0.179,-2.054 C 0.179,-1.967 0.126,-1.889 0.019,-1.822 C -0.088,-1.754 -0.233,-1.72 -0.417,-1.72 C -0.494,-1.72 -0.565,-1.73 -0.632,-1.748 C -0.699,-1.767 -0.758,-1.791 -0.808,-1.822 L -0.928,-1.928 L -0.974,-2.054 C -0.974,-2.152 -0.923,-2.237 -0.823,-2.309 C -0.723,-2.382 -0.587,-2.418 -0.417,-2.418 C -0.327,-2.418 -0.245,-2.407 -0.171,-2.385 C -0.098,-2.363 -0.035,-2.335 0.017,-2.302 L 0.137,-2.185 L 0.179,-2.054 z M 0.407,0.483 L 0.447,0.415 L 0.497,0.305 L 0.54,0.164 C 0.552,0.112 0.557,0.058 0.557,0.001 C 0.557,-0.137 0.535,-0.264 0.489,-0.379 C 0.444,-0.495 0.38,-0.596 0.296,-0.681 C 0.213,-0.766 0.11,-0.833 -0.01,-0.88 C -0.131,-0.927 -0.266,-0.95 -0.417,-0.95 C -0.471,-0.95 -0.528,-0.967 -0.588,-1 C -0.648,-1.034 -0.678,-1.073 -0.678,-1.119 L -0.605,-1.249 C -0.557,-1.282 -0.494,-1.299 -0.417,-1.299 C -0.263,-1.299 -0.116,-1.317 0.022,-1.354 C 0.161,-1.391 0.283,-1.442 0.389,-1.508 C 0.495,-1.574 0.579,-1.652 0.642,-1.745 C 0.705,-1.837 0.736,-1.94 0.736,-2.054 C 0.736,-2.142 0.708,-2.231 0.652,-2.323 C 0.595,-2.416 0.516,-2.5 0.415,-2.575 C 0.315,-2.651 0.194,-2.713 0.052,-2.762 C -0.091,-2.81 -0.247,-2.835 -0.418,-2.835 C -0.575,-2.835 -0.719,-2.817 -0.851,-2.781 C -0.983,-2.746 -1.098,-2.698 -1.195,-2.636 C -1.292,-2.573 -1.368,-2.499 -1.423,-2.411 C -1.478,-2.324 -1.506,-2.228 -1.506,-2.124 C -1.506,-2.033 -1.481,-1.952 -1.431,-1.88 C -1.38,-1.808 -1.32,-1.746 -1.25,-1.696 C -1.179,-1.646 -1.107,-1.606 -1.032,-1.578 C -0.956,-1.549 -0.894,-1.533 -0.843,-1.53 L -0.934,-1.505 L -1.054,-1.447 L -1.159,-1.35 C -1.19,-1.31 -1.205,-1.26 -1.205,-1.2 L -1.167,-1.085 L -1.077,-0.985 L -0.969,-0.912 L -0.873,-0.875 C -0.917,-0.855 -0.967,-0.825 -1.026,-0.784 C -1.085,-0.744 -1.141,-0.691 -1.194,-0.624 C -1.248,-0.556 -1.293,-0.472 -1.33,-0.37 C -1.367,-0.268 -1.385,-0.144 -1.385,0 C -1.385,0.104 -1.363,0.209 -1.32,0.316 C -1.276,0.424 -1.213,0.521 -1.129,0.608 C -1.046,0.695 -0.944,0.767 -0.823,0.824 C -0.703,0.881 -0.568,0.91 -0.418,0.91 C -0.321,0.91 -0.235,0.902 -0.159,0.885 C -0.084,0.87 -0.033,0.858 -0.006,0.852 L 0.765,0.852 L 0.765,0.483 L 0.407,0.483 z" style="fill:#5d6971;fill-opacity:1;fill-rule:nonzero;stroke:none" id="path923"></path>
        </g>
      </g>
    </g>
  </g>
</svg>
