<?xml version="1.0" encoding="UTF-8" standalone="no"?>
<svg xmlns:dc="http://purl.org/dc/elements/1.1/" xmlns:cc="http://creativecommons.org/ns#" xmlns:rdf="http://www.w3.org/1999/02/22-rdf-syntax-ns#" xmlns:svg="http://www.w3.org/2000/svg" xmlns="http://www.w3.org/2000/svg" xmlns:sodipodi="http://sodipodi.sourceforge.net/DTD/sodipodi-0.dtd" xmlns:inkscape="http://www.inkscape.org/namespaces/inkscape" version="1.1" id="svg2" xml:space="preserve" width="494.06531" height="148.30666" viewBox="0 0 494.0653 148.30666" sodipodi:docname="EMB.svg" inkscape:version="1.0.1 (3bc2e813f5, 2020-09-07)">
  <metadata id="metadata8"></metadata>
  <defs id="defs6"></defs>
  <g id="g10" inkscape:groupmode="layer" inkscape:label="ink_ext_XXXXXX" transform="matrix(1.3333333,0,0,-1.3333333,-752.27065,1951.88)">
    <g id="g12" transform="scale(0.1)">
      <path d="m 7384.29,14003.3 h -214.7 v 214.7 h 214.7 v -214.7" style="fill:#00adef;fill-opacity:1;fill-rule:nonzero;stroke:none" id="path14"></path>
      <path d="m 6568.62,14219 v -208.2 h 600.97 v -7.5 h -608.54 v 215.7 h 7.57" style="fill:#1d191a;fill-opacity:1;fill-rule:nonzero;stroke:none" id="path16"></path>
      <path d="m 7376.8,14420.3 v 211.3 h -656.2 v 7.5 h 663.69 v -218.8 h -7.49" style="fill:#1d191a;fill-opacity:1;fill-rule:nonzero;stroke:none" id="path18"></path>
      <path d="m 6720.14,14503.4 c 178.22,0 356.45,0 535.62,0 0,-28.4 0,-56 0,-85 -146.99,0 -293.41,0 -440.59,0 0,-21 0,-40.6 0,-61.9 128.3,0 256.77,0 386.31,0 0,-26.1 0,-50.5 0,-76.1 -128.66,0 -256.82,0 -386.04,0 0,-21 0,-40.9 0,-62.3 146.16,0 292.54,0 440.09,0 0,-29 0,-56.6 0,-86 -178.28,0 -356.83,0 -535.39,0 0,123.7 0,247.5 0,371.3" style="fill:#1d191a;fill-opacity:1;fill-rule:nonzero;stroke:none" id="path20"></path>
      <path d="m 9347.52,13999.8 h -214.7 v 214.7 h 214.7 v -214.7" style="fill:#11ade5;fill-opacity:1;fill-rule:nonzero;stroke:none" id="path22"></path>
      <path d="m 8531.85,14215.5 v -208.2 h 600.97 v -7.5 h -608.55 v 215.7 h 7.58" style="fill:#1d191a;fill-opacity:1;fill-rule:nonzero;stroke:none" id="path24"></path>
      <path d="m 9340.03,14416.8 -6.01,211.3 H 8663.1 v 7.5 h 678.41 l 6.01,-218.8 h -7.49" style="fill:#1d191a;fill-opacity:1;fill-rule:nonzero;stroke:none" id="path26"></path>
      <path d="m 8401.66,13999.8 h -214.7 v 214.7 h 214.7 v -214.7" style="fill:#11ade5;fill-opacity:1;fill-rule:nonzero;stroke:none" id="path28"></path>
      <path d="m 7516.57,14215.5 v -208.2 h 670.39 v -7.5 h -677.97 v 215.7 h 7.58" style="fill:#1d191a;fill-opacity:1;fill-rule:nonzero;stroke:none" id="path30"></path>
      <path d="m 8394.17,14416.8 v 211.3 H 7632.8 v 7.5 h 768.86 v -218.8 h -7.49" style="fill:#1d191a;fill-opacity:1;fill-rule:nonzero;stroke:none" id="path32"></path>
      <path d="m 8768.3,14418.4 c 0,-21.8 0,-41.6 0,-61.9 3.15,-0.2 5.38,-0.6 7.61,-0.6 97.99,0 195.99,-0.1 293.99,0.2 9.45,0 19.18,1.7 28.3,4.3 14.79,4.2 20.87,13.5 20.56,28.4 -0.28,13.6 -7.11,23 -21.48,26.2 -10.59,2.3 -21.69,3.2 -32.57,3.2 -88.38,0.3 -176.76,0.2 -265.13,0.2 -10.04,0 -20.08,0 -31.28,0 z m -0.14,-138.5 c 0,-21.6 0,-41.5 0,-61.9 2.97,-0.3 5.17,-0.8 7.37,-0.8 108.17,0 216.32,-0.1 324.49,0.2 7.59,0.1 15.42,2 22.73,4.3 12.91,4 18.89,13.5 18.79,27 -0.09,13.6 -6.07,23.3 -19.4,26.3 -11.94,2.7 -24.31,4.6 -36.52,4.7 -71.49,0.4 -142.99,0.2 -214.48,0.2 -33.89,0 -67.78,0 -102.98,0 z m 398.32,45.6 c 6.03,-2.3 11.12,-4.2 16.27,-6.1 73.26,-26 73.11,-122.9 28.79,-159.4 -23.83,-19.6 -52.11,-27.4 -81.65,-27.5 -150.33,-0.8 -300.68,-0.4 -451.02,-0.4 -0.89,0 -1.78,0.4 -3.81,0.9 0,122.7 0,245.6 0,369.6 3.49,0.3 6.99,0.8 10.48,0.8 139.34,0 278.68,0.1 418.02,-0.2 27.37,-0.1 53.9,-5.5 76.61,-21.9 46.76,-33.7 47.21,-110.2 1.21,-145.4 -4.33,-3.3 -8.95,-6.3 -14.9,-10.4" style="fill:#1d191a;fill-opacity:1;fill-rule:nonzero;stroke:none" id="path34"></path>
      <path d="m 8278.69,14502.9 c 0,-124.3 0,-246.9 0,-370.5 -30.4,0 -60.41,0 -92.12,0 0,79 0,158.4 0,236.6 -77.21,-75.8 -154.13,-151.4 -230.77,-226.6 -77.68,76.2 -154.84,152 -233.07,228.8 0,-79.9 0,-158.9 0,-238.9 -31.27,0 -61.33,0 -92.55,0 0,122.8 0,245.8 0,370.5 28.32,0 56.56,0.4 84.78,-0.4 4.42,-0.1 9.2,-5.3 12.94,-9 70.98,-70.3 141.84,-140.8 212.67,-211.3 4.22,-4.2 8.01,-8.8 12.55,-13.9 4.47,4.2 8.07,7.5 11.49,10.9 71.24,70.7 142.6,141.3 213.49,212.4 8.5,8.6 16.96,12 28.81,11.6 23.67,-0.8 47.38,-0.2 71.78,-0.2" style="fill:#1d191a;fill-opacity:1;fill-rule:nonzero;stroke:none" id="path36"></path>
      <path d="m 5689.46,13639.2 h 26.42 c 39.63,0 77.9,29.5 77.9,81 0,51.5 -38.27,80.9 -77.9,80.9 h -26.42 z m -47.43,199.2 h 64.7 c 72.5,0 136.5,-24.4 136.5,-118.2 0,-93.8 -64,-118.2 -136.5,-118.2 h -64.7 v 236.4" style="fill:#f1511b;fill-opacity:1;fill-rule:nonzero;stroke:none" id="path346"></path>
      <path d="m 5891.94,13776.4 h 40.3 v -39.6 h 0.67 c 2.03,16.2 20.66,43.7 47.76,43.7 4.41,0 9.15,0 13.89,-1.4 v -45.7 c -4.06,2.4 -12.2,3.7 -20.32,3.7 -36.92,0 -36.92,-46.1 -36.92,-71.1 v -64 h -45.38 v 174.4" style="fill:#f1511b;fill-opacity:1;fill-rule:nonzero;stroke:none" id="path348"></path>
      <path d="m 6028.73,13776.4 h 45.4 V 13602 h -45.4 z m 0,75.2 h 45.4 v -43.4 h -45.4 v 43.4" style="fill:#f1511b;fill-opacity:1;fill-rule:nonzero;stroke:none" id="path350"></path>
      <path d="m 6107.8,13776.4 h 48.78 l 43.35,-127 h 0.69 l 41.99,127 h 45.4 l -64.36,-174.4 h -51.14 l -64.71,174.4" style="fill:#f1511b;fill-opacity:1;fill-rule:nonzero;stroke:none" id="path352"></path>
      <path d="m 6322.01,13776.4 h 45.4 V 13602 h -45.4 z m 0,75.2 h 45.4 v -43.4 h -45.4 v 43.4" style="fill:#f1511b;fill-opacity:1;fill-rule:nonzero;stroke:none" id="path354"></path>
      <path d="m 6420.41,13776.4 h 43.02 v -23.7 h 0.69 c 14.22,20 33.52,27.8 57.24,27.8 41.32,0 59.27,-29.2 59.27,-68.5 v -110 h -45.4 v 93.1 c 0,21.3 -0.33,50.1 -29.47,50.1 -32.84,0 -39.95,-35.5 -39.95,-57.9 v -85.3 h -45.4 v 174.4" style="fill:#f1511b;fill-opacity:1;fill-rule:nonzero;stroke:none" id="path356"></path>
      <path d="m 6749.66,13691 c 0,29.9 -11.51,54.2 -37.95,54.2 -30.81,0 -40.64,-28.4 -40.64,-55.2 0,-23.7 12.53,-52.8 38.62,-52.8 28.46,0 39.97,24.7 39.97,53.8 z m 45.38,85.4 v -157.5 c 0,-47.4 -18.96,-92.1 -92.13,-92.1 -17.95,0 -38.62,2.7 -60.3,11.8 l 3.73,38.6 c 13.89,-7.4 36.58,-15.2 50.82,-15.2 50.12,0 52.5,37.6 52.5,67.7 h -0.68 c -8.47,-14.9 -28.8,-27.7 -54.19,-27.7 -51.5,0 -71.14,41.3 -71.14,88 0,42 21.68,90.5 73.84,90.5 23.04,0 40.98,-7.8 53.51,-27.8 h 0.69 v 23.7 h 43.35" style="fill:#f1511b;fill-opacity:1;fill-rule:nonzero;stroke:none" id="path358"></path>
      <path d="m 6969.4,13743.2 h -33.54 v 33.2 h 33.54 v 24.4 c 0,34.9 19.64,59.3 55.54,59.3 11.52,0 24.4,-1.7 33.2,-3.8 l -3.73,-37.6 c -4.06,2.4 -9.81,6.1 -19.64,6.1 -15.25,0 -19.99,-13.2 -19.99,-26.7 v -21.7 h 39.63 v -33.2 h -39.63 V 13602 h -45.38 v 141.2" style="fill:#f1511b;fill-opacity:1;fill-rule:nonzero;stroke:none" id="path360"></path>
      <path d="m 7168.84,13633.1 c 34.89,0 44.04,31.2 44.04,60.3 0,26.8 -14.22,51.8 -44.04,51.8 -29.46,0 -43.68,-25.7 -43.68,-51.8 0,-28.8 9.15,-60.3 43.68,-60.3 z m 0,147.4 c 51.83,0 91.47,-34.9 91.47,-92.5 0,-50.1 -33.54,-90.1 -91.47,-90.1 -57.57,0 -91.1,40 -91.1,90.1 0,57.6 39.63,92.5 91.1,92.5" style="fill:#f1511b;fill-opacity:1;fill-rule:nonzero;stroke:none" id="path362"></path>
      <path d="m 7303.41,13776.4 h 40.31 v -39.6 h 0.66 c 2.04,16.2 20.67,43.7 47.77,43.7 4.41,0 9.15,0 13.89,-1.4 v -45.7 c -4.06,2.4 -12.2,3.7 -20.32,3.7 -36.93,0 -36.93,-46.1 -36.93,-71.1 v -64 h -45.38 v 174.4" style="fill:#f1511b;fill-opacity:1;fill-rule:nonzero;stroke:none" id="path364"></path>
      <path d="m 7554.88,13738.8 c -8.12,3.7 -16.94,6.4 -30.83,6.4 -28.1,0 -46.05,-22.3 -46.05,-55.2 0,-32.2 15.25,-56.9 47.08,-56.9 12.86,0 27.1,4.8 34.89,8.2 l 2.04,-37.6 c -13.23,-4.1 -26.77,-5.8 -45.39,-5.8 -57.25,0 -86.04,39 -86.04,92.1 0,50.5 29.8,90.5 84.35,90.5 18.27,0 31.48,-2.1 44.03,-5.8 l -4.08,-35.9" style="fill:#f1511b;fill-opacity:1;fill-rule:nonzero;stroke:none" id="path366"></path>
      <path d="m 7707.37,13706.3 c -1.35,22 -11.51,41 -36.92,41 -25.4,0 -38.28,-17.6 -40.3,-41 z m 30.5,-94.5 c -16.61,-9.2 -35.58,-13.9 -59.97,-13.9 -57.58,0 -91.11,33.2 -91.11,90.4 0,50.5 26.75,92.2 80.95,92.2 64.71,0 82.98,-44.4 82.98,-105.4 h -120.57 c 2.02,-28.1 21.68,-44 49.79,-44 22.03,0 40.98,8.1 57.93,17.6 v -36.9" style="fill:#f1511b;fill-opacity:1;fill-rule:nonzero;stroke:none" id="path368"></path>
      <path d="m 7792.83,13649.4 h 47.42 v -47.4 h -47.42 v 47.4" style="fill:#f1511b;fill-opacity:1;fill-rule:nonzero;stroke:none" id="path370"></path>
    </g>
  </g>
</svg>
