<?xml version="1.0" encoding="UTF-8" standalone="no"?>
<!-- Created with Inkscape (http://www.inkscape.org/) -->
<svg xmlns:inkscape="http://www.inkscape.org/namespaces/inkscape" xmlns:sodipodi="http://sodipodi.sourceforge.net/DTD/sodipodi-0.dtd" xmlns="http://www.w3.org/2000/svg" xmlns:svg="http://www.w3.org/2000/svg" version="1.1" id="svg785" width="347.68933" height="40.007866" viewBox="0 0 347.68933 40.007866" sodipodi:docname="GFR22_MRKT_Livery_OregonTool.svg" inkscape:version="1.2.2 (b0a8486541, 2022-12-01)">
  <defs id="defs789">
    <clipPath id="clipPath801">
      <path d="M 0,30.006 H 260.767 V 0 H 0 Z" id="path799"></path>
    </clipPath>
  </defs>
  <g id="g793" inkscape:groupmode="layer" inkscape:label="Page 1" transform="matrix(1.3333333,0,0,-1.3333333,0,40.007867)">
    <g id="g795">
      <g id="g797" clip-path="url(#clipPath801)">
        <g id="g803" transform="translate(112.1808,8.1729)">
          <path d="m 0,0 c -3.773,-0.068 -6.887,2.935 -6.956,6.708 -0.068,3.773 2.935,6.887 6.708,6.956 3.773,0.068 6.887,-2.935 6.956,-6.708 V 6.832 C 6.801,3.153 3.895,0.094 0.215,0.001 v 0 0 H 0.002 Z M 33.5,7.2 23.232,21.149 H 15.255 V 8.93 C 13.799,17.37 5.776,23.03 -2.663,21.574 -8.702,20.532 -13.56,16.031 -15.061,10.09 v 0.214 h -11 l -0.982,-7 h 4.5 v -3.15 c -0.733,-0.203 -1.489,-0.313 -2.25,-0.327 -3.794,-0.201 -7.032,2.712 -7.233,6.506 v 0 0 c -0.008,0.165 -0.011,0.329 -0.008,0.494 0,4.049 3.191,7 7.363,7 2.385,-0.071 4.722,-0.687 6.832,-1.8 l 1.1,7.9 c -2.545,1.251 -5.345,1.896 -8.181,1.885 -8.55,0.164 -15.832,-6.75 -15.668,-14.972 -0.163,-8.222 6.954,-15.136 15.3,-14.973 3.623,0.007 7.17,1.042 10.227,2.986 V 3.577 C -12.964,-4.727 -4.532,-9.758 3.771,-7.661 9.712,-6.16 14.213,-1.302 15.255,4.737 V -7.478 h 8.386 V 6.63 l 10.35,-14.113 h 7.9 V 21.148 H 33.505 Z M -72.129,8.222 h -0.982 v 6.218 h 0.982 c 2.414,0 3.763,-1.186 3.763,-3.109 0,-1.923 -1.345,-3.109 -3.763,-3.109 m -24.664,-8.223 c -3.773,-0.068 -6.887,2.935 -6.956,6.708 -0.068,3.773 2.935,6.887 6.708,6.956 3.773,0.068 6.887,-2.935 6.956,-6.708 V 6.831 c 0.093,-3.679 -2.815,-6.737 -6.494,-6.83 v 0 h -0.216 z m 46.638,3.273 h 8.018 v 7.4 h -8.02 v 3.068 h 9.979 l -1.02,7.4 H -58.543 V -6.99 l -6.3,11.154 c 3.109,1.381 5.079,4.499 4.991,7.9 0,5.278 -3.886,9.082 -10.881,9.082 h -10.8 V 8.93 c -1.139,7.51 -7.665,13.015 -15.26,12.871 -8.427,0.164 -15.544,-6.75 -15.385,-14.971 -0.163,-8.222 6.954,-15.136 15.381,-14.973 7.596,-0.145 14.125,5.361 15.264,12.873 V -7.489 h 8.427 V 3.23 l 4.991,-10.718 h 27.286 l 1.022,7.4 h -10.35 z m 166,-3.284 c -3.779,-0.068 -6.898,2.94 -6.967,6.719 -0.068,3.779 2.94,6.898 6.719,6.967 3.779,0.068 6.898,-2.94 6.967,-6.719 V 6.831 c 0.093,-3.684 -2.817,-6.746 -6.5,-6.841 -0.075,-0.002 -0.142,-0.003 -0.219,-0.002 m -29.014,0 c -3.779,-0.068 -6.898,2.94 -6.967,6.719 -0.068,3.779 2.94,6.898 6.719,6.967 3.779,0.068 6.898,-2.94 6.967,-6.719 V 6.831 C 93.643,3.146 90.731,0.083 87.045,-0.01 v 0 0 c -0.07,-0.002 -0.142,-0.003 -0.214,-0.002 m 52.38,21.187 h -8.523 V 11.047 c -2.674,8.204 -11.491,12.687 -19.695,10.013 -4.39,-1.431 -7.923,-4.73 -9.649,-9.013 -3.273,8.033 -12.439,11.892 -20.473,8.619 -2.641,-1.077 -4.94,-2.852 -6.649,-5.136 l -0.787,5.645 H 53.598 L 52.491,13.23 h 6.761 V -7.507 h 8.519 v 20.729 h 5.051 c -0.963,-1.991 -1.443,-4.181 -1.4,-6.392 -0.164,-8.237 6.966,-15.161 15.407,-15 6.408,-0.101 12.2,3.805 14.507,9.784 3.226,-8.003 12.329,-11.875 20.331,-8.649 4.283,1.726 7.582,5.259 9.013,9.649 V -7.51 h 16.759 l 1.147,8.195 h -9.384 z" style="fill:#ffffff;fill-opacity:1;fill-rule:nonzero;stroke:none" id="path805"></path>
        </g>
      </g>
    </g>
  </g>
</svg>
