<?xml version="1.0" encoding="UTF-8" standalone="no"?>
<!-- Created with Inkscape (http://www.inkscape.org/) -->
<svg xmlns:inkscape="http://www.inkscape.org/namespaces/inkscape" xmlns:sodipodi="http://sodipodi.sourceforge.net/DTD/sodipodi-0.dtd" xmlns="http://www.w3.org/2000/svg" xmlns:svg="http://www.w3.org/2000/svg" version="1.1" id="svg2" xml:space="preserve" width="217.51466" height="363.19333" viewBox="0 0 217.51466 363.19333" sodipodi:docname="GFR21_MRKT_Livery_Rolls-Royce_logo.ai">
  <defs id="defs6">
    <clipPath id="clipPath16">
      <path d="M 0,272.395 H 163.136 V 0 H 0 Z" id="path14"></path>
    </clipPath>
  </defs>
  <g id="g8" inkscape:groupmode="layer" inkscape:label="GFR21_MRKT_Livery_Rolls-Royce_logo" transform="matrix(1.3333333,0,0,-1.3333333,0,363.19333)">
    <g id="g10">
      <g id="g12" clip-path="url(#clipPath16)">
        <g id="g18" transform="translate(158.9048,228.1565)">
          <path d="m 0,0 h -154.674 v 30.167 c 0,5.434 4.405,9.839 9.839,9.839 L -9.839,40.008 C -4.404,40.008 0,35.603 0,30.169 Z M 0,-179.639 H -154.674 V -4.262 H 0 Z m 0,-34.448 c 0,-5.434 -4.404,-9.839 -9.839,-9.839 l -134.996,0.002 c -5.434,0 -9.839,4.405 -9.839,9.839 v 30.184 H 0 Z M -9.838,44.238 -144.835,44.236 c -7.77,0 -14.07,-6.298 -14.07,-14.069 v -244.252 c 0,-7.771 6.3,-14.07 14.07,-14.07 l 134.997,-0.002 c 7.77,0 14.069,6.299 14.069,14.07 V 30.169 c 0,7.77 -6.299,14.069 -14.069,14.069" style="fill:#ffffff;fill-opacity:1;fill-rule:nonzero;stroke:none" id="path20"></path>
        </g>
        <g id="g22" transform="translate(22.3233,32.1717)">
          <path d="m 0,0 h 4.715 c 2.119,0 3.239,-1.002 3.239,-2.9 0,-1.898 -1.12,-2.901 -3.239,-2.901 H 0 Z m 0,-9.813 h 3.462 c 1.828,0 2.342,-0.686 2.801,-2.224 l 1.59,-5.351 c 0.275,-0.909 0.703,-1.741 1.146,-2.222 l 0.075,-0.082 h 4.876 l -0.262,0.39 c -0.446,0.659 -0.749,1.323 -1.012,2.222 l -1.692,5.925 c -0.459,1.631 -1.123,2.599 -2.092,3.045 l -0.315,0.141 0.321,0.136 c 1.754,0.735 3.846,2.283 3.846,5.474 0,3.75 -2.995,6.37 -7.284,6.37 H -4.731 V -19.692 H 0 Z" style="fill:#ffffff;fill-opacity:1;fill-rule:nonzero;stroke:none" id="path24"></path>
        </g>
        <g id="g26" transform="translate(81.3839,12.4793)">
          <path d="m 0,0 h 4.891 v 9.052 l 7.661,14.468 0.098,0.183 H 7.164 l -4.742,-9.617 -4.705,9.547 -0.034,0.07 H -7.804 L 0,8.862 Z" style="fill:#ffffff;fill-opacity:1;fill-rule:nonzero;stroke:none" id="path28"></path>
        </g>
        <g id="g30" transform="translate(146.7193,16.5096)">
          <path d="m 0,0 h -10.896 v 6.167 h 7.986 v 4.03 h -7.986 v 5.446 H 0 v 4.03 H -15.737 V -4.03 L 0,-4.03 Z" style="fill:#ffffff;fill-opacity:1;fill-rule:nonzero;stroke:none" id="path32"></path>
        </g>
        <g id="g34" transform="translate(111.106,12.0808)">
          <path d="M 0,0 C 4.37,0 7.884,2.116 9.896,5.955 L 9.959,6.076 6.089,7.729 5.979,7.775 5.928,7.669 C 4.697,5.135 2.814,3.955 0,3.955 c -4.226,0 -6.748,3.054 -6.748,8.169 0,5.115 2.522,8.169 6.748,8.169 2.969,0 4.914,-1.374 5.945,-4.197 l 0.046,-0.124 3.911,1.655 0.106,0.046 -0.035,0.108 C 8.547,22.062 5.1,24.324 0,24.324 c -6.902,0 -11.726,-5.017 -11.726,-12.2 C -11.726,4.985 -6.902,0 0,0" style="fill:#ffffff;fill-opacity:1;fill-rule:nonzero;stroke:none" id="path36"></path>
        </g>
        <g id="g38" transform="translate(55.6304,32.3738)">
          <path d="m 0,0 c 4.328,0 7.017,-3.13 7.017,-8.169 0,-5.039 -2.689,-8.169 -7.017,-8.169 -4.329,0 -7.02,3.13 -7.02,8.169 C -7.02,-3.13 -4.329,0 0,0 m 0,-20.293 c 7.062,0 11.996,4.985 11.996,12.124 0,7.183 -4.934,12.2 -11.996,12.2 -7.063,0 -11.997,-5.017 -11.997,-12.2 0,-7.139 4.934,-12.124 11.997,-12.124" style="fill:#ffffff;fill-opacity:1;fill-rule:nonzero;stroke:none" id="path40"></path>
        </g>
        <g id="g42" transform="translate(40.608,200.9529)">
          <path d="m 0,0 h 22.692 c 8.068,-0.14 14.082,-1.799 18.932,-5.224 6.336,-4.506 9.825,-11.763 9.825,-20.434 0,-9.821 -4.902,-32.745 -50.316,-33.522 L 0,-59.2 Z m -12.925,-4.859 c -0.019,-1.182 0.01,-101.273 0.01,-102.284 l -0.001,-0.05 c -0.244,-5.444 -2.342,-8.741 -6.405,-10.049 v -1.845 h 25.8 v 1.845 c -4.196,1.35 -6.406,4.823 -6.406,10.096 l -0.075,41.786 h 1.116 c 10.625,0 21.031,1.254 30.092,3.626 l 0.686,0.179 0.453,-0.545 c 7.947,-9.564 14.12,-24.431 16.112,-38.806 0.007,-0.054 0.713,-6.894 0.731,-9.371 l 0.002,-0.409 c -0.002,-0.158 -0.007,-0.31 -0.012,-0.461 l -0.007,-0.208 c -0.102,-2.006 -0.682,-4.73 -4.363,-5.914 v -1.818 h 26.59 v 1.796 c -2.359,0.711 -7.042,3.133 -9.054,11.273 l -0.3,1.228 c -1.494,6.128 -2.316,9.503 -3.384,12.775 -2.533,7.76 -8.114,22.307 -17.029,32.539 l -0.946,1.087 1.29,0.642 c 0.288,0.143 0.54,0.252 0.793,0.36 0.22,0.095 0.442,0.189 0.688,0.313 13.687,6.979 21.225,18.185 21.225,31.567 0.135,9.861 -5.67,19.985 -14.031,25.686 C 44.104,4.583 35.901,7.293 23.352,7.293 H -19.499 V 5.486 c 4.367,-1.293 6.462,-4.594 6.574,-10.345" style="fill:#ffffff;fill-opacity:1;fill-rule:nonzero;stroke:none" id="path44"></path>
        </g>
        <g id="g46" transform="translate(84.2418,260.012)">
          <path d="m 0,0 h -4.842 v -23.702 h 15.736 v 4.031 l -10.894,0 z" style="fill:#ffffff;fill-opacity:1;fill-rule:nonzero;stroke:none" id="path48"></path>
        </g>
        <g id="g50" transform="translate(109.398,260.012)">
          <path d="m 0,0 h -4.84 v -23.702 h 15.736 v 4.031 l -10.896,0 z" style="fill:#ffffff;fill-opacity:1;fill-rule:nonzero;stroke:none" id="path52"></path>
        </g>
        <g id="g54" transform="translate(138.6334,250.2473)">
          <path d="m 0,0 c -4.332,1.288 -5.125,2.291 -5.125,3.8 0,1.661 1.709,2.417 3.298,2.417 1.863,0 3.572,-0.657 5.379,-2.07 L 3.693,4.036 4.97,8.153 4.892,8.204 c -1.972,1.302 -4.119,1.909 -6.755,1.909 -4.8,0 -7.901,-2.584 -7.901,-6.583 0,-3.248 2.227,-5.566 6.618,-6.889 1.417,-0.424 2.37,-0.82 3.004,-1.248 0.857,-0.577 1.367,-1.535 1.367,-2.562 0,-1.666 -1.269,-2.962 -3.017,-3.081 -2.547,-0.176 -5.052,1.162 -6.979,3.701 l -0.151,0.2 -1.372,-4.88 0.042,-0.05 c 1.519,-1.827 4.68,-3.008 8.052,-3.008 4.931,0 8.376,2.972 8.376,7.227 C 6.176,-4.474 5.441,-1.611 0,0" style="fill:#ffffff;fill-opacity:1;fill-rule:nonzero;stroke:none" id="path56"></path>
        </g>
        <g id="g58" transform="translate(56.8956,239.9925)">
          <path d="m 0,0 c -4.33,0 -7.018,3.129 -7.018,8.167 0,5.041 2.688,8.17 7.018,8.17 4.33,0 7.02,-3.129 7.02,-8.17 C 7.02,3.129 4.33,0 0,0 m 0,20.368 c -7.064,0 -11.997,-5.017 -11.997,-12.201 0,-7.182 4.933,-12.199 11.997,-12.199 7.064,0 11.997,5.017 11.997,12.199 0,7.184 -4.933,12.201 -11.997,12.201" style="fill:#ffffff;fill-opacity:1;fill-rule:nonzero;stroke:none" id="path60"></path>
        </g>
        <g id="g62" transform="translate(27.9688,250.201)">
          <path d="M 0,0 H -4.715 V 5.801 H 0 C 2.119,5.801 3.239,4.798 3.239,2.9 3.239,1.002 2.119,0 0,0 M 7.961,-11.278 6.268,-5.355 C 5.812,-3.724 5.146,-2.756 4.177,-2.31 l -0.315,0.143 0.32,0.134 c 1.754,0.736 3.845,2.283 3.845,5.474 0,3.75 -2.994,6.37 -7.283,6.37 H -9.448 v -23.702 h 4.733 v 9.879 h 3.462 c 1.828,0 2.342,-0.686 2.801,-2.225 l 1.59,-5.35 c 0.275,-0.91 0.703,-1.74 1.146,-2.223 l 0.075,-0.081 H 9.235 L 8.973,-13.5 c -0.446,0.658 -0.748,1.323 -1.012,2.222" style="fill:#ffffff;fill-opacity:1;fill-rule:nonzero;stroke:none" id="path64"></path>
        </g>
        <g id="g66" transform="translate(112.0972,177.7029)">
          <path d="m 0,0 c 6.336,-4.506 9.825,-11.763 9.825,-20.435 0,-7.474 -2.772,-22.552 -24.895,-29.901 1.419,-2.504 2.424,-5.11 3.004,-6.518 0.52,0.076 1.326,0.259 1.648,0.344 l 0.687,0.18 0.453,-0.546 c 7.946,-9.564 14.119,-24.432 16.111,-38.807 0.007,-0.052 0.713,-6.892 0.731,-9.37 l 0.002,-0.408 c -0.002,-0.159 -0.006,-0.311 -0.012,-0.463 l -0.007,-0.208 c -0.102,-2.006 -0.682,-4.728 -4.363,-5.912 v -1.818 h 26.59 v 1.795 c -2.359,0.711 -7.042,3.132 -9.054,11.273 l -0.3,1.229 c -1.494,6.127 -2.316,9.502 -3.384,12.774 -2.533,7.761 -8.114,22.308 -17.028,32.54 l -0.947,1.087 1.291,0.642 c 0.287,0.143 0.539,0.251 0.792,0.359 0.22,0.096 0.442,0.189 0.688,0.313 13.687,6.98 21.225,18.185 21.225,31.567 0.135,9.861 -5.67,19.985 -14.031,25.686 C 5.407,7.838 0.578,10.355 -4.757,11.261 -3.113,7.526 -2.305,3.692 -2.064,1.264 -1.435,0.962 -0.478,0.337 0,0" style="fill:#ffffff;fill-opacity:1;fill-rule:nonzero;stroke:none" id="path68"></path>
        </g>
        <g id="g70" transform="translate(57.5479,178.0677)">
          <path d="m 0,0 c -0.006,-0.413 -0.007,-13.933 -0.005,-30.031 6.197,1.097 10.876,2.934 12.93,3.949 V 4.859 h 15.487 c -1.185,3.31 -3.535,6.305 -4.597,7.294 H -6.574 V 10.346 C -2.207,9.052 -0.111,5.751 0,0" style="fill:#ffffff;fill-opacity:1;fill-rule:nonzero;stroke:none" id="path72"></path>
        </g>
        <g id="g74" transform="translate(79.2271,117.7644)">
          <path d="M 0,0 C -0.529,1.981 -1.84,4.705 -2.668,6.142 -4.13,6.064 -6.064,6.009 -7.621,5.982 L -8.754,5.963 v 10.104 c -2.972,-0.885 -9.834,-1.854 -12.928,-2.256 0.005,-26.604 0.014,-55.258 0.014,-55.791 l -0.001,-0.05 c -0.245,-5.445 -2.343,-8.741 -6.406,-10.05 v -1.844 h 25.801 v 1.844 c -4.197,1.351 -6.407,4.823 -6.407,10.098 l -0.074,41.785 h 1.115 c 2.428,0 5.249,0.068 7.64,0.197" style="fill:#ffffff;fill-opacity:1;fill-rule:nonzero;stroke:none" id="path76"></path>
        </g>
      </g>
    </g>
  </g>
</svg>
