<?xml version="1.0" encoding="UTF-8"?>
<!-- Generator: Adobe Illustrator 27.5.0, SVG Export Plug-In . SVG Version: 6.00 Build 0)  -->
<svg xmlns="http://www.w3.org/2000/svg" xmlns:xlink="http://www.w3.org/1999/xlink" version="1.1" id="Ebene_1" x="0px" y="0px" viewBox="0 0 595.3 841.9" style="enable-background:new 0 0 595.3 841.9;" xml:space="preserve">
<style type="text/css">
	.st0{fill:#FFFFFF;}
</style>
<path class="st0" d="M263.1,788.1c3.8-6.6,9.3-11.1,16.4-13.6c1.2-0.4,2.5-0.6,3.7-0.6c15.9,0,31.8,0,47.7,0c1.2,0,2.3,0,3.6,0  c0-5.3,0-10.5,0-15.9c-22.4,0-44.9,0-67.5,0c-0.1-0.9-0.2-1.6-0.2-2.3c0-13.3,0-26.7,0-40c0-1.8,0.4-2.4,2.3-2.4c26,0.1,52,0,78,0  c0.6,0,1.2,0,2.1,0c-0.2,0.8-0.3,1.5-0.6,2c-3,6.6-8.4,10.5-15.2,12.6c-0.7,0.2-1.5,0.1-2.2,0.1c-15.9,0-31.7,0-47.6,0  c-0.8,0-1.6,0-2.6,0c0,2.2,0,4.3,0,6.4c0,2.4,0,4.9,0,7.3c0,1.1,0.4,1.6,1.5,1.5c0.5,0,1.1,0,1.7,0c20.8,0,41.5,0,62.3,0  c1.8,0,2.4,0.4,2.4,2.3c-0.1,14.2-0.1,28.4-0.1,42.6C320.4,788.1,291.8,788.1,263.1,788.1z"></path>
<path class="st0" d="M46.4,788.1c0-19.1,0-38.2,0-57.2c0-2.5-0.2-2.7-2.8-2.7c-6.4,0-12.7-0.2-19.1,0c-5.6,0.2-10.1-2.1-13.5-6.2  c-2.1-2.5-3.4-5.7-5.1-8.6c0-0.1,0-0.2,0-0.4c0.7,0,1.5,0.1,2.2,0.1c30.2,0,60.5,0,90.7,0c0.7,0,1.5,0,2.4,0  c-0.3,0.9-0.4,1.6-0.7,2.2c-2.3,5.6-6.3,9.7-12,11.9c-1.3,0.5-2.7,0.7-4.1,0.8c-6.7,0.1-13.5,0-20.2,0c-3.3,0-3.3,0-3.3,3.2  c0,18.2,0,36.4,0,54.5c0,0.7,0.1,1.5,0.1,2.2C56.2,788.1,51.3,788.1,46.4,788.1z"></path>
<path class="st0" d="M503.4,788.1c0.1-0.7,0.1-1.5,0.1-2.2c0-13.4,0-26.8,0-40.2c0-0.7,0-1.4,0-2.3c27.6,0,55,0,82.4,0  c0.1,0.6,0.2,1.1,0.2,1.5c0,14.1,0,28.3,0,42.4c0,0.2,0,0.5-0.1,0.7c-4.8,0-9.6,0-14.3,0c0-9.4,0-18.7,0-28.1c0-1.2-0.3-1.7-1.6-1.7  c-16.8,0-33.7,0-50.5,0c-1.1,0-1.6,0.3-1.6,1.5c0.1,9.4,0.1,18.9,0.1,28.3C513.2,788.1,508.3,788.1,503.4,788.1z"></path>
<path class="st0" d="M391.3,788.1c0-0.8,0.1-1.6,0.1-2.4c0-23.3,0-46.5,0-69.8c0-0.8,0-1.6,0-2.5c4.8,0,9.6,0,14.5,0  c0,20.1,0,40.3,0,60.7c22,0,43.8,0,65.8,0c-1.3,5.3-4.1,9.3-8.3,12.3c-0.8,0.6-1.5,1.1-2.3,1.7C437.8,788.1,414.6,788.1,391.3,788.1  z"></path>
<path class="st0" d="M149.6,788.1c-1.8-1.3-3.8-2.4-5.5-3.8c-3.3-2.7-5.9-7.2-6.2-10.4c28.7,0,57.5,0,86.5,0  c-0.1,0.6-0.2,1.2-0.4,1.7c-1.9,5.2-5.3,9.1-10.3,11.7c-0.4,0.2-0.8,0.5-1.2,0.8C191.5,788.1,170.5,788.1,149.6,788.1z"></path>
<path class="st0" d="M55.5,132.2c4.6-2,8.8-3.9,13.2-5.8c27.2-11.6,55.3-20.5,84.2-26.8c14.9-3.2,29.9-6.1,45-8.3  c14-2,28.1-2.9,42.1-4.3c1.7-0.2,2.8,0.4,3.9,1.7c17.3,21.2,34.7,42.3,52.1,63.5c0.3,0.4,0.6,0.7,1.1,1.3c0.5-0.5,0.9-1,1.3-1.5  c17.4-21.1,34.7-42.3,52.1-63.5c0.9-1.1,1.8-1.6,3.2-1.5c10.4,0.9,20.9,1.4,31.2,2.8c15.5,2.1,31,4.5,46.3,7.6  c36.7,7.3,72.1,18.6,106.2,34.2c0.3,0.1,0.6,0.3,1.2,0.7c-18,25.4-43,41.1-70.7,53.3c-1-4-1.6-7.8-2.8-11.4  c-3.4-10.4-11.1-16.5-21-20.3c-7.9-3-16.1-4.5-24.4-5.5c-15.4-1.8-30.9-2-46.4-2.2c-1.6,0-2.2,0.5-2.5,2  c-3.2,18.2-6.4,36.4-9.6,54.5c-3.1,17.6-6.2,35.1-9.4,52.7c-3.1,17.6-6.2,35.1-9.4,52.7c-3.1,17.6-6.2,35.1-9.4,52.7  c-3.1,17.6-6.2,35.1-9.4,52.7c-3.1,17.6-6.2,35.1-9.4,52.7c-3,16.8-6,33.7-9,50.5c-2.6,14.7-5.2,29.5-7.8,44.2  c-0.1,0.3-0.2,0.6-0.4,1.3c-1.1-5.9-2.1-11.5-3.1-17c-3.3-18.2-6.5-36.3-9.8-54.5c-3.5-19.4-6.9-38.9-10.4-58.3  c-3.4-18.8-6.8-37.7-10.1-56.5c-3.4-18.7-6.7-37.4-10.1-56.1c-3.2-18.1-6.5-36.2-9.7-54.3c-3.1-17.4-6.3-34.9-9.4-52.3  c-3.3-18.2-6.5-36.3-9.8-54.5c-0.7-3.7-1.4-7.5-2-11.2c-0.2-1.1-0.6-1.5-1.7-1.4c-12.7,0.5-25.4,0.8-38.2,1.4  c-9.3,0.5-18.5,1.9-27.5,4.4c-5.6,1.6-11,3.8-15.7,7.3c-7.6,5.6-11.2,13.5-12.7,22.6c-0.2,1.1-0.3,2.2-0.5,3.3c0,0-0.1,0.1-0.3,0.4  C98.6,173.5,73.6,157.7,55.5,132.2z"></path>
<path class="st0" d="M562,87.2c-4.1,10.8-9.4,20.6-14.8,30.6c-1.9-0.8-3.6-1.5-5.3-2.2c-35.6-15.2-72.4-26.8-110.3-34.6  c-16.8-3.4-33.7-6.1-50.6-8.4c-12.4-1.7-24.9-2.6-37.4-3.5c-24.8-1.8-49.6-2-74.3-0.9c-16.9,0.7-33.8,2.1-50.7,3.9  c-42.3,4.5-83.7,13.8-123.9,27.6c-15.3,5.3-30.3,11.5-45.4,17.4c-1.8,0.7-2.5,0.4-3.3-1.2c-4.2-8.8-8.5-17.6-12.8-26.4  c-0.3-0.6-0.5-1.2-0.8-2.1C208.9,18.8,385.3,18.7,562,87.2z"></path>
<path class="st0" d="M137.7,743.2c29,0,57.7,0,86.5,0c-0.1,0.6-0.2,1.1-0.4,1.5c-1.9,5.1-5.1,9.2-10.1,11.6c-2,1-4.4,1.6-6.6,1.6  c-16.8,0.1-33.5,0.1-50.3,0.1c-8.6,0-15.2-4.4-18.5-12.4C138.2,744.9,138,744.1,137.7,743.2z"></path>
<path class="st0" d="M587.9,713.3c-1.2,7.3-10,15.1-17.3,15c-17-0.3-34-0.2-51,0c-5.2,0-9.2-2-12.7-5.5c-2.6-2.6-4.6-5.7-5.4-9.5  C530.3,713.3,559.1,713.3,587.9,713.3z"></path>
<path class="st0" d="M137.6,713.3c29.1,0,57.8,0,87.1,0c-1.2,2.3-2,4.5-3.3,6.4c-2.7,4.1-6.4,7-11.3,8.3c-0.8,0.2-1.7,0.3-2.5,0.3  c-17.4,0-34.9,0-52.3,0c-3.1,0-5.9-0.9-8.5-2.5C142.3,722.8,139.3,718.7,137.6,713.3z"></path>
<g>
</g>
</svg>
