<?xml version="1.0" encoding="UTF-8" standalone="no"?>
<!-- Created with Inkscape (http://www.inkscape.org/) -->
<svg xmlns:inkscape="http://www.inkscape.org/namespaces/inkscape" xmlns:sodipodi="http://sodipodi.sourceforge.net/DTD/sodipodi-0.dtd" xmlns="http://www.w3.org/2000/svg" xmlns:svg="http://www.w3.org/2000/svg" version="1.1" id="svg2" xml:space="preserve" width="793.70135" height="188.976" viewBox="0 0 793.70135 188.976" sodipodi:docname="GFR21_MRKT_Livery_Logo_Siemens.ai">
  <defs id="defs6">
    <clipPath id="clipPath16">
      <path d="M 0,141.732 H 595.276 V 0 H 0 Z" id="path14"></path>
    </clipPath>
  </defs>
  <g id="g8" inkscape:groupmode="layer" inkscape:label="GFR21_MRKT_Livery_Logo_Siemens" transform="matrix(1.3333333,0,0,-1.3333333,0,188.976)">
    <g id="g10">
      <g id="g12" clip-path="url(#clipPath16)">
        <g id="g18" transform="translate(567.2725,112.4032)">
          <path d="m 0,0 v -16.523 c -8.561,3.232 -16.182,4.866 -22.852,4.866 -3.951,0 -7.097,-0.732 -9.462,-2.146 -2.367,-1.427 -3.574,-3.183 -3.574,-5.256 0,-2.756 2.671,-5.207 8.048,-7.402 l 15.536,-7.56 c 12.56,-5.988 18.791,-13.938 18.791,-23.925 0,-8.304 -3.304,-14.925 -9.974,-19.827 -6.622,-4.952 -15.536,-7.402 -26.632,-7.402 -5.122,0 -9.719,0.219 -13.804,0.683 -4.085,0.438 -8.78,1.341 -13.987,2.634 v 17.291 c 9.548,-3.232 18.242,-4.866 26.071,-4.866 9.341,0 13.986,2.707 13.986,8.17 0,2.719 -1.902,4.914 -5.767,6.634 l -17.255,7.353 c -6.365,2.878 -11.097,6.365 -14.193,10.499 -3.049,4.17 -4.598,8.95 -4.598,14.413 0,7.646 3.22,13.804 9.585,18.487 6.414,4.646 14.926,6.975 25.51,6.975 3.438,0 7.402,-0.305 11.792,-0.866 C -8.354,1.634 -4.098,0.903 0,0" style="fill:#ffffff;fill-opacity:1;fill-rule:evenodd;stroke:none" id="path20"></path>
        </g>
        <g id="g22" transform="translate(78.5825,112.4032)">
          <path d="m 0,0 v -16.523 c -8.56,3.232 -16.169,4.866 -22.839,4.866 -3.964,0 -7.098,-0.732 -9.463,-2.146 -2.365,-1.427 -3.573,-3.183 -3.573,-5.256 0,-2.756 2.707,-5.207 8.085,-7.402 l 15.535,-7.56 C 0.256,-40.009 6.5,-47.959 6.5,-57.946 c 0,-8.304 -3.317,-14.925 -9.938,-19.827 -6.671,-4.952 -15.536,-7.402 -26.669,-7.402 -5.122,0 -9.731,0.219 -13.816,0.683 -4.085,0.438 -8.731,1.341 -13.974,2.634 v 17.291 c 9.584,-3.232 18.279,-4.866 26.058,-4.866 9.341,0 13.987,2.707 13.987,8.17 0,2.719 -1.89,4.914 -5.719,6.634 l -17.255,7.353 c -6.414,2.878 -11.145,6.365 -14.194,10.499 -3.097,4.17 -4.609,8.95 -4.609,14.413 0,7.646 3.195,13.804 9.597,18.487 6.365,4.646 14.889,6.975 25.473,6.975 3.476,0 7.39,-0.305 11.829,-0.866 C -8.34,1.634 -4.085,0.903 0,0" style="fill:#ffffff;fill-opacity:1;fill-rule:evenodd;stroke:none" id="path24"></path>
        </g>
        <path d="m 96.386,113.952 h 25.303 V 28.776 H 96.386 Z" style="fill:#ffffff;fill-opacity:1;fill-rule:evenodd;stroke:none" id="path26"></path>
        <g id="g28" transform="translate(203.2061,113.952)">
          <path d="M 0,0 V -15.743 H -37.594 V -34.631 H -4.987 V -48.825 H -37.594 V -68.652 H 0.768 V -85.176 H -61.946 V 0 Z" style="fill:#ffffff;fill-opacity:1;fill-rule:evenodd;stroke:none" id="path30"></path>
        </g>
        <g id="g32" transform="translate(321.3301,113.952)">
          <path d="m 0,0 v -85.176 h -23.622 v 56.178 L -48.13,-85.956 h -14.584 l -23.571,56.958 v -56.178 h -17.084 V 0 h 30.888 L -51.398,-52.142 -29.339,0 Z" style="fill:#ffffff;fill-opacity:1;fill-rule:evenodd;stroke:none" id="path34"></path>
        </g>
        <g id="g36" transform="translate(402.8115,113.952)">
          <path d="M 0,0 V -15.743 H -37.389 V -34.631 H -4.782 V -48.825 H -37.389 V -68.652 H 0.769 V -85.176 H -61.945 V 0 Z" style="fill:#ffffff;fill-opacity:1;fill-rule:evenodd;stroke:none" id="path38"></path>
        </g>
        <g id="g40" transform="translate(491.5957,113.952)">
          <path d="m 0,0 v -85.176 h -26.839 l -30.118,54.63 v -54.63 H -74.029 V 0 h 27.62 L -17.07,-53.69 V 0 Z" style="fill:#ffffff;fill-opacity:1;fill-rule:evenodd;stroke:none" id="path42"></path>
        </g>
      </g>
    </g>
  </g>
</svg>
