<?xml version="1.0" encoding="UTF-8" standalone="no"?>
<!-- Created with Inkscape (http://www.inkscape.org/) -->
<svg xmlns:inkscape="http://www.inkscape.org/namespaces/inkscape" xmlns:sodipodi="http://sodipodi.sourceforge.net/DTD/sodipodi-0.dtd" xmlns="http://www.w3.org/2000/svg" xmlns:svg="http://www.w3.org/2000/svg" version="1.1" id="svg2" xml:space="preserve" width="755.8667" height="755.8667" viewBox="0 0 755.8667 755.8667" sodipodi:docname="GFR21_MRKT_Livery_Logo_ZF_white.ai">
  <defs id="defs6">
    <clipPath id="clipPath16">
      <path d="M 0,566.9 H 566.9 V 0 H 0 Z" id="path14"></path>
    </clipPath>
  </defs>
  <g id="g8" inkscape:groupmode="layer" inkscape:label="GFR21_MRKT_Livery_Logo_ZF_white" transform="matrix(1.3333333,0,0,-1.3333333,0,755.86667)">
    <g id="g10">
      <g id="g12" clip-path="url(#clipPath16)">
        <g id="g18" transform="translate(444.7002,284.4)">
          <path d="m 0,0 v 34 h -68.2 v 86.1 H 59 C 78.899,84.1 90.1,42.8 90.1,-1.2 90.1,-45.2 78.899,-86.5 59,-122.5 h -322 l 111.7,276.6 h -207.9 c 46,58.6 117.6,96.1 198,96.1 80.2,0 151.8,-37.6 198,-96.1 H -143.101 V -97.5 H -68 V 0 Z m -381.8,120.3 h 135.7 L -358,-156.3 H 36.6 c -46,-58.6 -117.6,-96.1 -198,-96.1 -139,0 -251.7,112.7 -251.7,251.7 0.2,43.7 11.4,85 31.3,121 M 117.399,-1 c 0,154 -124.899,278.6 -278.599,278.6 -154,0 -278.6,-124.8 -278.6,-278.6 0,-154 124.9,-278.6 278.6,-278.6 153.7,0 278.599,124.8 278.599,278.6" style="fill:#ffffff;fill-opacity:1;fill-rule:nonzero;stroke:none" id="path20"></path>
        </g>
      </g>
    </g>
  </g>
</svg>
