<?xml version="1.0" encoding="UTF-8"?>
<!-- Generator: Adobe Illustrator 27.5.0, SVG Export Plug-In . SVG Version: 6.00 Build 0)  -->
<svg xmlns="http://www.w3.org/2000/svg" xmlns:xlink="http://www.w3.org/1999/xlink" version="1.1" id="Layer_1" x="0px" y="0px" viewBox="0 0 3145.5 1741.6" style="enable-background:new 0 0 3145.5 1741.6;" xml:space="preserve">
<style type="text/css">
	.st0{fill:url(#SVGID_1_);stroke:#000000;stroke-width:4.5;stroke-miterlimit:10;}
	
		.st1{fill:url(#SVGID_00000022521237344340401000000015085573487132838327_);stroke:#000000;stroke-width:4.5;stroke-miterlimit:10;}
	
		.st2{fill:url(#SVGID_00000085948019374303626190000008360569357263802809_);stroke:#000000;stroke-width:4.5;stroke-miterlimit:10;}
	
		.st3{fill:url(#SVGID_00000018221201078873713960000001982120159165136828_);stroke:#000000;stroke-width:4.5;stroke-miterlimit:10;}
	.st4{fill:none;stroke:#000000;stroke-width:4.5;stroke-miterlimit:10;}
	
		.st5{fill:url(#SVGID_00000013190013500579837710000001425303338483840909_);stroke:#000000;stroke-width:4.5;stroke-miterlimit:10;}
	
		.st6{fill:url(#SVGID_00000181081606819127318930000013325172588497529728_);stroke:#000000;stroke-width:4.5;stroke-miterlimit:10;}
	.st7{fill:#9B5F17;stroke:#000000;stroke-width:4.5;stroke-miterlimit:10;}
	.st8{fill:#4A4F54;stroke:#000000;stroke-width:4.5;stroke-miterlimit:10;}
</style>
<g>
	
		<linearGradient id="SVGID_1_" gradientUnits="userSpaceOnUse" x1="-617.7457" y1="3026.064" x2="2794.4573" y2="1.2403" gradientTransform="matrix(1 7.277248e-04 7.277248e-04 -1 -199.7565 1916.1711)">
		<stop offset="0" style="stop-color:#3C1F15"></stop>
		<stop offset="2.566624e-02" style="stop-color:#432519"></stop>
		<stop offset="6.890122e-02" style="stop-color:#553423"></stop>
		<stop offset="0.1244" style="stop-color:#774F31"></stop>
		<stop offset="0.1893" style="stop-color:#AF7841"></stop>
		<stop offset="0.2325" style="stop-color:#E09E4B"></stop>
		<stop offset="0.3925" style="stop-color:#935226"></stop>
		<stop offset="0.6216" style="stop-color:#EABE69"></stop>
		<stop offset="0.6606" style="stop-color:#FEF495"></stop>
		<stop offset="0.6728" style="stop-color:#EFDD83"></stop>
		<stop offset="0.7023" style="stop-color:#D9BA64"></stop>
		<stop offset="0.7334" style="stop-color:#C8A04C"></stop>
		<stop offset="0.7661" style="stop-color:#BD8D3C"></stop>
		<stop offset="0.8011" style="stop-color:#B58133"></stop>
		<stop offset="0.8401" style="stop-color:#B07A2E"></stop>
		<stop offset="0.8909" style="stop-color:#AF782D"></stop>
		<stop offset="1" style="stop-color:#754D29"></stop>
	</linearGradient>
	<path class="st0" d="M1379.2,405.1c106-15,208.9,5.1,296.7,51.3c3.2,1.6,6.3,3.3,9.4,5c-31-21.9-64.4-40.5-99.6-55.4l14.6-64.7   c0.6-15.4-9.5-26.1-19.9-26.5l-155.4-31.6c-15.7-0.5-26.4,9.4-26.8,19.7l-13.7,60.8c-26.6-0.3-53.7,1.4-80.8,5.3   c-25.6,3.6-50.5,9.1-74.6,16.1l-34.4-58.9c-4.9-10.5-20.4-16.2-31-11.5l-138.8,82.8c-10.7,4.7-11.2,20.2-6.4,30.7l28.5,51.5   c-41.9,33.6-84.9,80-114.6,124.2l-92.1,0.4l-467.5,47l447.3,0.3l201.2,0.1c9-16.4,18.9-32.1,29.7-47.3   C1125,500,1241,424.7,1379.2,405.1z"></path>
	
		<linearGradient id="SVGID_00000100384991986510788640000002635352748520991144_" gradientUnits="userSpaceOnUse" x1="1842.6819" y1="3049.8345" x2="5359.0381" y2="-67.318" gradientTransform="matrix(-1 -7.277248e-04 7.277248e-04 -1 5814.1265 1920.5477)">
		<stop offset="0" style="stop-color:#000000"></stop>
		<stop offset="2.808387e-02" style="stop-color:#0A0A0A"></stop>
		<stop offset="7.537761e-02" style="stop-color:#242424"></stop>
		<stop offset="0.1361" style="stop-color:#4F4F4F"></stop>
		<stop offset="0.2071" style="stop-color:#898989"></stop>
		<stop offset="0.2325" style="stop-color:#A0A0A0"></stop>
		<stop offset="0.3925" style="stop-color:#282828"></stop>
		<stop offset="0.6216" style="stop-color:#C2C2C2"></stop>
		<stop offset="0.6606" style="stop-color:#F0F0F0"></stop>
		<stop offset="0.6754" style="stop-color:#DBDBDB"></stop>
		<stop offset="0.7045" style="stop-color:#B7B7B7"></stop>
		<stop offset="0.7353" style="stop-color:#999999"></stop>
		<stop offset="0.7676" style="stop-color:#828282"></stop>
		<stop offset="0.8022" style="stop-color:#717171"></stop>
		<stop offset="0.8407" style="stop-color:#686868"></stop>
		<stop offset="0.8909" style="stop-color:#656565"></stop>
		<stop offset="1" style="stop-color:#0C0C0C"></stop>
	</linearGradient>
	
		<path style="fill:url(#SVGID_00000100384991986510788640000002635352748520991144_);stroke:#000000;stroke-width:4.5;stroke-miterlimit:10;" d="   M1031.3,1092.2c5.2,16,11,31.8,17.3,47.4c86.1,212.3,277,377.7,521.4,422.2c151.3,27.6,300.1,4.4,428.8-56.9   c4.6-2.2,9.3-4.3,13.8-6.6c-45.8,29.7-94.8,54.5-146.2,74l17.3,93.7c-0.1,22.1-15.1,36.9-30.1,36.9l-225,36.4   c-22.5-0.2-37.3-15-37.3-29.8l-16.3-88.1c-38.2-1.1-76.9-5-115.7-12.1c-36.5-6.7-71.9-15.9-106.2-27.4l-52.8,82.6   c-7.6,14.8-30.2,22.1-45.2,14.7l-194.3-126.7c-15-7.3-14.9-29.6-7.4-44.3l43.9-72.3c-58.2-50.6-108.1-109.7-148.1-174.9l-91.7,31.8   c-14.9,7.3-37.4-0.1-37.3-14.9l-52.7-138.5l-395.3-47.6l377.3,0.3L1031.3,1092.2z"></path>
	
		<linearGradient id="SVGID_00000017487223339120559320000004250257368944099236_" gradientUnits="userSpaceOnUse" x1="-517.5031" y1="3721.762" x2="3255.4971" y2="377.1013" gradientTransform="matrix(1 7.277248e-04 7.277248e-04 -1 -199.7565 1916.1711)">
		<stop offset="0" style="stop-color:#000000"></stop>
		<stop offset="2.808387e-02" style="stop-color:#0A0A0A"></stop>
		<stop offset="7.537761e-02" style="stop-color:#242424"></stop>
		<stop offset="0.1361" style="stop-color:#4F4F4F"></stop>
		<stop offset="0.2071" style="stop-color:#898989"></stop>
		<stop offset="0.2325" style="stop-color:#A0A0A0"></stop>
		<stop offset="0.3925" style="stop-color:#282828"></stop>
		<stop offset="0.6216" style="stop-color:#C2C2C2"></stop>
		<stop offset="0.6606" style="stop-color:#F0F0F0"></stop>
		<stop offset="0.6754" style="stop-color:#DBDBDB"></stop>
		<stop offset="0.7045" style="stop-color:#B7B7B7"></stop>
		<stop offset="0.7353" style="stop-color:#999999"></stop>
		<stop offset="0.7676" style="stop-color:#828282"></stop>
		<stop offset="0.8022" style="stop-color:#717171"></stop>
		<stop offset="0.8407" style="stop-color:#686868"></stop>
		<stop offset="0.8909" style="stop-color:#656565"></stop>
		<stop offset="1" style="stop-color:#0C0C0C"></stop>
	</linearGradient>
	
		<path style="fill:url(#SVGID_00000017487223339120559320000004250257368944099236_);stroke:#000000;stroke-width:4.5;stroke-miterlimit:10;" d="   M2359.5,605.6l-58.3-151.4c-0.2-14.8-22.6-22.1-37.6-14.8l-89.4,30.2c-39.8-64.4-89-121.9-145.4-171l51.3-77.2   c6.6-15.2-2-37.1-11.8-48.4L1865.7,60.2c-9.5-11.4-31.6-2.8-38.3,12.3l-48.6,81.2c-72.5-25.2-149.5-39.8-228.7-42l-12.8-79.6   c-3.9-16.1-18.3-33.2-34.5-29.3l-231.3,26.5c-16.3,3.9-28.8,23.8-25,40l12.4,91c-73.3,27.5-140.5,65.6-200,112.3   c-22.8,17.8-44.4,36.8-64.9,57c87-68.5,191.8-117.4,308.9-138.6c329.4-59.5,646.8,120.3,769.9,414.3c6.5,15.5,12.6,31.2,17.9,47.4   l287.1,0.2l374.8,0.3L2359.5,605.6z"></path>
	
		<linearGradient id="SVGID_00000091716764762579582040000008521504615706538939_" gradientUnits="userSpaceOnUse" x1="1513.2845" y1="2708.2014" x2="5113.499" y2="-483.2892" gradientTransform="matrix(-1 -7.277248e-04 7.277248e-04 -1 5814.1265 1920.5477)">
		<stop offset="0" style="stop-color:#3C1F15"></stop>
		<stop offset="2.566624e-02" style="stop-color:#432519"></stop>
		<stop offset="6.890122e-02" style="stop-color:#553423"></stop>
		<stop offset="0.1244" style="stop-color:#774F31"></stop>
		<stop offset="0.1893" style="stop-color:#AF7841"></stop>
		<stop offset="0.2325" style="stop-color:#E09E4B"></stop>
		<stop offset="0.3925" style="stop-color:#935226"></stop>
		<stop offset="0.6216" style="stop-color:#EABE69"></stop>
		<stop offset="0.6606" style="stop-color:#FEF495"></stop>
		<stop offset="0.6728" style="stop-color:#EFDD83"></stop>
		<stop offset="0.7023" style="stop-color:#D9BA64"></stop>
		<stop offset="0.7334" style="stop-color:#C8A04C"></stop>
		<stop offset="0.7661" style="stop-color:#BD8D3C"></stop>
		<stop offset="0.8011" style="stop-color:#B58133"></stop>
		<stop offset="0.8401" style="stop-color:#B07A2E"></stop>
		<stop offset="0.8909" style="stop-color:#AF782D"></stop>
		<stop offset="1" style="stop-color:#754D29"></stop>
	</linearGradient>
	
		<path style="fill:url(#SVGID_00000091716764762579582040000008521504615706538939_);stroke:#000000;stroke-width:4.5;stroke-miterlimit:10;" d="   M2093.9,1140.4c9.2-15.2,17.6-31,25.1-47.3l199.1,0.1l434.2,0.3l-450.5,47l-86.6,0.2c-26,45.8-68.1,100.2-106,135.8l37.7,52.4   c5,10.5-0.5,25.9-6.9,34l-138.1,83.6c-6.4,8.2-21.9,2.8-26.9-7.6l-35.9-55.2c-49.8,19.4-102.9,31.5-158,35l-6.9,55.7   c-2.3,11.3-11.9,23.5-23.3,21.3l-161.6-12.6c-11.4-2.3-20.6-15.8-18.4-27.2l6.3-63.6c-51.7-17.3-99.4-42.1-142.1-73.1   c-16.3-11.8-31.9-24.5-46.6-38c62.3,45.4,136.5,76.8,218.5,88.6C1807,1398.3,1996.2,1301.9,2093.9,1140.4z"></path>
	<g>
		<line class="st4" x1="2.2" y1="1007.6" x2="834.2" y2="1008.2"></line>
		
			<linearGradient id="SVGID_00000085933748230059264740000004608313785997199755_" gradientUnits="userSpaceOnUse" x1="-211.8048" y1="1526.2074" x2="2393.1321" y2="-413.9043" gradientTransform="matrix(1 7.277248e-04 7.277248e-04 -1 -199.7565 1916.1711)">
			<stop offset="0" style="stop-color:#000000"></stop>
			<stop offset="2.808387e-02" style="stop-color:#0A0A0A"></stop>
			<stop offset="7.537761e-02" style="stop-color:#242424"></stop>
			<stop offset="0.1361" style="stop-color:#4F4F4F"></stop>
			<stop offset="0.2071" style="stop-color:#898989"></stop>
			<stop offset="0.2325" style="stop-color:#A0A0A0"></stop>
			<stop offset="0.3925" style="stop-color:#282828"></stop>
			<stop offset="0.6216" style="stop-color:#C2C2C2"></stop>
			<stop offset="0.6606" style="stop-color:#F0F0F0"></stop>
			<stop offset="0.6754" style="stop-color:#DBDBDB"></stop>
			<stop offset="0.7045" style="stop-color:#B7B7B7"></stop>
			<stop offset="0.7353" style="stop-color:#999999"></stop>
			<stop offset="0.7676" style="stop-color:#828282"></stop>
			<stop offset="0.8022" style="stop-color:#717171"></stop>
			<stop offset="0.8407" style="stop-color:#686868"></stop>
			<stop offset="0.8909" style="stop-color:#656565"></stop>
			<stop offset="1" style="stop-color:#0C0C0C"></stop>
		</linearGradient>
		
			<rect x="2.2" y="1004" style="fill:url(#SVGID_00000085933748230059264740000004608313785997199755_);stroke:#000000;stroke-width:4.5;stroke-miterlimit:10;" width="831.9" height="7.8"></rect>
	</g>
	<g>
		<line class="st4" x1="2288.1" y1="1009.3" x2="3143.2" y2="1009.9"></line>
		
			<linearGradient id="SVGID_00000123437143031125774170000002247530353552440974_" gradientUnits="userSpaceOnUse" x1="608.8698" y1="2626.0559" x2="3213.8564" y2="685.9073" gradientTransform="matrix(1 7.277248e-04 7.277248e-04 -1 -199.7565 1916.1711)">
			<stop offset="0" style="stop-color:#000000"></stop>
			<stop offset="2.808387e-02" style="stop-color:#0A0A0A"></stop>
			<stop offset="7.537761e-02" style="stop-color:#242424"></stop>
			<stop offset="0.1361" style="stop-color:#4F4F4F"></stop>
			<stop offset="0.2071" style="stop-color:#898989"></stop>
			<stop offset="0.2325" style="stop-color:#A0A0A0"></stop>
			<stop offset="0.3925" style="stop-color:#282828"></stop>
			<stop offset="0.6216" style="stop-color:#C2C2C2"></stop>
			<stop offset="0.6606" style="stop-color:#F0F0F0"></stop>
			<stop offset="0.6754" style="stop-color:#DBDBDB"></stop>
			<stop offset="0.7045" style="stop-color:#B7B7B7"></stop>
			<stop offset="0.7353" style="stop-color:#999999"></stop>
			<stop offset="0.7676" style="stop-color:#828282"></stop>
			<stop offset="0.8022" style="stop-color:#717171"></stop>
			<stop offset="0.8407" style="stop-color:#686868"></stop>
			<stop offset="0.8909" style="stop-color:#656565"></stop>
			<stop offset="1" style="stop-color:#0C0C0C"></stop>
		</linearGradient>
		
			<rect x="2288.1" y="1005.7" style="fill:url(#SVGID_00000123437143031125774170000002247530353552440974_);stroke:#000000;stroke-width:4.5;stroke-miterlimit:10;" width="855.2" height="7.8"></rect>
	</g>
	<g>
		<path class="st7" d="M88.9,900H23.4l0.1-194.1H89l-0.1,71.3l134.4,0.1l0.1-71.3h65.9l-0.1,194.1h-65.9l0.1-75.9L89,824.1L88.9,900    z"></path>
		<path class="st7" d="M401.3,900.2h-65.6l0.1-194.1h65.6L401.3,900.2z"></path>
		<path class="st7" d="M517.7,853.4l142.9,0.1v46.9l-208.5-0.2l0.1-194.1h65.6L517.7,853.4z"></path>
		<path class="st7" d="M756.2,853.5l142.9,0.1v46.9l-208.5-0.2l0.1-194.1h65.6L756.2,853.5z"></path>
		<path class="st7" d="M1272,900.8l-203.4-0.1l0.1-194.1l193.3,0.1c24,0,42,4.5,53.8,13.5s17.7,22.6,17.7,40.8    c0,10.3-2.6,18.8-7.7,25.5c-5.1,6.6-13.2,11.8-24,15.6c13.6,2,23.4,6.7,29.7,14.2c6.2,7.4,9.4,18.1,9.3,32.1    c0,18.3-5.5,31.7-16.3,40C1313.8,896.7,1296.2,900.9,1272,900.8z M1249.3,782.3c5.5,0,9.7-1.4,12.5-4.1c2.9-2.7,4.3-6.7,4.3-11.9    c0-4.8-1.6-8.6-4.7-11.6s-7.2-4.4-12.2-4.4l-115.2-0.1v32.1H1249.3z M1255.2,856.8c5.8,0,10.2-1.5,13.3-4.6    c3.1-3.1,4.7-7.5,4.7-13.2c0-5.2-1.6-9.4-4.9-12.5s-7.6-4.6-13.1-4.6l-121.1-0.1v34.9L1255.2,856.8z"></path>
		<path class="st7" d="M1552.9,706.9c34,0,57.2,4.6,69.5,13.7c12.3,9.1,18.4,25.8,18.4,49.9c0,16.8-2.8,29.2-8.2,37.4    c-5.5,8.2-14.7,13.6-27.6,16.4c11.3,2.4,19.8,6.8,25.5,12.9c5.7,6.2,8.5,14.2,8.5,24V901h-65.6v-29.6c0-7.6-2-12.9-6-15.8    c-4-2.9-11.8-4.3-23.6-4.3l-97.8-0.1v49.7h-65.7l0.1-194.1L1552.9,706.9z M1550.4,755.3l-104.2-0.1v47.5l104.2,0.1    c8.7,0,14.9-1.8,18.4-5.5s5.3-10.4,5.3-20c0-7.6-1.9-13.2-5.6-16.7C1564.8,757,1558.8,755.3,1550.4,755.3z"></path>
		<path class="st7" d="M1784.4,903.6c-25.1,0-43.4-1.1-55.1-3.1c-11.6-2-21.1-5.6-28.4-10.5c-8.3-5.6-14.2-12.9-17.9-21.8    c-3.6-9-5.5-20.9-5.5-35.8v-52.9c0-16.3,1.8-29.1,5.5-38.6s9.6-17,17.9-22.5c7.2-4.9,16.8-8.3,28.8-10.4c12-2.1,30.1-3.1,54.4-3.1    l77.1,0.1c24.4,0,42.7,1.1,54.7,3.2c12.1,2.1,21.6,5.6,28.8,10.4c8,5.5,13.8,13,17.5,22.4c3.7,9.5,5.5,21.6,5.5,36.4v54.1    c0,14.9-1.9,27.1-5.6,36.4c-3.7,9.3-9.6,16.8-17.5,22.3c-7.2,4.9-16.7,8.4-28.6,10.5c-11.8,2-30.1,3-54.9,3L1784.4,903.6z     M1802.2,855.1h41.7c23.2,0,38.5-2.6,46.1-7.9c7.6-5.3,11.4-15,11.4-29.3v-27.5c0-14.3-3.8-24-11.4-29.3c-7.6-5.3-23-7.9-46.1-7.9    h-42c-23.6,0-39.1,2.6-46.5,7.9c-7.4,5.3-11,15.4-11.1,30.2v27c0,14,3.9,23.6,11.6,28.8C1763.8,852.4,1779.2,855.1,1802.2,855.1z"></path>
		<path class="st7" d="M2147.7,901.5h-65.5l0.1-146.5l-89.8-0.1v-47.6l245.1,0.2v47.6l-89.8-0.1L2147.7,901.5z"></path>
		<path class="st7" d="M2332.2,901.6h-65.5l0.1-194.1h65.5l-0.1,71.3l134.4,0.1l0.1-71.3h65.9l-0.1,194.1h-65.9l0.1-75.9l-134.4-0.1    L2332.2,901.6z"></path>
		<path class="st7" d="M2810.9,755.2l-169.1-0.1v29.3l159.3,0.1v40.8l-159.3-0.1v29.7l171.7,0.1v46.9l-237.2-0.2l0.1-194.1    l234.6,0.2L2810.9,755.2z"></path>
		<path class="st7" d="M3024.9,708c34,0,57.2,4.6,69.5,13.7c12.3,9.1,18.4,25.8,18.4,49.9c0,16.8-2.8,29.2-8.2,37.4    c-5.5,8.2-14.7,13.6-27.6,16.4c11.3,2.4,19.8,6.8,25.5,12.9c5.7,6.2,8.5,14.2,8.5,24v39.8h-65.6v-29.6c0-7.6-2-12.9-6-15.8    c-4-2.9-11.8-4.3-23.6-4.3l-97.8-0.1V902h-65.7l0.1-194.1L3024.9,708z M3022.4,756.4l-104.2-0.1v47.5l104.2,0.1    c8.7,0,14.9-1.8,18.4-5.5s5.3-10.4,5.3-20c0-7.6-1.9-13.2-5.6-16.7C3036.6,758.1,3030.6,756.4,3022.4,756.4z"></path>
	</g>
	<g>
		<path class="st7" d="M961.8,1062.4h-40.9l0.1-117.1H983l49.1,73.2l50-73.1h61.3l-0.1,117.1h-40.7l0.1-83.5l-57,83.4h-27.5    l-56.4-83.5L961.8,1062.4z"></path>
		<path class="st7" d="M1203.8,1062.6h-45.9l75.3-117.1h53.7l73.8,117.2h-46.2l-13.3-19.5l-83.9-0.1L1203.8,1062.6z M1233.2,1015    h52.9l-26.7-41.5L1233.2,1015z"></path>
		<path class="st7" d="M1503.2,987.9v-1.2c0-4.6-1.8-7.9-5.3-10s-9.2-3.2-16.9-3.2h-33.7c-14.4,0-23.7,1.5-27.8,4.4    c-4.1,3-6.2,9.2-6.2,18.6v16.3c0,8.4,2.3,14.2,6.8,17.4c4.6,3.2,13.6,4.7,27.1,4.7h24.4c13.4,0,22.2-1.1,26.3-3.4    c4.2-2.3,6.2-6.5,6.3-12.7v-1.3h42.7c0,0.2,0,0.4,0.1,0.9c0.2,3.4,0.3,6,0.3,7.6c0,7.5-1.1,13.7-3.3,18.6    c-2.2,4.9-5.7,8.8-10.5,11.7c-4.5,2.8-10.5,4.8-18,6s-18.5,1.8-33,1.8h-47c-14.4,0-25-0.7-31.7-2c-6.8-1.3-12.6-3.5-17.4-6.7    c-5.5-3.7-9.6-8.3-12.1-13.7c-2.5-5.4-3.8-12.3-3.8-20.6v-31.9c0-16.8,4.7-28.5,14.1-35.1s26.4-9.9,51-9.9h47    c15.1,0,26.2,0.6,33.4,1.8c7.2,1.2,12.8,3.1,16.9,5.8c4.4,2.8,7.6,6.7,9.7,11.5s3.1,10.8,3.1,18.1c0,1.7,0,3.1,0,4    s-0.1,1.8-0.2,2.6L1503.2,987.9z"></path>
		<path class="st7" d="M1612.5,1062.9h-42l0.1-117.1h42v43l86.2,0.1v-43h42.3L1741,1063h-42.3v-45.8l-86.2-0.1V1062.9z"></path>
		<path class="st7" d="M1813,1063.1h-42.1L1771,946h42.1L1813,1063.1z"></path>
		<path class="st7" d="M2029.2,1063.2h-61.6l-82.6-85.3l-0.1,85.2h-42L1843,946h62.3l82,86l0.1-85.9h41.9L2029.2,1063.2z"></path>
		<path class="st7" d="M2207.1,974.8l-108.5-0.1v17.7l102.2,0.1v24.6l-102.2-0.1v17.9l110.2,0.1v28.3l-152.2-0.1l0.1-117.1    l150.5,0.1L2207.1,974.8z"></path>
	</g>
	<g>
		<path class="st8" d="M1425.8,1143.6v-0.7c0-2.8-1.1-4.9-3.3-6.2c-2.2-1.3-5.6-2-10.4-2h-20.7c-8.9,0-14.6,0.9-17.1,2.7    c-2.5,1.8-3.8,5.6-3.8,11.4v10c0,5.2,1.4,8.8,4.2,10.7c2.8,1.9,8.4,2.9,16.7,2.9h15c8.2,0,13.6-0.7,16.2-2.1s3.8-4,3.8-7.8v-0.8    h26.2c0,0.1,0,0.3,0.1,0.5c0.1,2.1,0.2,3.7,0.2,4.7c0,4.6-0.7,8.4-2.1,11.4s-3.5,5.4-6.4,7.2c-2.8,1.7-6.5,3-11.1,3.7    s-11.4,1.1-20.3,1.1h-28.9c-8.8,0-15.3-0.4-19.5-1.2c-4.2-0.8-7.7-2.2-10.7-4.1c-3.4-2.3-5.9-5.1-7.4-8.4    c-1.6-3.3-2.3-7.5-2.3-12.6v-19.6c0-10.3,2.9-17.5,8.7-21.6c5.8-4.1,16.2-6.1,31.3-6.1h28.9c9.3,0,16.1,0.4,20.5,1.1    s7.9,1.9,10.4,3.6c2.7,1.7,4.7,4.1,5.9,7c1.3,2.9,1.9,6.6,1.9,11.1c0,1.1,0,1.9,0,2.4c0,0.6-0.1,1.1-0.1,1.6L1425.8,1143.6z"></path>
		<path class="st8" d="M1507.3,1190.5c-9.9,0-17.1-0.4-21.7-1.2c-4.6-0.8-8.3-2.1-11.2-3.9c-3.3-2.1-5.6-4.8-7-8.1    c-1.4-3.3-2.2-7.8-2.2-13.3v-19.6c0-6,0.7-10.8,2.2-14.3c1.4-3.5,3.8-6.3,7.1-8.4c2.8-1.8,6.6-3.1,11.3-3.9    c4.7-0.8,11.9-1.2,21.5-1.1h30.4c9.6,0,16.8,0.4,21.6,1.2c4.8,0.8,8.5,2.1,11.3,3.9c3.1,2,5.4,4.8,6.9,8.3s2.2,8,2.2,13.5v20.1    c0,5.5-0.7,10-2.2,13.5s-3.8,6.2-6.9,8.3c-2.8,1.8-6.6,3.1-11.3,3.9c-4.7,0.8-11.9,1.1-21.7,1.1H1507.3z M1514.3,1172.5h16.4    c9.1,0,15.2-1,18.2-2.9s4.5-5.6,4.5-10.8v-10.2c0-5.3-1.5-8.9-4.5-10.9s-9.1-2.9-18.2-2.9h-16.5c-9.3,0-15.4,1-18.3,2.9    c-2.9,2-4.4,5.7-4.4,11.2v10c0,5.2,1.5,8.8,4.6,10.7C1499.2,1171.6,1505.2,1172.5,1514.3,1172.5z"></path>
		<path class="st8" d="M1663.7,1117.8c13.4,0,22.5,1.7,27.4,5.1c4.8,3.4,7.3,9.6,7.3,18.5c0,6.2-1.1,10.8-3.3,13.9    c-2.2,3-5.8,5.1-10.9,6.1c4.5,0.9,7.8,2.5,10.1,4.8c2.2,2.3,3.4,5.3,3.3,8.9v14.7h-25.9v-11c0-2.8-0.8-4.8-2.4-5.9    s-4.7-1.6-9.3-1.6h-38.5v18.4h-25.9l0.1-72L1663.7,1117.8z M1662.8,1135.7h-41.1v17.6h41.1c3.4,0,5.9-0.7,7.3-2    c1.4-1.4,2.1-3.8,2.1-7.4c0-2.8-0.7-4.9-2.2-6.2C1668.3,1136.4,1665.9,1135.7,1662.8,1135.7z"></path>
		<path class="st8" d="M1779.9,1117.9c5.8,0,10.4,0.2,13.8,0.7s6.3,1.2,8.7,2.3c4.3,1.9,7.4,4.7,9.3,8.5s2.9,8.9,2.9,15.5    c0,9.9-1.9,16.8-5.8,20.9s-10.4,6.1-19.6,6.1h-48.3v17.9H1715l0.1-72L1779.9,1117.9z M1779,1135.8h-38.1v18.2h38.1    c3.4,0,5.9-0.7,7.3-2.1s2.1-4,2.1-7.7c0-2.9-0.7-5.1-2.2-6.4C1784.7,1136.5,1782.3,1135.8,1779,1135.8z"></path>
	</g>
	<g>
		<path class="st4" d="M1425.8,1143.5v-0.7c0-2.8-1.1-4.9-3.3-6.2c-2.2-1.3-5.6-2-10.4-2h-20.7c-8.9,0-14.6,0.9-17.1,2.7    c-2.5,1.8-3.8,5.6-3.8,11.4v10c0,5.2,1.4,8.8,4.2,10.7c2.8,1.9,8.4,2.9,16.7,2.9h15c8.2,0,13.6-0.7,16.2-2.1s3.8-4,3.8-7.8v-0.8    h26.2c0,0.1,0,0.3,0.1,0.5c0.1,2.1,0.2,3.7,0.2,4.7c0,4.6-0.7,8.4-2.1,11.4s-3.5,5.4-6.4,7.2c-2.8,1.7-6.5,3-11.1,3.7    s-11.4,1.1-20.3,1.1H1384c-8.8,0-15.3-0.4-19.5-1.2c-4.2-0.8-7.7-2.2-10.7-4.1c-3.4-2.3-5.9-5.1-7.4-8.4    c-1.6-3.3-2.3-7.5-2.3-12.6v-19.6c0-10.3,2.9-17.5,8.7-21.6c5.8-4.1,16.2-6.1,31.3-6.1h28.9c9.3,0,16.1,0.4,20.5,1.1    s7.9,1.9,10.4,3.6c2.7,1.7,4.7,4.1,5.9,7c1.3,3,1.9,6.6,1.9,11.1c0,1.1,0,1.9,0,2.4c0,0.6-0.1,1.1-0.1,1.6L1425.8,1143.5z"></path>
		<path class="st4" d="M1507.3,1190.5c-9.9,0-17.1-0.4-21.7-1.2c-4.6-0.8-8.3-2.1-11.2-3.9c-3.3-2.1-5.6-4.8-7-8.1    c-1.4-3.3-2.2-7.8-2.2-13.3v-19.6c0-6,0.7-10.8,2.2-14.3c1.4-3.5,3.8-6.3,7.1-8.4c2.8-1.8,6.6-3.1,11.3-3.9    c4.7-0.8,11.9-1.2,21.5-1.1h30.4c9.6,0,16.8,0.4,21.6,1.2c4.8,0.8,8.5,2.1,11.3,3.9c3.1,2,5.4,4.8,6.9,8.3s2.2,8,2.2,13.5v20.1    c0,5.5-0.7,10-2.2,13.5s-3.8,6.2-6.9,8.3c-2.8,1.8-6.6,3.1-11.3,3.9c-4.7,0.8-11.9,1.1-21.7,1.1H1507.3z M1514.3,1172.5h16.4    c9.1,0,15.2-1,18.2-2.9s4.5-5.6,4.5-10.8v-10.2c0-5.3-1.5-8.9-4.5-10.9s-9.1-2.9-18.2-2.9h-16.5c-9.3,0-15.4,1-18.3,2.9    c-2.9,2-4.4,5.7-4.4,11.2v10c0,5.2,1.5,8.8,4.6,10.7C1499.2,1171.5,1505.2,1172.5,1514.3,1172.5z"></path>
		<path class="st4" d="M1663.7,1117.8c13.4,0,22.5,1.7,27.4,5.1c4.8,3.4,7.3,9.6,7.3,18.5c0,6.2-1.1,10.8-3.3,13.9    c-2.2,3-5.8,5.1-10.9,6.1c4.5,0.9,7.8,2.5,10.1,4.8c2.2,2.3,3.4,5.3,3.3,8.9v14.7h-25.9v-11c0-2.8-0.8-4.8-2.4-5.9    s-4.7-1.6-9.3-1.6h-38.5v18.4h-25.9l0.1-72L1663.7,1117.8z M1662.8,1135.7h-41.1v17.6h41.1c3.4,0,5.9-0.7,7.3-2    c1.4-1.4,2.1-3.8,2.1-7.4c0-2.8-0.7-4.9-2.2-6.2C1668.3,1136.3,1665.9,1135.7,1662.8,1135.7z"></path>
		<path class="st4" d="M1779.9,1117.8c5.8,0,10.4,0.2,13.8,0.7s6.3,1.2,8.7,2.3c4.3,1.9,7.4,4.7,9.3,8.5s2.9,8.9,2.9,15.5    c0,9.9-1.9,16.8-5.8,20.9s-10.4,6.1-19.6,6.1h-48.3v17.9H1715l0.1-72L1779.9,1117.8z M1779,1135.8h-38.1v18.2h38.1    c3.4,0,5.9-0.7,7.3-2.1s2.1-4,2.1-7.7c0-2.9-0.7-5.1-2.2-6.4C1784.7,1136.4,1782.2,1135.8,1779,1135.8z"></path>
	</g>
</g>
</svg>
