<?xml version="1.0" encoding="UTF-8" standalone="no"?>
<svg xmlns="http://www.w3.org/2000/svg" xmlns:xlink="http://www.w3.org/1999/xlink" version="1.1" width="511.91999pt" height="313.79609pt" viewBox="0 0 511.91999 313.79609">
  <g>
    <g>
      <clipPath id="cp0">
        <path transform="matrix(1,0,0,-1,0,314)" d="M 0 0 L 512 0 L 512 314 L 0 314 Z "></path>
      </clipPath>
      <g clip-path="url(#cp0)">
        <path transform="matrix(1,0,0,-1,0,314)" d="M 452.809 87.629 L 1397.676 87.629 L 1397.676 83.699 L 452.809 83.699 Z " fill="#5a5758"></path>
        <path transform="matrix(1,0,0,-1,0,314)" d="M -885.754 87.629 L 59.112977 87.629 L 59.112977 83.699 L -885.754 83.699 Z " fill="#5a5758"></path>
        <path transform="matrix(1,0,0,-1,0,314)" d="M 323.957 313.941 L 255.965 182.465 L 187.965 313.949 L 113.25 314 L 113.25 83.574 L 166.191 83.574 L 166.191 246.879 L 216.582 150.43 C 198.477 143.281 184.676 130 184.676 108.301 C 184.676 79.859 213.43 72.969 241.25 66.297 L 244.297 65.566 C 275.012 58.105 284.27 55.855 284.27 46.344 C 284.27 31.844 265.52 30.719 259.777 30.719 C 244.805 30.719 235.43 34.805 231.902 42.848 C 230.703 45.516 230.094 48.668 229.914 51.949 L 177.789 51.949 C 179.871 1.766 247.234 .203 255 .203 C 274.094 .203 336.391 3.895 336.391 51.27 C 336.391 78.492 311.469 88.039 287.082 93.789 L 271.008 97.258 C 250.715 101.438 234.68 104.734 233.781 114.57 C 233.777 125.84 250.223 126.691 255.254 126.691 C 259.191 126.691 266.645 126.164 272.422 122.598 C 277.371 119.793 279.941 115.84 279.941 111.094 C 279.941 110.945 279.906 110.77 279.895 110.617 L 328.656 110.617 C 327.035 133.137 312.664 145.027 295.711 151.133 L 345.719 246.871 L 345.719 83.574 L 398.676 83.574 L 398.676 314 L 323.957 313.941 " fill="#00a880"></path>
      </g>
    </g>
  </g>
</svg>
