<?xml version="1.0" encoding="UTF-8" standalone="no"?>
<!-- Created with Inkscape (http://www.inkscape.org/) -->
<svg xmlns:inkscape="http://www.inkscape.org/namespaces/inkscape" xmlns:sodipodi="http://sodipodi.sourceforge.net/DTD/sodipodi-0.dtd" xmlns="http://www.w3.org/2000/svg" xmlns:svg="http://www.w3.org/2000/svg" version="1.1" id="svg2" xml:space="preserve" width="584.01331" height="186.60001" viewBox="0 0 584.01331 186.60001" sodipodi:docname="OSU_horizontal_2C_O_over_W.eps">
  <defs id="defs6"></defs>
  <g id="g8" inkscape:groupmode="layer" inkscape:label="ink_ext_XXXXXX" transform="matrix(1.3333333,0,0,-1.3333333,0,186.6)">
    <g id="g10" transform="scale(0.1)">
      <path d="m 1538.73,285.43 c 0,-97.821 -64.99,-147.399 -150.08,-147.399 -90.45,0 -152.76,36.18 -152.76,140.028 v 223.789 l -49.58,15.41 4.69,21.437 h 151.42 l 5.36,-21.437 -50.25,-15.41 V 287.441 c 0,-76.382 32.16,-111.89 96.48,-111.89 62.32,0 105.19,35.508 105.19,116.578 v 209.719 l -50.25,15.41 5.37,21.437 h 129.3 l 5.36,-21.437 -50.25,-15.41 V 285.43" style="fill:#ffffff;fill-opacity:1;fill-rule:nonzero;stroke:none" id="path12"></path>
      <path d="m 1883.77,164.16 -8.71,-19.43 h -128.63 v 18.758 l 31.48,11.391 v 165.492 c 0,42.879 -26.8,51.59 -49.58,51.59 -26.8,0 -52.93,-13.402 -68.34,-26.801 V 176.891 l 46.9,-12.731 -8.71,-19.43 h -128.64 v 18.758 l 31.49,10.723 V 369.18 l -32.16,36.179 v 7.371 l 80.4,30.825 h 10.05 l -2.02,-56.953 h 2.69 c 26.81,44.218 67.67,56.953 97.82,56.953 38.86,0 79.06,-23.453 79.06,-91.793 V 176.891 l 46.9,-12.731" style="fill:#ffffff;fill-opacity:1;fill-rule:nonzero;stroke:none" id="path14"></path>
      <path d="m 1951.43,572.867 c 23.45,0 41.54,-18.094 41.54,-41.543 0,-23.449 -18.09,-41.539 -41.54,-41.539 -23.45,0 -41.55,18.09 -41.55,41.539 0,23.449 18.1,41.543 41.55,41.543 z m 77.05,-408.707 -8.72,-19.43 h -128.63 v 18.758 l 31.49,10.723 V 369.18 l -32.16,36.179 v 7.371 l 80.4,30.825 h 10.72 V 176.891 l 46.9,-12.731" style="fill:#ffffff;fill-opacity:1;fill-rule:nonzero;stroke:none" id="path16"></path>
      <path d="m 2231.48,402.68 -44.22,14.742 4.02,19.43 h 108.54 l 4.03,-19.43 -30.82,-12.731 -101.85,-259.961 h -33.5 l -106.53,256.614 -28.82,18.09 4.7,17.418 h 123.28 l 4.69,-20.098 -42.88,-10.723 46.9,-117.922 c 16.08,-40.199 24.12,-81.07 24.12,-81.07 h 2.68 c 0,0 8.71,40.199 24.78,81.742 l 40.88,113.899" style="fill:#ffffff;fill-opacity:1;fill-rule:nonzero;stroke:none" id="path18"></path>
      <path d="m 2342.03,332.332 h 122.61 c 0.67,4.688 0.67,13.398 0.67,18.09 0,42.207 -16.76,64.32 -51.6,64.32 -32.15,0 -62.3,-25.461 -71.68,-82.41 z m 88.44,-150.754 c 32.83,0 56.28,8.711 83.08,27.473 l 8.71,-15.41 c -24.12,-36.852 -58.3,-55.61 -109.88,-55.61 -71.7,0 -128.65,49.578 -128.65,150.078 0,99.832 62.99,155.446 138.03,155.446 60.3,0 103.84,-37.524 103.84,-105.196 0,-10.718 -0.66,-22.109 -3.34,-34.839 h -182.24 c 0,-77.051 34.16,-121.942 90.45,-121.942" style="fill:#ffffff;fill-opacity:1;fill-rule:nonzero;stroke:none" id="path20"></path>
      <path d="m 2687.07,164.832 -8.71,-20.102 h -142.04 v 18.758 l 31.49,10.723 V 369.18 l -32.17,36.179 v 7.371 l 80.41,30.825 h 10.04 l -2,-69.016 h 2.68 c 16.75,37.524 46.9,69.684 85.08,69.684 31.51,0 49.59,-17.422 49.59,-43.547 0,-26.805 -18.08,-40.875 -38.86,-40.875 -24.12,0 -38.19,17.418 -38.19,40.875 -22.78,-8.715 -40.87,-28.817 -57.62,-53.606 V 176.891 l 60.3,-12.059" style="fill:#ffffff;fill-opacity:1;fill-rule:nonzero;stroke:none" id="path22"></path>
      <path d="m 2778.86,239.199 c 28.13,-60.301 54.26,-75.711 90.46,-75.711 30.13,0 50.24,10.723 50.24,42.211 0,25.461 -14.74,39.531 -48.24,50.922 l -38.2,13.399 c -40.19,14.07 -66.32,38.859 -66.32,88.441 0,57.625 41.54,85.094 97.82,85.094 13.4,0 40.2,-4.692 53.6,-12.063 l 32.16,11.391 5.36,-85.762 -14.07,-4.691 c -28.81,49.582 -52.26,63.656 -81.07,63.656 -28.14,0 -45.56,-16.086 -45.56,-40.207 0,-24.117 12.06,-39.527 44.88,-50.918 l 38.2,-12.731 c 44.22,-15.41 71.68,-38.859 71.68,-89.781 0,-59.629 -44.88,-84.418 -104.51,-84.418 -27.48,0 -50.25,8.028 -66.33,15.41 l -30.15,-15.41 -6.04,96.481 16.09,4.687" style="fill:#ffffff;fill-opacity:1;fill-rule:nonzero;stroke:none" id="path24"></path>
      <path d="m 3048.18,572.867 c 23.46,0 41.55,-18.094 41.55,-41.543 0,-23.449 -18.09,-41.539 -41.55,-41.539 -23.44,0 -41.54,18.09 -41.54,41.539 0,23.449 18.1,41.543 41.54,41.543 z m 77.05,-408.707 -8.71,-19.43 h -128.63 v 18.758 l 31.48,10.723 V 369.18 l -32.15,36.179 v 7.371 l 80.4,30.825 h 10.72 V 176.891 l 46.89,-12.731" style="fill:#ffffff;fill-opacity:1;fill-rule:nonzero;stroke:none" id="path26"></path>
      <path d="m 3110.49,424.121 83.75,92.461 h 13.4 v -79.73 h 97.82 l -4.7,-31.493 h -93.12 V 231.16 c 0,-37.519 16.07,-52.93 44.21,-52.93 18.77,0 34.18,4.02 54.28,14.071 l 6.7,-16.75 c -22.11,-24.121 -47.58,-37.52 -91.12,-37.52 -44.89,0 -73.04,23.438 -73.04,83.078 v 184.25 h -38.18 v 18.762" style="fill:#ffffff;fill-opacity:1;fill-rule:nonzero;stroke:none" id="path28"></path>
      <path d="m 3306.11,401.344 -28.81,18.09 4.69,17.418 h 123.96 l 4.68,-20.098 -42.88,-10.723 47.58,-125.961 c 18.75,-50.25 22.11,-85.09 22.11,-85.09 h 2.68 c 0,0 11.38,42.879 25.46,85.758 l 39.53,121.942 -44.23,14.742 4.02,19.43 h 107.21 l 4.02,-19.43 -30.82,-12.731 -93.13,-253.929 C 3409.96,36.1914 3374.45,0 3319.51,0 c -34.84,0 -53.59,20.1016 -53.59,45.5703 0,24.1094 14.73,38.8516 38.18,38.8516 20.77,0 34.17,-14.7422 34.17,-34.1719 0,-10.0391 -3.35,-18.0898 -6.7,-22.7695 26.81,0 61.64,48.9101 80.4,107.1995 l -105.86,266.664" style="fill:#ffffff;fill-opacity:1;fill-rule:nonzero;stroke:none" id="path30"></path>
      <path d="m 1074.57,914.098 c -8.32,48.164 -20.23,87.292 -36.43,119.632 -14.01,27.98 -31.42,50.78 -51.734,67.77 -28.39,23.74 -62.59,36.28 -98.886,36.28 -17.278,0 -34.004,-2.34 -49.825,-6.88 l 53.36,114.22 -109.063,77.47 h -78.594 c -13.371,0 -28.046,10.16 -46.632,23.02 -32.86,22.73 -77.86,53.87 -153.868,53.87 -64.257,0 -114.941,-17.88 -154.96,-54.66 0,0 -259.8442,-253.49 -261.27,-254.9 H 86.6602 C 71.5625,1074.54 58.3398,1055.64 47.3633,1033.73 31.1719,1001.39 19.2461,962.262 10.9375,914.098 -6.47656,813.242 -3.03906,712.48 20.8672,622.715 46.6797,525.859 93.8359,432.91 161.035,346.449 243.152,240.781 355.488,144.781 494.93,61.1094 l 47.824,-28.711 47.82,28.711 C 730.02,144.789 842.363,240.789 924.473,346.449 c 67.195,86.461 114.357,179.41 140.157,276.266 23.91,89.765 27.35,190.523 9.94,291.383" style="fill:#ffffff;fill-opacity:1;fill-rule:nonzero;stroke:none" id="path32"></path>
      <path d="M 465.938,1021.18 H 320.984 L 307.949,803.012 c 7.957,-1.199 15.742,-3.535 23.067,-6.949 l 134.922,225.117" style="fill:#231f20;fill-opacity:1;fill-rule:nonzero;stroke:none" id="path34"></path>
      <path d="m 353.27,526.34 c -0.399,0.187 -0.809,0.383 -1.2,0.574 v -17.703 c 2.313,-1.074 4.707,-2.133 7.196,-3.137 11.105,-4.48 24.464,-8.023 45.05,-8.023 22.5,0 36.368,4.219 48.075,9.289 v 17.582 c -12.149,-5.766 -24.559,-10.875 -48.075,-10.875 -21.574,0 -33.789,4.297 -45.05,9.461 -2.012,0.926 -3.993,1.875 -5.996,2.832" style="fill:#231f20;fill-opacity:1;fill-rule:nonzero;stroke:none" id="path36"></path>
      <path d="m 359.266,458.516 c -2.012,0.925 -3.993,1.875 -5.996,2.832 -0.399,0.191 -0.809,0.382 -1.2,0.578 v -17.707 c 2.313,-1.074 4.707,-2.129 7.196,-3.133 11.105,-4.484 24.464,-8.027 45.05,-8.027 15.801,0 27.332,2.089 36.864,5.086 v 16.933 c -9.317,-3.496 -20.34,-6.019 -36.864,-6.019 -21.574,0 -33.789,4.296 -45.05,9.457" style="fill:#231f20;fill-opacity:1;fill-rule:nonzero;stroke:none" id="path38"></path>
      <path d="m 359.266,393.648 c -2.012,0.922 -3.993,1.872 -5.996,2.832 -0.399,0.192 -0.809,0.379 -1.2,0.571 v -17.699 c 2.313,-1.071 4.707,-2.133 7.196,-3.133 11.105,-4.489 24.464,-8.028 45.05,-8.028 8.211,0 15.254,0.571 21.485,1.539 v 16.231 c -6.074,-1.109 -13.059,-1.781 -21.485,-1.781 -21.574,0 -33.789,4.308 -45.05,9.468" style="fill:#231f20;fill-opacity:1;fill-rule:nonzero;stroke:none" id="path40"></path>
      <path d="m 522.234,1321.74 c 12.043,-2.56 23.653,-6.5 34.582,-11.93 10.946,-5.4 21.258,-12.12 31.426,-19.53 15.067,-10.89 30.301,-23.51 48.184,-33.47 v 27.03 c -12.278,6.73 -24.504,14.89 -37.278,22.8 -11.171,6.9 -23.007,13.41 -35.566,18.44 -12.527,5.07 -25.769,8.44 -39.051,10.21 -13.293,1.76 -26.691,1.87 -39.758,0.82 -0.761,-0.06 -1.523,-0.16 -2.285,-0.23 v -10.59 c 0.899,0 1.789,0.05 2.676,0.05 12.598,0.05 25.02,-1.04 37.07,-3.6" style="fill:#231f20;fill-opacity:1;fill-rule:nonzero;stroke:none" id="path42"></path>
      <path d="M 1027.1,632.715 C 1012,576.051 989.109,520.723 958.77,467.309 v -0.004 c -1.563,-2.742 -3.165,-5.473 -4.766,-8.203 -1.191,-2.051 -2.383,-4.098 -3.606,-6.141 -1.57,-2.629 -3.164,-5.258 -4.773,-7.879 -1.379,-2.25 -2.785,-4.496 -4.191,-6.742 -1.512,-2.41 -3.016,-4.828 -4.559,-7.235 -2.773,-4.328 -5.598,-8.64 -8.477,-12.941 -1.113,-1.66 -2.257,-3.305 -3.378,-4.961 -2.161,-3.16 -4.317,-6.316 -6.524,-9.465 -1.269,-1.804 -2.551,-3.601 -3.84,-5.41 -2.254,-3.156 -4.539,-6.316 -6.855,-9.476 -1.141,-1.551 -2.274,-3.102 -3.426,-4.661 -3.437,-4.613 -6.914,-9.203 -10.469,-13.781 -0.031,-0.039 -0.07,-0.082 -0.097,-0.129 -3.301,-4.242 -6.731,-8.453 -10.129,-12.66 C 846.27,311.281 802.754,266.852 753.262,224.602 716.746,193.449 676.953,163.5 634.148,134.801 613.641,121.051 592.5,107.559 570.586,94.4102 L 542.754,77.7109 v 0 0 L 514.91,94.4102 C 379.609,175.621 270.859,268.43 191.699,370.281 c -2.316,2.969 -4.543,5.969 -6.797,8.957 -1.523,2.012 -3.078,4.012 -4.582,6.024 -2.754,3.707 -5.429,7.449 -8.105,11.179 -0.945,1.309 -1.914,2.618 -2.852,3.93 -3.035,4.297 -6.004,8.617 -8.953,12.945 -0.488,0.731 -1.008,1.454 -1.504,2.188 -3.222,4.769 -6.367,9.562 -9.472,14.367 -0.168,0.266 -0.344,0.527 -0.52,0.793 -41.551,64.613 -71.9218,132.316 -90.5077,202.051 -22.4805,84.39 -25.6641,179.402 -9.1875,274.773 5.3593,31.082 12.2851,57.782 20.9062,80.965 2.6484,-17.121 9.3555,-32.91 19.082,-46.383 -3.164,-12.386 -5.957,-25.492 -8.4648,-40.023 -3.9258,-22.746 -6.6914,-45.41 -8.2813,-67.914 L 223.016,763.785 c 2.531,4.035 5.285,7.926 8.457,11.457 2.285,2.571 4.757,4.946 7.324,7.207 l -91.035,118.719 c 9.199,-2.559 18.867,-3.961 28.867,-3.961 7.199,0 14.238,0.789 21.086,2.152 l 61.902,-103.273 c 7.324,3.406 15.117,5.699 23.078,6.91 l -9.25,154.723 c 3.137,6.426 5.735,13.195 7.571,20.328 l 21.972,72.483 0.809,2.65 h 482.297 l 3.398,3.78 c 17.196,19.15 48.172,41.98 98.028,41.98 27.078,0 52.656,-9.42 73.972,-27.24 16.203,-13.55 30.305,-32.18 41.918,-55.36 14.47,-28.891 25.22,-64.488 32.88,-108.852 16.47,-95.371 13.29,-190.383 -9.19,-274.773 z m -768.166,351.23 c -8.875,-34.875 -38.633,-59.953 -73.895,-63.433 -2.773,-0.274 -5.566,-0.453 -8.41,-0.453 -44.891,0 -81.6602,35.039 -84.6368,79.187 -0.1289,1.904 -0.2852,3.804 -0.2852,5.734 0,23.27 9.68,45.57 26.797,61.82 1.816,1.7 82.844,80.82 82.844,80.82 h 82.547 v -81.33 z m 115.527,332.505 c 11.894,10.93 48.086,44.19 128.437,44.19 63.879,0 99.942,-24.96 131.77,-46.97 23.203,-16.06 43.242,-29.92 68.73,-29.92 h 66.2 l 72.558,-51.54 -30.039,-64.28 h -65.222 c -9.485,0.65 -18.829,4.07 -26.231,10.45 -9.297,7.82 -15.09,19.94 -16.094,33.11 h -11.457 c -0.41,-7.82 0.481,-15.89 3.008,-23.63 2.551,-7.84 6.777,-15.31 12.453,-21.63 2.481,-2.77 5.281,-5.29 8.25,-7.58 l -16.152,-34.59 44.465,-48.04 h -33.77 l -58.469,50.17 h -13.601 l 43.027,-50.17 h -86.445 l -49.941,49.94 h -29.766 c 5.965,13.43 9.48,27.88 10.086,42.43 0.137,2.66 0.129,5.33 0.109,7.99 l -0.578,7.96 -0.301,3.98 -0.675,3.93 -1.415,7.83 c -2.656,10.27 -6.152,20.33 -11.339,29.55 -5.215,9.14 -11.239,17.87 -18.739,25.21 l -2.715,2.83 -2.96,2.58 c -1.993,1.69 -3.907,3.47 -5.957,5.07 -4.278,3 -8.399,6.21 -13.016,8.64 -13.938,8.29 -29.688,13.01 -45.625,14.61 -4.57,0.46 -9.152,0.71 -13.711,0.66 v -6.51 -4.56 c 18.504,-0.78 36.797,-5.99 52.039,-16.16 3.957,-2.31 7.395,-5.34 10.988,-8.11 1.727,-1.49 3.301,-3.14 4.961,-4.69 l 2.461,-2.35 2.215,-2.58 c 6.191,-6.65 10.938,-14.47 15.012,-22.45 4.031,-8.07 6.504,-16.75 8.34,-25.46 l 0.828,-6.65 0.422,-3.31 0.066,-3.34 0.156,-6.67 c -0.097,-2.23 -0.195,-4.45 -0.429,-6.66 -1.641,-17.67 -8.29,-34.62 -18.778,-48.59 l -13.527,-18.03 h 62.383 l 27.082,-27.09 H 306.746 v 94.45 H 224.773 Z M 1058.81,911.379 c -8.05,46.601 -19.48,84.273 -34.96,115.191 -13.03,26 -29.077,47.09 -47.698,62.66 -25.48,21.3 -56.125,32.57 -88.632,32.57 -43.575,0 -82.903,-16.17 -111.36,-45.64 l -48.281,52.15 7.832,16.76 h 65.734 l -7.843,-16.79 h 25.226 l 52.098,111.53 -94.031,66.79 h -73.497 c -18.351,0 -34.855,11.41 -55.734,25.86 -32.859,22.74 -73.75,51.03 -144.766,51.03 -60.058,0 -107.128,-16.42 -144.14,-50.44 L 192.051,1170.47 h -0.012 c 0,0 -93.6913,-91.45 -93.9648,-91.76 -13.875,-14.12 -26.1015,-31.56 -36.414,-52.14 C 46.1797,995.652 34.7344,957.98 26.6875,911.379 9.66797,812.777 12.9961,714.387 36.3281,626.832 61.582,532.051 107.781,441.02 173.66,356.262 254.551,252.172 365.418,157.48 503.152,74.8203 l 39.602,-23.7695 39.59,23.7695 c 137.742,82.6597 248.601,177.3397 329.5,281.4417 65.879,84.758 112.086,175.789 137.336,270.57 23.33,87.555 26.66,185.945 9.63,284.547" style="fill:#231f20;fill-opacity:1;fill-rule:nonzero;stroke:none" id="path44"></path>
      <path d="m 775.098,1225.23 c 6.816,0 12.332,5.53 12.332,12.34 0,6.82 -5.516,12.34 -12.332,12.34 -6.817,0 -12.344,-5.52 -12.344,-12.34 0,-6.81 5.527,-12.34 12.344,-12.34" style="fill:#231f20;fill-opacity:1;fill-rule:nonzero;stroke:none" id="path46"></path>
      <path d="m 704.559,1231.11 c 0,0 0.019,0.08 0.05,0.21 0.45,1.91 4.356,16.39 19.09,18.86 v 11.7 h -30.722 v -30.77 h 11.582" style="fill:#231f20;fill-opacity:1;fill-rule:nonzero;stroke:none" id="path48"></path>
      <path d="m 621.758,573.734 c 13.875,-6.66 29.59,-14.207 59.441,-14.207 20.235,0 33.977,3.469 45.051,7.778 0.145,0.058 0.301,0.113 0.449,0.172 5.086,2 9.61,4.171 13.953,6.257 0.274,0.133 0.547,0.258 0.821,0.391 2.558,1.227 5.07,2.418 7.629,3.535 0.429,0.195 0.867,0.387 1.308,0.578 l 28.36,-21.347 V 322.898 c -0.032,-0.027 -0.059,-0.058 -0.079,-0.089 l -14.277,11.953 v 214.054 l -15.996,12.039 V 338.5 c -5.879,-2.172 -11.086,-4.629 -16.172,-7.07 -1.105,-0.532 -2.207,-1.051 -3.312,-1.578 -12.039,-5.704 -24.434,-10.711 -47.735,-10.711 -25.437,0 -37.879,5.968 -51.054,12.289 -13.907,6.679 -28.309,13.558 -56.192,13.84 l -1.609,21.039 -1.856,24.203 71.992,-35.672 -4.96,23.14 -33.516,156.508 26.746,-5.441 -9.754,45.051 c 0.254,-0.121 0.508,-0.243 0.762,-0.364 z m -157.988,0 c 0.253,0.121 0.496,0.243 0.75,0.36 l -9.735,-44.957 h 0.008 l -0.02,-0.094 26.739,5.445 -38.457,-179.636 71.652,35.5 -1.816,-24.133 -1.575,-20.957 c -27.722,-0.321 -42.089,-7.172 -55.957,-13.832 -13.164,-6.321 -25.613,-12.289 -51.043,-12.289 -23.3,0 -35.695,5.007 -47.746,10.711 -1.093,0.527 -2.195,1.046 -3.3,1.578 -5.086,2.441 -10.293,4.898 -16.172,7.07 v 222.355 l -0.684,-0.507 -15.312,-11.532 V 334.762 l -14.278,-11.953 c -0.027,0.031 -0.047,0.05 -0.078,0.082 v 70.988 11.387 151.625 l 28.359,21.347 c 0.442,-0.187 0.879,-0.383 1.309,-0.57 1.914,-0.848 3.809,-1.723 5.715,-2.625 0.906,-0.434 1.816,-0.867 2.734,-1.313 4.344,-2.085 8.875,-4.253 13.953,-6.253 0.149,-0.059 0.305,-0.114 0.45,-0.172 11.086,-4.309 24.816,-7.778 45.05,-7.778 29.852,0 45.575,7.547 59.454,14.207 z M 733.23,314.199 c 2.012,0.93 3.985,1.871 5.938,2.813 4.602,2.207 9.133,4.347 14.102,6.218 l 12.726,-10.652 c -3.527,-1.047 -6.769,-2.316 -10.078,-3.808 -0.324,-0.141 -0.656,-0.301 -0.977,-0.442 -1.906,-0.867 -3.839,-1.789 -5.89,-2.769 -0.879,-0.418 -1.758,-0.848 -2.645,-1.27 -15.129,-7.211 -32.843,-14.848 -65.207,-14.848 -34.277,0 -52.117,8.559 -67.871,16.118 -11.297,5.421 -19.687,9.441 -37.098,9.972 l -0.792,10.297 -0.262,3.422 c 23.418,-0.449 35.418,-6.18 48.054,-12.238 14.2,-6.821 28.887,-13.871 57.969,-13.871 25.071,0 39.446,5.238 52.031,11.058 z m -223.367,11.621 -0.773,-10.3 c -17.274,-0.551 -25.652,-4.559 -36.902,-9.961 -15.754,-7.559 -33.606,-16.118 -67.872,-16.118 -32.375,0 -50.078,7.637 -65.207,14.848 -0.886,0.422 -1.777,0.852 -2.644,1.27 -2.414,1.152 -4.66,2.222 -6.867,3.211 -0.332,0.16 -0.672,0.3 -1.016,0.449 -2.957,1.293 -5.898,2.422 -9.062,3.359 l 9.531,7.981 0.156,0.14 0.391,0.321 2.648,2.21 c 4.969,-1.871 9.5,-4.011 14.102,-6.218 1.953,-0.942 3.925,-1.883 5.937,-2.813 12.586,-5.82 26.961,-11.058 52.031,-11.058 29.071,0 43.77,7.05 57.969,13.871 12.598,6.039 24.559,11.75 47.832,12.238 z m 46.7,46.02 5.234,-160.09 H 523.73 l 5.567,160.211 0.898,26.07 12.559,6.223 12.957,-6.426 z m 44.441,186.578 -25.789,5.25 v -0.008 l 35.449,-169.379 0.008,-0.051 v 0.008 l 0.012,-0.058 -67.93,27.398 -67.922,-27.398 0.012,0.058 v -0.008 l 35.457,169.442 -25.789,-5.25 v 0.008 0 l 33.718,161.14 v 0 l -19.5,-3.968 41.922,224.207 h 4.211 l 41.922,-224.207 -19.5,3.968 v 0 z m 95.801,292.934 -3.516,-2.559 -21.113,15.344 -21.113,-15.344 -3.516,2.559 8.066,24.816 -21.113,15.336 1.348,4.137 h 26.093 l 8.067,24.812 h 4.347 l 8.055,-24.812 h 26.094 l 1.348,-4.137 -21.114,-15.336 z m 118.039,43.121 -3.516,-2.555 -21.105,15.34 -21.114,-15.34 -3.515,2.555 8.058,24.812 -21.105,15.34 1.34,4.137 h 26.093 l 8.067,24.816 h 4.344 l 8.066,-24.816 h 26.094 l 1.34,-4.137 -21.106,-15.34 z m 55.742,-2.969 1.348,4.137 h 26.093 l 8.055,24.812 h 4.356 l 8.058,-24.812 h 26.094 l 1.348,-4.137 -21.114,-15.336 8.067,-24.816 -3.516,-2.559 -21.113,15.344 -21.114,-15.344 -3.515,2.559 8.066,24.816 z m 134.174,10.543 c -12.983,75.226 -43.862,164.903 -117.24,164.903 -52.063,0 -76.25,-31.25 -84.668,-45.77 H 534.902 L 351.863,782.48 c 2.305,-2.035 4.512,-4.195 6.594,-6.472 3.711,-3.996 6.941,-8.41 9.793,-13.074 L 499.531,822.305 488.73,774.758 378.145,739.641 c 2.175,-8.172 3.242,-16.672 3.125,-25.254 -3.938,0.816 -7.461,1.843 -10.774,3.011 -3.738,1.317 -7.207,2.817 -10.664,4.422 -1.68,0.785 -3.359,1.594 -5.078,2.418 -3.25,1.563 -6.621,3.168 -10.242,4.723 -7.571,3.246 -16.301,6.215 -27.598,7.937 -1.562,0.235 -3.164,0.45 -4.824,0.637 -2.539,0.285 -5.215,0.508 -8.02,0.656 -2.429,0.133 -4.961,0.215 -7.605,0.231 -0.391,0.008 -0.762,0.019 -1.164,0.019 -0.391,0 -0.75,-0.011 -1.133,-0.019 -2.645,-0.016 -5.164,-0.098 -7.598,-0.231 -2.617,-0.14 -5.125,-0.336 -7.519,-0.593 -1.844,-0.2 -3.613,-0.434 -5.321,-0.696 -10.871,-1.652 -19.375,-4.461 -26.738,-7.554 -3.965,-1.672 -7.609,-3.418 -11.133,-5.11 -1.796,-0.863 -3.554,-1.703 -5.312,-2.519 -3.371,-1.563 -6.75,-3.024 -10.391,-4.309 -3.301,-1.164 -6.816,-2.191 -10.742,-3.012 -0.137,8.946 1.043,17.805 3.426,26.282 L 70.8477,787.805 c 0.0117,-16.621 0.7343,-33.102 2.0625,-49.43 -0.0196,0 -0.0508,0 -0.0704,0 0.1368,-1.66 0.3516,-3.285 0.5,-4.937 0.3008,-3.415 0.5352,-6.84 0.8985,-10.239 l 0.125,0.016 c 0.2734,-2.547 0.4609,-5.125 0.7617,-7.652 0.7227,0.007 1.418,0.027 2.1602,0.027 1.9218,0 3.7382,-0.043 5.4961,-0.106 0.4023,-0.015 0.7929,-0.035 1.1718,-0.054 1.5235,-0.071 3,-0.16 4.4141,-0.274 0.1875,-0.015 0.3828,-0.027 0.5586,-0.043 3.418,-0.3 6.5508,-0.722 9.4609,-1.261 v 0.003 c 11.5623,-2.125 19.6293,-5.972 28.4683,-10.218 13.875,-6.66 29.598,-14.207 59.442,-14.207 29.855,0 45.578,7.547 59.453,14.207 4.27,2.051 8.359,4.011 12.754,5.726 8.078,3.172 17.207,5.504 30.383,6.075 1.316,0.058 2.683,0.097 4.082,0.121 0.781,0.011 1.531,0.031 2.332,0.031 0.781,0 1.523,-0.02 2.277,-0.031 1.492,-0.024 2.938,-0.067 4.336,-0.129 12.441,-0.559 21.27,-2.696 29.024,-5.621 4.843,-1.821 9.277,-3.942 13.925,-6.172 13.875,-6.66 29.598,-14.207 59.453,-14.207 29.852,0 45.586,7.547 59.454,14.207 3.308,1.59 6.511,3.125 9.832,4.539 l -5,-22.039 21.093,4.301 -5.027,-23.258 c -11.973,-2.684 -20.734,-6.867 -29.309,-10.981 -13.164,-6.32 -25.613,-12.293 -51.043,-12.293 -25.429,0 -37.871,5.973 -51.046,12.293 -14.2,6.813 -28.895,13.867 -57.969,13.867 -29.071,0 -43.758,-7.046 -57.957,-13.867 -13.176,-6.32 -25.606,-12.293 -51.047,-12.293 -25.418,0 -37.859,5.973 -51.035,12.293 -8.36,4.016 -17,8.114 -28.699,10.813 0,0 0,0.019 0,0.031 -0.598,0.137 -1.243,0.246 -1.848,0.375 -0.926,0.195 -1.844,0.395 -2.813,0.57 -1.062,0.2 -2.1872,0.367 -3.3082,0.535 -0.7149,0.114 -1.379,0.247 -2.1211,0.348 v -0.023 c -4.2461,0.578 -8.836,0.98 -13.9336,1.136 1.1211,-5.433 2.332,-10.824 3.6211,-16.179 3.3593,-0.207 6.4375,-0.551 9.3359,-0.985 1.0547,-0.152 2.0703,-0.324 3.0781,-0.511 0.711,-0.125 1.4338,-0.243 2.1168,-0.383 1.622,-0.34 3.196,-0.696 4.707,-1.09 0.149,-0.039 0.293,-0.082 0.442,-0.121 1.629,-0.438 3.191,-0.906 4.707,-1.402 6.492,-2.141 12.07,-4.786 17.801,-7.536 14.199,-6.82 28.886,-13.867 57.949,-13.867 29.074,0 43.762,7.051 57.969,13.867 13.164,6.325 25.605,12.293 51.035,12.293 25.441,0 37.871,-5.968 51.054,-12.293 14.2,-6.82 28.887,-13.867 57.961,-13.867 29.071,0 43.77,7.047 57.969,13.867 5.918,2.84 11.699,5.606 18.563,7.793 l -10.379,-47.984 c -6.172,-2.266 -11.516,-4.813 -16.594,-7.254 -13.359,-6.41 -24.91,-11.953 -49.559,-11.953 -24.648,0 -36.191,5.543 -49.562,11.953 -13.875,6.66 -29.598,14.207 -59.453,14.207 -29.844,0 -45.574,-7.547 -59.442,-14.207 -13.359,-6.41 -24.902,-11.953 -49.562,-11.953 -24.637,0 -36.18,5.543 -49.551,11.953 -3.328,1.606 -6.824,3.234 -10.508,4.813 -0.008,0.011 -0.008,0.019 -0.008,0.031 -0.214,0.094 -0.449,0.176 -0.664,0.262 -0.468,0.195 -0.89,0.406 -1.367,0.601 l -0.019,-0.051 c -6.914,2.821 -14.797,5.364 -24.7269,6.922 2.7619,-8.441 5.7499,-16.847 8.8869,-25.226 l -0.059,-0.02 c 13.457,-35.957 30.371,-71.351 50.528,-105.906 0.918,-1.57 1.816,-3.141 2.742,-4.703 1.457,-2.45 2.941,-4.887 4.433,-7.328 1.094,-1.801 2.188,-3.61 3.301,-5.411 1.438,-2.308 2.903,-4.609 4.356,-6.914 1.242,-1.937 2.472,-3.879 3.722,-5.812 1.414,-2.184 2.852,-4.36 4.297,-6.531 1.375,-2.09 2.781,-4.176 4.188,-6.254 1.367,-2.024 2.734,-4.039 4.132,-6.059 1.583,-2.297 3.204,-4.594 4.825,-6.887 1.269,-1.808 2.539,-3.613 3.836,-5.421 1.906,-2.645 3.847,-5.29 5.793,-7.922 1.074,-1.453 2.117,-2.907 3.203,-4.36 3.066,-4.097 6.172,-8.176 9.324,-12.246 76.719,-98.711 182.512,-188.898 314.426,-268.058 l 11.367,-6.832 11.367,6.832 c 131.914,79.16 237.703,169.347 314.422,268.058 0.098,0.141 0.207,0.27 0.305,0.41 4.765,6.141 9.402,12.317 13.933,18.524 0.578,0.781 1.153,1.554 1.719,2.34 4.59,6.316 9.055,12.664 13.41,19.05 0.36,0.539 0.731,1.075 1.094,1.618 9.246,13.613 17.996,27.371 26.18,41.277 21.425,36.379 39.211,73.695 53.195,111.641 l -0.07,0.031 c 2.707,7.344 5.324,14.711 7.754,22.109 -9.93,-1.558 -17.813,-4.097 -24.727,-6.914 l -0.008,0.043 c -0.441,-0.18 -0.832,-0.371 -1.262,-0.547 -0.253,-0.105 -0.535,-0.211 -0.789,-0.316 0,-0.012 0,-0.028 -0.011,-0.035 -3.68,-1.578 -7.157,-3.207 -10.496,-4.809 -13.36,-6.41 -24.903,-11.953 -49.551,-11.953 -24.649,0 -36.192,5.543 -49.551,11.953 -13.879,6.66 -29.602,14.207 -59.453,14.207 -29.856,0 -45.578,-7.547 -59.445,-14.207 -13.368,-6.41 -24.911,-11.953 -49.571,-11.953 -24.648,0 -36.191,5.543 -49.558,11.953 -5.078,2.441 -10.411,4.992 -16.594,7.254 l -19.227,88.852 21.094,-4.301 v 0.008 0 l -12.754,56.136 69.129,68.563 45.566,-33.481 71.36,72.075 71.367,-72.075 45.477,33.418 81.691,-82.816 20.54,-20.82 c 0.97,7.195 1.78,14.457 2.5,21.757 l 0.06,-0.004 c 0.09,1.008 0.14,2.036 0.23,3.043 0.14,1.497 0.31,2.977 0.44,4.477 l -0.08,0.074 c 4.52,53.879 1.99,109.52 -7.68,165.555" style="fill:#231f20;fill-opacity:1;fill-rule:nonzero;stroke:none" id="path50"></path>
      <path d="m 726.25,506.074 c 2.488,1.004 4.883,2.063 7.195,3.137 v 17.703 c -0.398,-0.191 -0.8,-0.387 -1.199,-0.574 -2.004,-0.957 -3.984,-1.906 -5.996,-2.832 -11.262,-5.164 -23.477,-9.461 -45.051,-9.461 -23.523,0 -35.926,5.109 -48.086,10.875 V 507.34 c 11.711,-5.07 25.586,-9.289 48.086,-9.289 20.586,0 33.946,3.543 45.051,8.023" style="fill:#231f20;fill-opacity:1;fill-rule:nonzero;stroke:none" id="path52"></path>
      <path d="m 726.25,458.516 c -11.262,-5.161 -23.477,-9.457 -45.051,-9.457 -16.523,0 -27.547,2.523 -36.863,6.019 v -16.933 c 9.531,-2.997 21.062,-5.086 36.863,-5.086 20.586,0 33.946,3.543 45.051,8.027 2.488,1.004 4.883,2.059 7.195,3.133 v 17.707 c -0.398,-0.196 -0.8,-0.387 -1.199,-0.578 -2.004,-0.957 -3.984,-1.907 -5.996,-2.832" style="fill:#231f20;fill-opacity:1;fill-rule:nonzero;stroke:none" id="path54"></path>
      <path d="m 726.25,393.648 c -11.262,-5.16 -23.477,-9.468 -45.051,-9.468 -8.426,0 -15.41,0.672 -21.484,1.781 V 369.73 c 6.23,-0.968 13.273,-1.539 21.484,-1.539 20.586,0 33.946,3.539 45.051,8.028 2.488,1 4.883,2.062 7.195,3.133 v 17.699 c -0.398,-0.192 -0.8,-0.379 -1.199,-0.571 -2.004,-0.96 -3.984,-1.91 -5.996,-2.832" style="fill:#231f20;fill-opacity:1;fill-rule:nonzero;stroke:none" id="path56"></path>
      <path d="m 154.559,983.84 9.004,-6.141 93.632,127.861 v 16.31 H 241.738 L 154.559,983.84" style="fill:#231f20;fill-opacity:1;fill-rule:nonzero;stroke:none" id="path58"></path>
      <path d="m 684.949,660.793 v 55.023 h -23.133 v -13.367 h 7.645 v -41.656 h 15.488" style="fill:#231f20;fill-opacity:1;fill-rule:nonzero;stroke:none" id="path60"></path>
      <path d="m 750.313,671.672 c -3.079,0 -5.579,2.562 -5.579,5.723 0,3.226 2.5,5.859 5.579,5.859 3.074,0 5.574,-2.633 5.574,-5.859 0,-3.161 -2.5,-5.723 -5.574,-5.723 z m 0,24.59 c -2.805,0 -5.079,2.336 -5.079,5.218 0,2.883 2.274,5.223 5.079,5.223 2.8,0 5.078,-2.34 5.078,-5.223 0,-2.882 -2.278,-5.218 -5.078,-5.218 z m -21.204,-20.641 c 0,-11.012 10.918,-16.953 21.204,-16.953 10.281,0 21.199,5.941 21.199,16.953 0,6.442 -3.418,11.504 -9.453,14.129 4.406,2.227 7.257,6.898 7.257,12.16 0,11.016 -9.855,16.028 -19.003,16.028 -9.153,0 -19.004,-5.012 -19.004,-16.028 0,-5.262 2.839,-9.933 7.254,-12.16 -6.036,-2.625 -9.454,-7.687 -9.454,-14.129" style="fill:#231f20;fill-opacity:1;fill-rule:nonzero;stroke:none" id="path62"></path>
      <path d="m 833.27,687.148 c 4.355,0 7.773,-3.476 7.773,-7.914 0,-4.523 -3.418,-8.062 -7.773,-8.062 -4.403,0 -7.997,3.617 -7.997,8.062 0,4.364 3.594,7.914 7.997,7.914 z m -2.665,28.668 -11.718,-15.336 c -3.985,-5.21 -8.742,-13.218 -8.742,-21.742 0,-5.597 2.851,-11.453 7.46,-15.297 3.829,-3.031 9.563,-4.773 15.735,-4.773 11.433,0 23.75,6.57 23.75,20.988 0,9.489 -6.289,19.578 -17.942,19.578 -1.835,0 -3.523,-0.242 -5.253,-0.757 l 14.55,17.339 h -17.84" style="fill:#231f20;fill-opacity:1;fill-rule:nonzero;stroke:none" id="path64"></path>
      <path d="m 914.102,671.672 c -3.079,0 -5.586,2.562 -5.586,5.723 0,3.226 2.507,5.859 5.586,5.859 3.074,0 5.574,-2.633 5.574,-5.859 0,-3.161 -2.5,-5.723 -5.574,-5.723 z m 0,24.59 c -2.805,0 -5.079,2.336 -5.079,5.218 0,2.883 2.274,5.223 5.079,5.223 2.793,0 5.078,-2.34 5.078,-5.223 0,-2.882 -2.285,-5.218 -5.078,-5.218 z m -21.211,-20.641 c 0,-11.012 10.925,-16.953 21.211,-16.953 10.273,0 21.199,5.941 21.199,16.953 0,6.442 -3.418,11.504 -9.453,14.129 4.406,2.227 7.257,6.898 7.257,12.16 0,11.016 -9.855,16.028 -19.003,16.028 -9.161,0 -19.004,-5.012 -19.004,-16.028 0,-5.262 2.84,-9.933 7.246,-12.16 -6.035,-2.625 -9.453,-7.687 -9.453,-14.129" style="fill:#231f20;fill-opacity:1;fill-rule:nonzero;stroke:none" id="path66"></path>
      <path d="m 1474.41,878.977 c 0,123.953 -27.47,171.523 -87.77,171.523 -60.97,0 -88.44,-47.57 -88.44,-171.523 0,-123.286 27.47,-171.528 88.44,-171.528 60.3,0 87.77,48.242 87.77,171.528 z m -276.72,0 c 0,125.963 68.34,203.683 188.95,203.683 119.93,0 188.28,-77.72 188.28,-203.683 0,-125.965 -68.35,-203.684 -188.28,-203.684 -120.61,0 -188.95,77.719 -188.95,203.684" style="fill:#f1491c;fill-opacity:1;fill-rule:nonzero;stroke:none" id="path68"></path>
      <path d="m 1763.85,702.766 -8.71,-20.774 h -163.48 v 18.762 l 27.46,12.059 v 182.914 l -28.13,44.218 v 7.375 l 101.17,33.5 h 14.07 l -2.01,-68.343 h 2.67 c 13.4,34.168 39.54,68.343 83.75,68.343 35.52,0 56.96,-20.769 56.96,-53.601 0,-30.153 -20.77,-48.914 -46.23,-48.914 -28.81,0 -46.23,19.429 -46.23,46.898 -16.75,-7.367 -32.84,-22.777 -48.25,-42.879 V 715.492 l 56.96,-12.726" style="fill:#f1491c;fill-opacity:1;fill-rule:nonzero;stroke:none" id="path70"></path>
      <path d="m 1927.99,865.574 h 94.47 c 1.35,5.364 2.01,14.074 2.01,24.793 0,31.488 -8.71,59.629 -40.19,59.629 -29.49,0 -50.93,-27.469 -56.29,-84.422 z m 83.75,-134.004 c 30.15,0 47.58,7.375 72.36,26.133 l 12.74,-14.738 c -21.45,-48.242 -62.32,-67.672 -119.26,-67.672 -76.39,0 -136.69,48.91 -136.69,148.738 0,101.172 68.35,156.789 149.41,156.789 65.67,0 111.22,-38.191 111.22,-108.547 0,-10.714 -0.66,-25.457 -3.35,-38.187 h -171.52 c 1.34,-60.973 28.14,-102.516 85.09,-102.516" style="fill:#f1491c;fill-opacity:1;fill-rule:nonzero;stroke:none" id="path72"></path>
      <path d="m 2250.92,950.668 c -34.16,0 -40.2,-26.133 -40.2,-69.684 0,-42.879 6.04,-69.011 40.2,-69.011 34.84,0 40.88,26.132 40.88,69.011 0,43.551 -6.04,69.684 -40.88,69.684 z m -69.01,-335.68 c 0,-35.508 26.14,-52.258 72.37,-52.258 52.93,0 93.12,14.743 93.12,56.954 0,25.457 -13.4,40.867 -52.93,40.867 h -84.41 c -17.42,-9.379 -28.15,-24.121 -28.15,-45.563 z m 134.01,125.293 c 63.65,0 103.84,-30.816 103.84,-95.14 0,-81.743 -81.07,-111.895 -169.51,-111.895 -81.74,0 -142.05,18.766 -142.05,70.352 0,38.195 30.16,55.617 75.73,62.316 v 2.008 c -38.2,4.691 -59.63,26.801 -59.63,61.644 0,34.836 26.12,55.61 62.96,62.977 -38.18,13.398 -62.3,40.199 -62.3,83.75 0,58.965 44.22,104.527 128.64,104.527 34.84,0 75.72,-6.703 107.2,-22.113 -2.68,4.023 -4.01,9.379 -4.01,16.082 0,21.441 16.08,34.841 36.84,34.841 21.45,0 36.86,-14.743 36.86,-38.189 0,-25.464 -16.76,-39.531 -40.88,-39.531 -17.41,0 -33.5,6.699 -52.93,14.067 v -6.7 c 23.46,-10.718 39.53,-33.5 39.53,-63.652 0,-64.32 -64.32,-93.129 -123.28,-93.129 -14.74,0 -28.15,1.336 -40.87,4.688 -14.07,-4.688 -24.8,-12.063 -24.8,-26.797 0,-13.407 8.05,-20.106 24.13,-20.106 h 104.53" style="fill:#f1491c;fill-opacity:1;fill-rule:nonzero;stroke:none" id="path74"></path>
      <path d="m 2554.43,706.113 c 44.89,0 56.96,44.219 56.96,121.946 0,77.718 -12.07,121.937 -56.96,121.937 -44.89,0 -56.95,-44.219 -56.95,-121.937 0,-77.727 12.06,-121.946 56.95,-121.946 z m 0,-30.82 c -90.45,0 -150.09,51.594 -150.09,152.766 0,101.171 59.64,152.761 150.09,152.761 90.45,0 150.08,-51.59 150.08,-152.761 0,-101.172 -59.63,-152.766 -150.08,-152.766" style="fill:#f1491c;fill-opacity:1;fill-rule:nonzero;stroke:none" id="path76"></path>
      <path d="m 3056.26,701.422 -8.71,-19.43 h -146.73 v 18.762 l 27.46,12.726 v 146.067 c 0,43.551 -22.77,58.289 -47.57,58.289 -22.78,0 -40.87,-11.391 -52.93,-22.777 V 714.156 l 39.53,-12.734 -8.71,-19.43 h -146.06 v 18.762 l 27.47,12.059 v 183.585 l -28.14,44.215 v 7.375 l 101.18,32.832 h 14.06 l -2.01,-58.293 h 2.68 c 24.12,38.192 57.63,58.293 102.51,58.293 48.91,0 86.44,-34.175 86.44,-102.515 V 714.156 l 39.53,-12.734" style="fill:#f1491c;fill-opacity:1;fill-rule:nonzero;stroke:none" id="path78"></path>
      <path d="m 3326.25,761.723 c 0,36.183 -18.77,53.605 -62.99,71.019 l -48.24,20.106 c -49.57,20.097 -78.39,53.597 -78.39,115.238 0,79.734 61.65,114.574 126.63,114.574 35.51,0 64.33,-8.04 85.1,-14.74 l 32.83,14.74 6.03,-111.219 -18.1,-4.023 -32.15,42.212 c -20.11,28.14 -40.88,42.88 -75.72,42.88 -31.48,0 -52.93,-20.1 -52.93,-50.92 0,-30.824 14.07,-48.914 54.28,-64.992 l 50.25,-20.098 c 62.98,-24.797 90.45,-60.973 90.45,-122.613 0,-80.407 -60.98,-118.594 -132.67,-118.594 -48.24,0 -73.7,12.062 -92.46,21.441 l -36.18,-21.441 -11.39,127.301 20.77,4.023 32.83,-47.574 c 22.11,-34.172 46.9,-52.262 85.1,-52.262 35.5,0 56.95,20.106 56.95,54.942" style="fill:#f1491c;fill-opacity:1;fill-rule:nonzero;stroke:none" id="path80"></path>
      <path d="m 3408.63,961.387 107.21,91.793 h 20.1 v -79.063 h 88.43 l -4.68,-34.84 h -83.08 V 781.152 c 0,-38.855 14.74,-53.597 41.53,-53.597 17.43,0 30.82,4.015 49.59,14.066 l 6.7,-16.078 c -20.77,-31.488 -54.27,-50.25 -97.15,-50.25 -52.26,0 -88.44,26.129 -88.44,94.473 v 169.511 h -40.21 v 22.11" style="fill:#f1491c;fill-opacity:1;fill-rule:nonzero;stroke:none" id="path82"></path>
      <path d="m 3785.18,812.648 c -39.54,0 -62.32,-10.054 -62.32,-45.562 0,-24.789 14.74,-41.543 38.19,-41.543 14.74,0 26.8,3.348 38.86,14.07 v 73.035 z m 102.5,-66.335 c 0,-30.153 10.72,-36.848 42.21,-33.5 l 2.01,-13.399 c -16.74,-16.086 -38.85,-24.121 -70.35,-24.121 -28.81,0 -52.93,12.062 -58.29,42.883 l -2.01,0.668 c -14.06,-30.153 -44.88,-43.551 -81.07,-43.551 -44.89,0 -81.74,24.789 -81.74,80.398 0,58.961 46.9,87.778 121.27,87.778 14.08,0 29.49,-2.684 40.2,-5.364 v 25.458 c 0,38.863 -24.79,58.292 -64.32,58.292 -28.14,0 -51.59,-5.355 -79.73,-20.097 l -8.05,19.43 c 28.82,38.863 75.05,59.632 129.99,59.632 55.62,0 109.88,-24.797 109.88,-106.535 V 746.313" style="fill:#f1491c;fill-opacity:1;fill-rule:nonzero;stroke:none" id="path84"></path>
      <path d="m 3899.73,961.387 107.2,91.793 h 20.1 v -79.063 h 88.44 l -4.69,-34.84 h -83.09 V 781.152 c 0,-38.855 14.75,-53.597 41.55,-53.597 17.42,0 30.82,4.015 49.58,14.066 l 6.71,-16.078 c -20.78,-31.488 -54.28,-50.25 -97.16,-50.25 -52.26,0 -88.45,26.129 -88.45,94.473 v 169.511 h -40.19 v 22.11" style="fill:#f1491c;fill-opacity:1;fill-rule:nonzero;stroke:none" id="path86"></path>
      <path d="m 4206.58,865.574 h 94.47 c 1.34,5.364 2.02,14.074 2.02,24.793 0,31.488 -8.72,59.629 -40.21,59.629 -29.48,0 -50.92,-27.469 -56.28,-84.422 z m 83.75,-134.004 c 30.16,0 47.58,7.375 72.36,26.133 l 12.74,-14.738 c -21.45,-48.242 -62.32,-67.672 -119.27,-67.672 -76.38,0 -136.69,48.91 -136.69,148.738 0,101.172 68.35,156.789 149.42,156.789 65.66,0 111.23,-38.191 111.23,-108.547 0,-10.714 -0.68,-25.457 -3.36,-38.187 h -171.53 c 1.35,-60.973 28.15,-102.516 85.1,-102.516" style="fill:#f1491c;fill-opacity:1;fill-rule:nonzero;stroke:none" id="path88"></path>
    </g>
  </g>
</svg>
